<?xml version="1.0" encoding="utf-8"?>
<!-- Generator: Adobe Illustrator 16.0.0, SVG Export Plug-In . SVG Version: 6.00 Build 0)  -->
<!DOCTYPE svg PUBLIC "-//W3C//DTD SVG 1.1//EN" "http://www.w3.org/Graphics/SVG/1.1/DTD/svg11.dtd">
<svg version="1.1" id="Layer_1" xmlns="http://www.w3.org/2000/svg" xmlns:xlink="http://www.w3.org/1999/xlink" x="0px" y="0px"
	 width="800px" height="200px" viewBox="0 0 800 200" enable-background="new 0 0 800 200" xml:space="preserve">
<path fill="#F2F2F2" d="M768.033,0.146h-89.28h-15.685h-462.77v200.298h462.77h15.685h89.28c12.804,0,23.184-8.105,23.184-18.115
	V18.262C791.217,8.259,780.837,0.146,768.033,0.146z"/>
<g>
	<rect x="200.3" y="66" fill="none" width="590.917" height="68.59"/>
	<path fill="#F17C21" d="M271.875,107.329v24.097h-14.011V65.981h15.106c5.994,0,10.443,0.761,13.349,2.282
		c2.905,1.521,4.358,4.625,4.358,9.31v18.164c0,4.29-1.187,7.326-3.56,9.105C284.745,106.622,279.664,107.451,271.875,107.329z
		 M276.667,94.504V78.805c0-2.312-1.597-3.468-4.792-3.468v22.636C275.07,97.973,276.667,96.817,276.667,94.504z"/>
	<path fill="#F17C21" d="M338.378,131.426h-14.244l-2.427-17.57h-6.379l-2.455,17.57h-14.245l10.751-65.445h18.228L338.378,131.426z
		 M320.549,104.773l-2.068-19.533l-1.958,19.533H320.549z"/>
	<path fill="#F17C21" d="M382.429,131.517h-14.376c-1.552-1.855-2.328-7.119-2.328-15.79v-0.092l0.091-3.925
		c0.091-5.445,0.137-8.229,0.137-8.352c0-2.221-1.491-3.332-4.472-3.332v31.399h-14.376V65.981h17.753
		c4.046,0,7.568,0.929,10.565,2.784c2.996,1.856,4.495,4.792,4.495,8.808v7.85c0,5.082-2.966,8.519-8.899,10.314
		c5.963,1.4,8.945,5.005,8.945,10.817l-0.228,7.165C379.736,124.186,380.633,130.118,382.429,131.517z M365.908,88.608V77.81
		c0-2.287-1.476-3.431-4.427-3.431v17.708C364.432,92.086,365.908,90.927,365.908,88.608z"/>
	<path fill="#F17C21" d="M426.524,131.426h-15.803l-5.511-24.236v24.236h-14.375V65.981h14.375v21.865l6.296-21.865h13.329
		l-8.854,29.847L426.524,131.426z"/>
	<path fill="#F17C21" d="M448.987,131.426h-14.376V65.981h14.376V131.426z"/>
	<path fill="#F17C21" d="M494.68,131.426h-14.787l-9.767-34.868v34.868h-12.002V65.981h16.338l8.215,29.847V65.981h12.003V131.426z"
		/>
	<path fill="#F17C21" d="M535.627,131.426h-6.892l-1.871-3.605c-3.164,2.8-6.511,4.199-10.04,4.199c-3.438,0-6.442-0.891-9.014-2.67
		c-2.571-1.78-3.856-4.617-3.856-8.512V78.121c0-8.488,5.416-12.733,16.247-12.733c10.284,0,15.426,3.864,15.426,11.592v12.139
		h-13.053V75.884c0-1.064-0.707-1.597-2.122-1.597c-1.414,0-2.122,0.533-2.122,1.597v45.41c0,1.065,0.708,1.598,2.122,1.598
		c1.415,0,2.122-0.532,2.122-1.598v-12.23h-2.92V99.022h15.973V131.426z"/>
	<path fill="#F17C21" d="M606.703,131.426h-14.244l-2.427-17.57h-6.379l-2.456,17.57h-14.244l10.751-65.445h18.229L606.703,131.426z
		 M588.874,104.773l-2.068-19.533l-1.958,19.533H588.874z"/>
	<path fill="#F17C21" d="M650.753,131.517h-14.376c-1.552-1.855-2.327-7.119-2.327-15.79v-0.092l0.091-3.925
		c0.091-5.445,0.137-8.229,0.137-8.352c0-2.221-1.491-3.332-4.473-3.332v31.399H615.43V65.981h17.753
		c4.046,0,7.567,0.929,10.564,2.784c2.997,1.856,4.495,4.792,4.495,8.808v7.85c0,5.082-2.966,8.519-8.898,10.314
		c5.962,1.4,8.944,5.005,8.944,10.817l-0.228,7.165C648.061,124.186,648.957,130.118,650.753,131.517z M634.231,88.608V77.81
		c0-2.287-1.476-3.431-4.427-3.431v17.708C632.756,92.086,634.231,90.927,634.231,88.608z"/>
	<path fill="#F17C21" d="M687.091,131.426h-28.112V65.981h27.93v8.397h-13.555v17.708h12.231v7.941h-12.231v23.001h13.737V131.426z"
		/>
	<path fill="#F17C21" d="M734.563,131.426h-14.244l-2.427-17.57h-6.379l-2.456,17.57h-14.244l10.751-65.445h18.229L734.563,131.426z
		 M716.733,104.773l-2.068-19.533l-1.958,19.533H716.733z"/>
</g>
<rect y="0.146" fill="none" width="200.298" height="200.298"/>
<path fill="#F17C21" d="M82.435,0.145H14.914C6.676,0.145,0,8.258,0,18.262v164.066c0,10.01,6.676,18.115,14.914,18.115h67.521
	h117.864V0.145H82.435z"/>
<path fill="#FCD739" d="M140.384,50.345h-36.46h-7.548h-36.46L42.314,87.15v42.721v9.857v10.516h13.145v-10.516h40.917h7.548h40.917
	v10.516h13.145v-10.516v-9.857V87.15L140.384,50.345z M61.045,121.982c-5.987,0-10.844-4.857-10.844-10.844
	s4.857-10.844,10.844-10.844c5.986,0,10.844,4.858,10.844,10.844S67.032,121.982,61.045,121.982z M139.04,121.982
	c-5.988,0-10.845-4.857-10.845-10.844s4.857-10.844,10.845-10.844c5.987,0,10.844,4.858,10.844,10.844
	S145.027,121.982,139.04,121.982z M102.013,85.835h-3.788H50.202l13.268-28.26h34.756h3.788h34.757l13.269,28.26H102.013z"/>
<g>
</g>
<g>
</g>
<g>
</g>
<g>
</g>
<g>
</g>
<g>
</g>
</svg>
