<?xml version="1.0" encoding="utf-8"?>
<!-- Generator: Adobe Illustrator 16.0.0, SVG Export Plug-In . SVG Version: 6.00 Build 0)  -->
<!DOCTYPE svg PUBLIC "-//W3C//DTD SVG 1.1//EN" "http://www.w3.org/Graphics/SVG/1.1/DTD/svg11.dtd">
<svg version="1.1" id="Layer_1" xmlns="http://www.w3.org/2000/svg" xmlns:xlink="http://www.w3.org/1999/xlink" x="0px" y="0px"
	 width="800px" height="200px" viewBox="0 0 800 200" enable-background="new 0 0 800 200" xml:space="preserve">
<path fill="#F2F2F2" d="M767.588,0.001H678.36h-15.676H200.183v200.184h462.501h15.676h89.228c12.798,0,23.17-8.103,23.17-18.107
	V18.107C790.758,8.109,780.386,0.001,767.588,0.001z"/>
<g>
	<rect x="200.184" y="65.818" fill="none" width="590.574" height="68.55"/>
	<path fill="#F17C21" d="M291.608,131.206V65.8h16.921c4.044,0,7.556,0.92,10.536,2.759c2.98,1.84,4.47,4.782,4.47,8.826v9.077
		c0,4.592-2.798,7.83-8.393,9.715c5.899,1.459,8.849,4.607,8.849,9.441v12.68c0,4.318-1.407,7.549-4.219,9.692
		c-2.813,2.144-6.165,3.216-10.057,3.216H291.608z M309.989,88.779V77.622c0-2.286-1.338-3.429-4.014-3.429v18.062
		C308.651,92.254,309.989,91.096,309.989,88.779z M309.989,119.348V102.79c0-2.28-1.338-3.42-4.014-3.42v23.444
		C308.651,122.813,309.989,121.658,309.989,119.348z"/>
	<path fill="#F17C21" d="M347.492,131.206h-14.368V65.8h14.368V131.206z"/>
	<path fill="#F17C21" d="M392.474,131.206h-15.793l-5.507-24.223v24.223h-14.368V65.8h14.368v21.852l6.292-21.852h13.321
		l-8.849,29.83L392.474,131.206z"/>
	<path fill="#F17C21" d="M428.881,131.206h-28.096V65.8h27.915v8.393h-13.547v17.697h12.224v7.937h-12.224v22.988h13.729V131.206z"
		/>
	<path fill="#F17C21" d="M495.904,131.297h-14.368c-1.551-1.854-2.326-7.115-2.326-15.781v-0.091l0.092-3.923
		c0.091-5.442,0.137-8.225,0.137-8.347c0-2.219-1.49-3.33-4.47-3.33v31.38h-14.367V65.8h17.742c4.044,0,7.563,0.928,10.559,2.782
		c2.995,1.855,4.493,4.789,4.493,8.803v7.845c0,5.079-2.965,8.514-8.895,10.308c5.96,1.399,8.94,5.002,8.94,10.81l-0.229,7.161
		C493.213,123.97,494.109,129.899,495.904,131.297z M479.393,88.414V77.622c0-2.286-1.475-3.429-4.424-3.429v17.697
		C477.918,91.889,479.393,90.731,479.393,88.414z"/>
	<path fill="#F17C21" d="M532.22,131.206h-28.096V65.8h27.914v8.393h-13.547v17.697h12.224v7.937h-12.224v22.988h13.729V131.206z"/>
	<path fill="#F17C21" d="M577.384,131.206h-14.778l-9.761-34.847v34.847H540.85V65.8h16.328l8.21,29.83V65.8h11.996V131.206z"/>
	<path fill="#F17C21" d="M616.756,74.329h-8.027v56.877h-14.367V74.329h-8.027V65.8h30.422V74.329z"/>
	<path fill="#F17C21" d="M664.566,131.206H650.33l-2.425-17.561h-6.376l-2.453,17.561H624.84L635.584,65.8h18.218L664.566,131.206z
		 M646.748,104.569l-2.067-19.521l-1.957,19.521H646.748z"/>
	<path fill="#F17C21" d="M700.199,131.206h-26.956V65.8h14.367v57.014h12.589V131.206z"/>
</g>
<rect y="0.001" fill="none" width="200.183" height="200.184"/>
<path fill="#F17C21" d="M82.386,0H14.905C6.672,0,0,8.109,0,18.106v163.971c0,10.005,6.672,18.105,14.905,18.105h67.481h117.797V0
	H82.386z"/>
<g>
	<g>
		<g>
			<path fill="#FCD739" d="M166.597,85.365c-5.842-5.85-13.954-9.478-22.876-9.476c-3.588-0.002-7.049,0.592-10.282,1.676
				l-7.006-15.805c-0.584-1.317-1.893-2.17-3.335-2.17h-11.191c-2.015,0-3.647,1.634-3.647,3.649s1.632,3.648,3.647,3.648h8.817
				l6.14,13.85l-51.651,44.167c-0.114,0.098-0.207,0.189-0.312,0.302c-4.589,4.979-11.132,8.089-18.437,8.09
				c-6.931-0.003-13.171-2.799-17.716-7.339c-4.54-4.545-7.339-10.785-7.339-17.716c0-6.932,2.799-13.172,7.339-17.717
				c4.545-4.54,10.785-7.335,17.716-7.337c6.035,0.001,11.534,2.119,15.864,5.663c4.326,3.542,7.441,8.5,8.643,14.152
				c0.418,1.97,2.358,3.229,4.328,2.81c1.97-0.42,3.229-2.357,2.809-4.33c-0.896-4.212-2.614-8.116-4.969-11.542h24.391
				c2.016,0,3.649-1.635,3.649-3.65c0-2.014-1.633-3.647-3.649-3.647H76.238c-5.464-4.228-12.34-6.754-19.775-6.752
				c-8.922-0.002-17.034,3.625-22.876,9.476c-5.849,5.842-9.478,13.955-9.477,22.876c-0.001,8.923,3.628,17.033,9.477,22.875
				c5.842,5.85,13.955,9.48,22.876,9.478c9.309,0,17.725-3.951,23.616-10.247l49.87-42.646l9.759,22.02
				c0.817,1.841,2.973,2.672,4.816,1.856c1.84-0.816,2.672-2.973,1.854-4.814l-9.963-22.481c2.31-0.706,4.754-1.095,7.305-1.095
				c6.931,0.001,13.171,2.797,17.717,7.337c4.54,4.545,7.336,10.786,7.336,17.717c0,6.931-2.797,13.171-7.336,17.716
				c-4.545,4.54-10.786,7.336-17.717,7.339c-6.454-0.003-12.304-2.427-16.753-6.426c-4.444-4.001-7.444-9.554-8.145-15.802
				c-0.224-2.004-2.028-3.444-4.033-3.221c-2.002,0.225-3.443,2.031-3.218,4.032c0.905,8.081,4.789,15.265,10.513,20.415
				c5.723,5.155,13.33,8.302,21.636,8.299c8.923,0.003,17.034-3.628,22.876-9.478c5.85-5.842,9.477-13.952,9.477-22.875
				C176.074,99.319,172.447,91.207,166.597,85.365z"/>
		</g>
		<circle fill="#FCD739" cx="56.848" cy="109.445" r="11.9"/>
		<circle fill="#FCD739" cx="144.672" cy="109.445" r="11.901"/>
	</g>
</g>
<g>
</g>
<g>
</g>
<g>
</g>
<g>
</g>
<g>
</g>
<g>
</g>
</svg>
