<?xml version="1.0" encoding="utf-8"?>
<!-- Generator: Adobe Illustrator 16.0.0, SVG Export Plug-In . SVG Version: 6.00 Build 0)  -->
<!DOCTYPE svg PUBLIC "-//W3C//DTD SVG 1.1//EN" "http://www.w3.org/Graphics/SVG/1.1/DTD/svg11.dtd">
<svg version="1.1" id="Layer_1" xmlns="http://www.w3.org/2000/svg" xmlns:xlink="http://www.w3.org/1999/xlink" x="0px" y="0px"
	 width="800px" height="200px" viewBox="0 0 800 200" enable-background="new 0 0 800 200" xml:space="preserve">
<path fill="#F2F2F2" d="M764.999,0.301h-88.928h-15.624h-460.94v199.506h460.94h15.624h88.928c12.753,0,23.091-8.072,23.091-18.045
	V18.346C788.09,8.383,777.752,0.301,764.999,0.301z"/>
<g>
	<rect x="199.507" y="65.895" fill="none" width="588.581" height="68.319"/>
	<path fill="#F17C21" d="M291.692,131.062V65.876h16.865c4.03,0,7.53,0.917,10.5,2.75c2.97,1.834,4.455,4.766,4.455,8.796v9.046
		c0,4.576-2.789,7.804-8.364,9.682c5.879,1.455,8.819,4.591,8.819,9.409v12.638c0,4.304-1.402,7.523-4.205,9.659
		c-2.803,2.137-6.145,3.205-10.023,3.205H291.692z M310.011,88.778v-11.12c0-2.278-1.334-3.417-4-3.417v18.001
		C308.677,92.241,310.011,91.087,310.011,88.778z M310.011,119.242v-16.5c0-2.273-1.334-3.41-4-3.41v23.365
		C308.677,122.697,310.011,121.546,310.011,119.242z"/>
	<path fill="#F17C21" d="M347.387,131.062h-14.319V65.876h14.319V131.062z"/>
	<path fill="#F17C21" d="M392.218,131.062h-15.74l-5.489-24.141v24.141H356.67V65.876h14.319v21.778l6.271-21.778h13.276
		l-8.819,29.729L392.218,131.062z"/>
	<path fill="#F17C21" d="M428.502,131.062H400.5V65.876h27.82v8.364h-13.5v17.637h12.182v7.91H414.82v22.91h13.682V131.062z"/>
	<path fill="#F17C21" d="M495.299,131.152h-14.319c-1.546-1.848-2.318-7.091-2.318-15.729v-0.091l0.091-3.909
		c0.091-5.424,0.137-8.197,0.137-8.318c0-2.212-1.485-3.318-4.455-3.318v31.274h-14.319V65.876h17.684
		c4.029,0,7.538,0.925,10.523,2.773c2.984,1.849,4.477,4.773,4.477,8.773v7.819c0,5.062-2.954,8.485-8.863,10.273
		c5.938,1.394,8.909,4.985,8.909,10.773l-0.228,7.137C492.616,123.85,493.51,129.759,495.299,131.152z M478.843,88.414V77.658
		c0-2.278-1.47-3.417-4.409-3.417v17.637C477.373,91.877,478.843,90.723,478.843,88.414z"/>
	<path fill="#F17C21" d="M503.354,119.925V77.968c0-8.455,5.478-12.683,16.433-12.683c10.803,0,16.205,4.198,16.205,12.591v41.958
		c0,3.788-1.506,6.704-4.517,8.75c-3.012,2.046-6.938,3.068-11.779,3.068C508.801,131.652,503.354,127.743,503.354,119.925z
		 M522.037,120.606V76.195c0-1.303-0.772-1.955-2.318-1.955c-1.606,0-2.409,0.652-2.409,1.955v44.412
		c0,1.304,0.803,1.954,2.409,1.954C521.265,122.561,522.037,121.91,522.037,120.606z"/>
	<path fill="#F17C21" d="M545.185,65.876h14.319v54.73c0,1.304,0.803,1.954,2.409,1.954c1.575,0,2.363-0.65,2.363-1.954v-54.73
		h14.319v53.958c0,3.758-1.562,6.667-4.682,8.728c-3.122,2.062-7.122,3.091-12.001,3.091c-4.516,0-8.433-0.924-11.751-2.772
		s-4.978-4.834-4.978-8.955V65.876z"/>
	<path fill="#F17C21" d="M617.789,74.376h-8v56.685H595.47V74.376h-8v-8.5h30.319V74.376z"/>
	<path fill="#F17C21" d="M654.756,131.062h-28.002V65.876h27.82v8.364h-13.501v17.637h12.183v7.91h-12.183v22.91h13.683V131.062z"/>
	<path fill="#F17C21" d="M663.313,104.969h13v14.956c0,1.485,0.901,2.228,2.706,2.228c1.741,0,2.613-0.742,2.613-2.228v-7.728
		c0-2.364-1.576-5.137-4.728-8.319c-6.092-5.909-9.88-9.879-11.365-11.91c-1.484-2.03-2.227-4.257-2.227-6.682v-7.318
		c0-8.455,5.522-12.683,16.57-12.683c9.894,0,14.84,3.849,14.84,11.546v11.273h-13v-12c0-1.303-0.727-1.955-2.179-1.955
		c-1.7,0-2.549,1.258-2.549,3.773l0.273,4.228c0,2.425,1.609,5.243,4.829,8.455c5.985,5.728,9.79,9.728,11.415,12.001
		c1.625,2.272,2.438,4.849,2.438,7.728v8.318c0,8.668-5.538,13.001-16.615,13.001c-10.683,0-16.022-3.939-16.022-11.818V104.969z"/>
</g>
<rect y="0.301" fill="none" width="199.507" height="199.506"/>
<path fill="#F17C21" d="M82.109,0.3H14.855C6.649,0.3,0,8.381,0,18.345v163.418c0,9.972,6.649,18.045,14.855,18.045h67.254h117.398
	V0.3H82.109z"/>
<path fill="#FCD739" d="M113.582,68.278L80.748,50.272L47.913,62.983v86.855l30.716-13.769l37.071,13.769l30.72-12.712V50.272
	L113.582,68.278z M114.643,140.834l-35.484-13.771V61.922l35.484,14.832V140.834z"/>
<g>
</g>
<g>
</g>
<g>
</g>
<g>
</g>
<g>
</g>
<g>
</g>
</svg>
