<?xml version="1.0" encoding="utf-8"?>
<!-- Generator: Adobe Illustrator 16.0.0, SVG Export Plug-In . SVG Version: 6.00 Build 0)  -->
<!DOCTYPE svg PUBLIC "-//W3C//DTD SVG 1.1//EN" "http://www.w3.org/Graphics/SVG/1.1/DTD/svg11.dtd">
<svg version="1.1" id="Layer_1" xmlns="http://www.w3.org/2000/svg" xmlns:xlink="http://www.w3.org/1999/xlink" x="0px" y="0px"
	 width="200px" height="200px" viewBox="0 0 200 200" enable-background="new 0 0 200 200" xml:space="preserve">
<path fill="#DEDDDD" d="M258.038-134.846h-27.315h-4.8H84.333v61.284h141.59h4.8h27.315c3.918,0,7.093-2.48,7.093-5.543v-50.198
	C265.131-132.364,261.956-134.846,258.038-134.846z"/>
<rect x="23.049" y="-134.846" fill="none" width="61.284" height="61.284"/>
<path fill="#F17C21" d="M48.271-134.846H27.612c-2.521,0-4.563,2.482-4.563,5.543v50.198c0,3.063,2.042,5.543,4.563,5.543h20.659
	h36.063v-61.284H48.271z"/>
<path opacity="0.05" d="M200.041,188.038c0,6.628-5.375,12.003-12.003,12.003H12.002C5.374,200.041,0,194.666,0,188.038V12.002
	C0,5.374,5.374,0,12.002,0h176.036c6.628,0,12.003,5.374,12.003,12.002V188.038z"/>
<g>
	<g>
		<g>
			<path fill="#F17C21" d="M139.908,91.162c-3.506-3.51-8.373-5.686-13.727-5.685c-2.154-0.001-4.23,0.355-6.172,1.006l-4.203-9.484
				c-0.351-0.791-1.138-1.303-2.003-1.303h-6.715c-1.209,0-2.189,0.981-2.189,2.189c0,1.21,0.98,2.19,2.189,2.19h5.291l3.685,8.31
				l-30.994,26.502c-0.069,0.06-0.125,0.115-0.188,0.182c-2.754,2.988-6.68,4.853-11.063,4.855c-4.16-0.003-7.903-1.68-10.631-4.405
				c-2.724-2.726-4.403-6.47-4.403-10.631c0-4.159,1.679-7.903,4.403-10.63c2.728-2.725,6.472-4.402,10.631-4.403
				c3.621,0,6.921,1.271,9.52,3.397c2.595,2.125,4.464,5.101,5.187,8.492c0.25,1.183,1.415,1.938,2.596,1.687
				c1.183-0.252,1.938-1.414,1.686-2.598c-0.538-2.529-1.568-4.871-2.981-6.927h14.636c1.21,0,2.189-0.981,2.189-2.191
				c0-1.208-0.979-2.189-2.189-2.189H85.686c-3.28-2.536-7.405-4.052-11.866-4.051c-5.354-0.001-10.222,2.175-13.728,5.685
				c-3.51,3.506-5.688,8.374-5.687,13.728c-0.001,5.356,2.177,10.222,5.687,13.728c3.506,3.512,8.374,5.689,13.728,5.687
				c5.586,0,10.636-2.37,14.171-6.149l29.925-25.589l5.856,13.213c0.491,1.105,1.785,1.604,2.892,1.113
				c1.103-0.49,1.602-1.784,1.112-2.889l-5.979-13.49c1.386-0.423,2.853-0.656,4.384-0.656c4.157,0,7.901,1.678,10.631,4.403
				c2.722,2.727,4.403,6.471,4.403,10.63c0,4.161-1.682,7.905-4.403,10.631c-2.729,2.726-6.474,4.402-10.631,4.405
				c-3.874-0.003-7.385-1.457-10.054-3.856c-2.669-2.401-4.468-5.732-4.89-9.482c-0.134-1.202-1.217-2.067-2.419-1.932
				c-1.2,0.134-2.065,1.218-1.93,2.418c0.542,4.85,2.872,9.159,6.308,12.251c3.434,3.093,7.999,4.982,12.984,4.979
				c5.354,0.003,10.221-2.175,13.727-5.687c3.51-3.506,5.687-8.371,5.687-13.728C145.595,99.536,143.418,94.668,139.908,91.162z"/>
		</g>
		<circle fill="#F17C21" cx="74.051" cy="105.613" r="7.141"/>
		<circle fill="#F17C21" cx="126.751" cy="105.613" r="7.142"/>
	</g>
</g>
<g>
	<rect y="157.969" fill="none" width="201.798" height="20.986"/>
	<path fill="#F17C21" d="M38.489,177.986v-20.023h5.18c1.238,0,2.313,0.281,3.226,0.845c0.912,0.563,1.369,1.464,1.369,2.702v2.778
		c0,1.405-0.857,2.397-2.569,2.975c1.806,0.446,2.709,1.41,2.709,2.89v3.883c0,1.321-0.431,2.311-1.292,2.967
		c-0.861,0.656-1.887,0.984-3.079,0.984H38.489z M44.116,164.998v-3.416c0-0.7-0.41-1.05-1.229-1.05v5.529
		C43.706,166.062,44.116,165.707,44.116,164.998z M44.116,174.355v-5.068c0-0.698-0.41-1.047-1.229-1.047v7.177
		C43.706,175.417,44.116,175.063,44.116,174.355z"/>
	<path fill="#F17C21" d="M55.597,177.986h-4.398v-20.023h4.398V177.986z"/>
	<path fill="#F17C21" d="M69.368,177.986h-4.835l-1.686-7.416v7.416h-4.398v-20.023h4.398v6.689l1.926-6.689h4.078l-2.709,9.132
		L69.368,177.986z"/>
	<path fill="#F17C21" d="M80.514,177.986h-8.602v-20.023h8.545v2.569h-4.147v5.417h3.742v2.43h-3.742v7.038h4.203V177.986z"/>
	<path fill="#F17C21" d="M101.031,178.014h-4.398c-0.475-0.566-0.712-2.178-0.712-4.83v-0.029l0.028-1.2
		c0.028-1.666,0.042-2.519,0.042-2.556c0-0.68-0.456-1.02-1.369-1.02v9.607h-4.398v-20.023h5.432c1.238,0,2.315,0.284,3.232,0.852
		c0.917,0.568,1.375,1.467,1.375,2.695v2.401c0,1.555-0.908,2.606-2.723,3.155c1.824,0.429,2.737,1.531,2.737,3.311l-0.07,2.191
		C100.208,175.771,100.482,177.586,101.031,178.014z M95.977,164.886v-3.304c0-0.7-0.452-1.05-1.354-1.05v5.417
		C95.525,165.949,95.977,165.596,95.977,164.886z"/>
	<path fill="#F17C21" d="M112.15,177.986h-8.602v-20.023h8.545v2.569h-4.146v5.417h3.742v2.43h-3.742v7.038h4.203V177.986z"/>
	<path fill="#F17C21" d="M125.977,177.986h-4.523l-2.988-10.668v10.668h-3.673v-20.023h4.999l2.514,9.132v-9.132h3.672V177.986z"/>
	<path fill="#F17C21" d="M138.029,160.574h-2.457v17.412h-4.398v-17.412h-2.457v-2.611h9.313V160.574z"/>
	<path fill="#F17C21" d="M152.666,177.986h-4.357l-0.742-5.376h-1.953l-0.75,5.376h-4.359l3.29-20.023h5.577L152.666,177.986z
		 M147.211,169.832l-0.633-5.977l-0.599,5.977H147.211z"/>
	<path fill="#F17C21" d="M163.575,177.986h-8.253v-20.023h4.398v17.454h3.854V177.986z"/>
</g>
<path fill="#221F1F" d="M367.14,16.061h-26.871h-5.563h-26.871l-12.973,27.125V74.67v7.266v7.75h9.688v-7.75h30.156h5.563h30.156
	v7.75h9.688v-7.75V74.67V43.186L367.14,16.061z M308.667,68.857c-4.412,0-7.992-3.58-7.992-7.992s3.58-7.992,7.992-7.992
	s7.992,3.58,7.992,7.992S313.079,68.857,308.667,68.857z M366.148,68.857c-4.412,0-7.992-3.58-7.992-7.992s3.58-7.992,7.992-7.992
	c4.413,0,7.992,3.58,7.992,7.992S370.562,68.857,366.148,68.857z M338.86,42.217h-2.792h-35.394l9.778-20.828h25.615h2.792h25.615
	l9.779,20.828H338.86z"/>
<g>
</g>
<g>
</g>
<g>
</g>
<g>
</g>
<g>
</g>
<g>
</g>
</svg>
