<?xml version="1.0" encoding="utf-8"?>
<!-- Generator: Adobe Illustrator 16.0.0, SVG Export Plug-In . SVG Version: 6.00 Build 0)  -->
<!DOCTYPE svg PUBLIC "-//W3C//DTD SVG 1.1//EN" "http://www.w3.org/Graphics/SVG/1.1/DTD/svg11.dtd">
<svg version="1.1" id="Layer_1" xmlns="http://www.w3.org/2000/svg" xmlns:xlink="http://www.w3.org/1999/xlink" x="0px" y="0px"
	 width="200px" height="200px" viewBox="0 0 200 200" enable-background="new 0 0 200 200" xml:space="preserve">
<path fill="#DEDDDD" d="M258.038-134.846h-27.315h-4.8H84.333v61.284h141.59h4.8h27.315c3.918,0,7.093-2.48,7.093-5.543v-50.198
	C265.131-132.364,261.956-134.846,258.038-134.846z"/>
<rect x="23.049" y="-134.846" fill="none" width="61.284" height="61.284"/>
<path fill="#F17C21" d="M48.271-134.846H27.612c-2.521,0-4.563,2.482-4.563,5.543v50.198c0,3.063,2.042,5.543,4.563,5.543h20.659
	h36.063v-61.284H48.271z"/>
<path opacity="0.05" d="M200.041,188.038c0,6.628-5.375,12.003-12.003,12.003H12.002C5.374,200.041,0,194.666,0,188.038V12.002
	C0,5.374,5.374,0,12.002,0h176.036c6.628,0,12.003,5.374,12.003,12.002V188.038z"/>
<g>
	<rect y="157.969" fill="none" width="201.798" height="20.986"/>
	<path fill="#F17C21" d="M38.817,177.986v-20.023h5.18c1.238,0,2.313,0.281,3.226,0.845c0.912,0.563,1.369,1.464,1.369,2.702v2.778
		c0,1.405-0.857,2.397-2.569,2.975c1.806,0.446,2.709,1.41,2.709,2.89v3.883c0,1.321-0.431,2.311-1.292,2.967
		c-0.861,0.656-1.887,0.984-3.079,0.984H38.817z M44.444,164.998v-3.416c0-0.7-0.41-1.05-1.229-1.05v5.529
		C44.034,166.062,44.444,165.707,44.444,164.998z M44.444,174.355v-5.068c0-0.698-0.41-1.047-1.229-1.047v7.177
		C44.034,175.417,44.444,175.063,44.444,174.355z"/>
	<path fill="#F17C21" d="M55.925,177.986h-4.398v-20.023h4.398V177.986z"/>
	<path fill="#F17C21" d="M69.696,177.986h-4.835l-1.686-7.416v7.416h-4.398v-20.023h4.398v6.689l1.926-6.689h4.078l-2.709,9.132
		L69.696,177.986z"/>
	<path fill="#F17C21" d="M80.842,177.986H72.24v-20.023h8.545v2.569h-4.147v5.417h3.742v2.43h-3.742v7.038h4.203V177.986z"/>
	<path fill="#F17C21" d="M101.359,178.014h-4.398c-0.475-0.566-0.712-2.178-0.712-4.83v-0.029l0.028-1.2
		c0.028-1.666,0.042-2.519,0.042-2.556c0-0.68-0.456-1.02-1.369-1.02v9.607h-4.398v-20.023h5.432c1.238,0,2.315,0.284,3.232,0.852
		c0.917,0.568,1.375,1.467,1.375,2.695v2.401c0,1.555-0.908,2.606-2.723,3.155c1.824,0.429,2.737,1.531,2.737,3.311l-0.07,2.191
		C100.536,175.771,100.811,177.586,101.359,178.014z M96.305,164.886v-3.304c0-0.7-0.452-1.05-1.354-1.05v5.417
		C95.854,165.949,96.305,165.596,96.305,164.886z"/>
	<path fill="#F17C21" d="M103.834,174.565v-12.888c0-2.598,1.684-3.896,5.049-3.896c3.318,0,4.978,1.289,4.978,3.868v12.888
		c0,1.164-0.463,2.061-1.388,2.688c-0.925,0.629-2.131,0.943-3.618,0.943C105.508,178.168,103.834,176.967,103.834,174.565z
		 M109.573,174.775v-13.643c0-0.4-0.237-0.601-0.712-0.601c-0.494,0-0.74,0.2-0.74,0.601v13.643c0,0.4,0.246,0.6,0.74,0.6
		C109.336,175.375,109.573,175.176,109.573,174.775z"/>
	<path fill="#F17C21" d="M116.684,157.963h4.398v16.813c0,0.4,0.247,0.6,0.74,0.6c0.484,0,0.727-0.199,0.727-0.6v-16.813h4.398
		v16.574c0,1.154-0.48,2.049-1.438,2.682c-0.959,0.633-2.188,0.949-3.687,0.949c-1.387,0-2.59-0.284-3.609-0.852
		c-1.02-0.568-1.529-1.484-1.529-2.751V157.963z"/>
	<path fill="#F17C21" d="M138.986,160.574h-2.457v17.412h-4.398v-17.412h-2.458v-2.611h9.313V160.574z"/>
	<path fill="#F17C21" d="M150.342,177.986h-8.602v-20.023h8.545v2.569h-4.146v5.417h3.742v2.43h-3.742v7.038h4.203V177.986z"/>
	<path fill="#F17C21" d="M152.97,169.971h3.993v4.595c0,0.456,0.277,0.685,0.832,0.685c0.535,0,0.803-0.229,0.803-0.685v-2.374
		c0-0.727-0.484-1.578-1.453-2.555c-1.871-1.816-3.035-3.035-3.49-3.658c-0.457-0.624-0.685-1.309-0.685-2.053v-2.248
		c0-2.598,1.696-3.896,5.091-3.896c3.039,0,4.559,1.183,4.559,3.547v3.463h-3.994v-3.687c0-0.399-0.223-0.601-0.669-0.601
		c-0.522,0-0.783,0.387-0.783,1.159l0.084,1.299c0,0.745,0.495,1.61,1.483,2.597c1.838,1.76,3.008,2.988,3.506,3.687
		c0.5,0.698,0.75,1.489,0.75,2.374v2.555c0,2.663-1.701,3.994-5.104,3.994c-3.281,0-4.922-1.21-4.922-3.631V169.971z"/>
</g>
<path fill="#221F1F" d="M367.14,16.061h-26.871h-5.563h-26.871l-12.973,27.125V74.67v7.266v7.75h9.688v-7.75h30.156h5.563h30.156
	v7.75h9.688v-7.75V74.67V43.186L367.14,16.061z M308.667,68.857c-4.412,0-7.992-3.58-7.992-7.992s3.58-7.992,7.992-7.992
	s7.992,3.58,7.992,7.992S313.079,68.857,308.667,68.857z M366.148,68.857c-4.412,0-7.992-3.58-7.992-7.992s3.58-7.992,7.992-7.992
	c4.413,0,7.992,3.58,7.992,7.992S370.562,68.857,366.148,68.857z M338.86,42.217h-2.792h-35.394l9.778-20.828h25.615h2.792h25.615
	l9.779,20.828H338.86z"/>
<path fill="#F17C21" d="M110.446,71.205L91.351,60.733l-19.097,7.393v50.512l17.864-8.008l21.56,8.008l17.865-7.393V60.733
	L110.446,71.205z M111.063,113.401l-20.637-8.008V67.509l20.637,8.625V113.401z"/>
<g>
</g>
<g>
</g>
<g>
</g>
<g>
</g>
<g>
</g>
<g>
</g>
</svg>
