<?xml version="1.0" encoding="utf-8"?>
<!-- Generator: Adobe Illustrator 16.0.0, SVG Export Plug-In . SVG Version: 6.00 Build 0)  -->
<!DOCTYPE svg PUBLIC "-//W3C//DTD SVG 1.1//EN" "http://www.w3.org/Graphics/SVG/1.1/DTD/svg11.dtd">
<svg version="1.1" id="Layer_1" xmlns="http://www.w3.org/2000/svg" xmlns:xlink="http://www.w3.org/1999/xlink" x="0px" y="0px"
	 width="1920px" height="1007.867px" viewBox="0 0 1920 1007.867" enable-background="new 0 0 1920 1007.867" xml:space="preserve">
<rect y="-0.001" fill="#00ACC1" width="1920" height="1007.868"/>
<g>
	<path fill="#E2F3F7" d="M367.517,642.032v-189.78h49.095c11.736,0,21.93,2.666,30.574,8.005
		c8.643,5.34,12.964,13.873,12.964,25.612v26.336c0,13.318-8.118,22.711-24.349,28.185c17.115,4.233,25.678,13.37,25.678,27.395
		v36.789c0,12.539-4.082,21.913-12.238,28.125c-8.167,6.222-17.885,9.333-29.183,9.333L367.517,642.032L367.517,642.032z
		 M420.861,518.926v-32.373c0-6.635-3.896-9.947-11.668-9.947v52.409C416.966,529.015,420.861,525.65,420.861,518.926z
		 M420.861,607.619V559.58c0-6.616-3.896-9.926-11.668-9.926v68.024C416.966,617.671,420.861,614.327,420.861,607.619z"/>
	<rect x="487.982" y="452.252" fill="#E2F3F7" width="41.675" height="189.78"/>
	<polygon fill="#E2F3F7" points="660.191,642.032 614.366,642.032 598.382,571.748 598.382,642.032 556.699,642.032 
		556.699,452.252 598.382,452.252 598.382,515.656 616.642,452.252 655.283,452.252 629.605,538.802 	"/>
	<polygon fill="#E2F3F7" points="765.83,642.032 684.298,642.032 684.298,452.252 765.295,452.252 765.295,476.605 725.982,476.605 
		725.982,527.95 761.455,527.95 761.455,550.984 725.982,550.984 725.982,617.679 765.83,617.679 	"/>
	<path fill="#E2F3F7" d="M960.297,642.291h-41.689c-4.5-5.378-6.763-20.644-6.763-45.788v-0.255l0.287-11.396
		c0.237-15.784,0.385-23.855,0.385-24.217c0-6.436-4.32-9.652-12.963-9.652v91.048h-41.691v-189.78h51.476
		c11.745,0,21.944,2.69,30.646,8.074c8.686,5.384,13.033,13.895,13.033,25.544v22.761c0,14.739-8.604,24.706-25.812,29.906
		c17.292,4.062,25.938,14.515,25.938,31.37l-0.661,20.776C952.491,621.036,955.083,638.229,960.297,642.291z M912.369,517.869
		v-31.315c0-6.635-4.261-9.947-12.815-9.947v51.345C908.107,527.95,912.369,524.588,912.369,517.869z"/>
	<polygon fill="#E2F3F7" points="1065.654,642.032 984.139,642.032 984.139,452.252 1065.136,452.252 1065.136,476.605 
		1025.828,476.605 1025.828,527.95 1061.301,527.95 1061.301,550.984 1025.828,550.984 1025.828,617.679 1065.654,617.679 	"/>
	<polygon fill="#E2F3F7" points="1196.707,642.032 1153.835,642.032 1125.511,540.916 1125.511,642.032 1090.701,642.032 
		1090.701,452.252 1138.075,452.252 1161.898,538.802 1161.898,452.252 1196.707,452.252 	"/>
	<polygon fill="#E2F3F7" points="1310.95,476.996 1287.662,476.996 1287.662,642.032 1245.976,642.032 1245.976,476.996 
		1222.683,476.996 1222.683,452.252 1310.95,452.252 	"/>
	<path fill="#E2F3F7" d="M1449.677,642.032h-41.31l-7.033-50.957h-18.505l-7.112,50.957h-41.318l31.186-189.78h52.858
		L1449.677,642.032z M1397.979,564.739l-6.005-56.639l-5.665,56.639H1397.979z"/>
	<polygon fill="#E2F3F7" points="1553.068,642.032 1474.85,642.032 1474.85,452.252 1516.533,452.252 1516.533,617.679 
		1553.068,617.679 	"/>
</g>
<g opacity="0.3">
	<path fill="#E2F3F7" d="M1394.508,407.233c-38.171-38.218-91.197-61.926-149.47-61.914c-23.457-0.014-46.048,3.865-67.179,10.953
		l-45.772-103.266c-3.788-8.604-12.354-14.173-21.782-14.173h-73.125c-13.139,0-23.834,10.677-23.834,23.842
		c0,13.16,10.695,23.829,23.834,23.829h57.627l40.103,90.483L797.462,665.543l-2.038,1.988
		c-29.984,32.521-72.737,52.839-120.465,52.839c-45.278-0.014-86.028-18.278-115.756-47.938
		c-29.655-29.694-47.919-70.467-47.919-115.739c0-45.295,18.265-86.066,47.919-115.757c29.729-29.659,70.478-47.928,115.756-47.936
		c39.441,0.008,75.354,13.852,103.646,37.005c28.259,23.132,48.623,55.532,56.463,92.449c2.753,12.871,15.416,21.095,28.297,18.369
		c12.871-2.748,21.063-15.41,18.35-28.294c-5.878-27.517-17.087-53.021-32.471-75.408h159.346c13.18,0,23.843-10.68,23.843-23.848
		c0-13.166-10.663-23.823-23.843-23.823H804.148c-35.691-27.628-80.612-44.128-129.189-44.115
		c-58.299-0.014-111.288,23.681-149.461,61.907c-38.196,38.16-61.916,91.176-61.916,149.451c0,58.293,23.72,111.285,61.916,149.451
		c38.174,38.223,91.163,61.938,149.461,61.926c60.825,0,115.8-25.817,154.283-66.937l325.825-278.629l39.44,89.002
		c-12.984,13.9-20.999,32.521-20.999,53.046c0,42.938,34.804,77.746,77.746,77.746c42.948,0,77.755-34.809,77.755-77.746
		c0-42.945-34.807-77.757-77.755-77.757c-5.097,0-10.09,0.527-14.913,1.461l-39.025-88.082c15.091-4.616,31.033-7.167,47.712-7.167
		c45.286,0.005,86.063,18.273,115.756,47.933c29.655,29.698,47.926,70.48,47.926,115.751c0,45.287-18.271,86.058-47.926,115.753
		c-29.692,29.646-70.47,47.925-115.756,47.938c-42.162-0.014-80.379-15.845-109.455-41.98
		c-29.005-26.131-48.624-62.415-53.205-103.246c-1.458-13.083-13.258-22.485-26.357-21.038
		c-13.084,1.483-22.498,13.271-21.022,26.35c5.919,52.792,31.282,99.724,68.697,133.359c37.393,33.688,87.073,54.254,141.344,54.24
		c58.282,0.014,111.287-23.703,149.467-61.927c38.207-38.166,61.915-91.156,61.915-149.45
		C1456.409,498.39,1432.712,445.396,1394.508,407.233z"/>
	<path fill="#E2F3F7" d="M599.734,564.553c0,42.938,34.801,77.738,77.76,77.738c42.918,0,77.725-34.801,77.725-77.738
		c0-42.945-34.806-77.744-77.725-77.744C634.535,486.809,599.734,521.607,599.734,564.553z"/>
</g>
<linearGradient id="SVGID_1_" gradientUnits="userSpaceOnUse" x1="960.2974" y1="111.7988" x2="960.2974" y2="0">
	<stop  offset="0" style="stop-color:#FFFFFF;stop-opacity:0"/>
	<stop  offset="0.3726" style="stop-color:#FDFDFD;stop-opacity:0.1491"/>
	<stop  offset="0.5069" style="stop-color:#F6F6F6;stop-opacity:0.2028"/>
	<stop  offset="0.6026" style="stop-color:#EBEBEB;stop-opacity:0.241"/>
	<stop  offset="0.68" style="stop-color:#DADADA;stop-opacity:0.272"/>
	<stop  offset="0.7463" style="stop-color:#C4C4C4;stop-opacity:0.2985"/>
	<stop  offset="0.805" style="stop-color:#A8A8A8;stop-opacity:0.322"/>
	<stop  offset="0.8581" style="stop-color:#888888;stop-opacity:0.3432"/>
	<stop  offset="0.9069" style="stop-color:#626262;stop-opacity:0.3628"/>
	<stop  offset="0.9523" style="stop-color:#373737;stop-opacity:0.3809"/>
	<stop  offset="0.9926" style="stop-color:#090909;stop-opacity:0.397"/>
	<stop  offset="1" style="stop-color:#000000;stop-opacity:0.4"/>
</linearGradient>
<rect x="0.297" fill="url(#SVGID_1_)" width="1920" height="111.799"/>
</svg>
