<?xml version="1.0" encoding="utf-8"?>
<!-- Generator: Adobe Illustrator 16.0.0, SVG Export Plug-In . SVG Version: 6.00 Build 0)  -->
<!DOCTYPE svg PUBLIC "-//W3C//DTD SVG 1.1//EN" "http://www.w3.org/Graphics/SVG/1.1/DTD/svg11.dtd">
<svg version="1.1" id="Layer_1" xmlns="http://www.w3.org/2000/svg" xmlns:xlink="http://www.w3.org/1999/xlink" x="0px" y="0px"
	 width="1920px" height="1007.867px" viewBox="0 0 1920 1007.867" enable-background="new 0 0 1920 1007.867" xml:space="preserve">
<rect fill="#35C2D6" width="1920" height="1007.867"/>
<g>
	<path fill="#E2F3F7" d="M377.183,634.702V445.375h48.978c11.714,0,21.87,2.665,30.5,7.989c8.619,5.328,12.932,13.84,12.932,25.544
		v26.271c0,13.298-8.093,22.667-24.292,28.119c17.09,4.229,25.609,13.337,25.609,27.329v36.704c0,12.503-4.067,21.854-12.206,28.057
		c-8.146,6.206-17.85,9.308-29.117,9.308h-52.404L377.183,634.702L377.183,634.702z M430.385,511.892v-32.294
		c0-6.624-3.873-9.927-11.62-9.927v52.281C426.512,521.949,430.385,518.597,430.385,511.892z M430.385,600.371v-47.922
		c0-6.607-3.873-9.906-11.62-9.906v67.865C426.512,610.408,430.385,607.061,430.385,600.371z"/>
	<rect x="497.352" y="445.375" fill="#E2F3F7" width="41.589" height="189.327"/>
	<polygon fill="#E2F3F7" points="669.146,634.702 623.438,634.702 607.498,564.582 607.498,634.702 565.908,634.702 
		565.908,445.375 607.498,445.375 607.498,508.627 625.694,445.375 664.254,445.375 638.652,531.719 	"/>
	<polygon fill="#E2F3F7" points="774.52,634.702 693.185,634.702 693.185,445.375 773.994,445.375 773.994,469.67 734.788,469.67 
		734.788,520.894 770.174,520.894 770.174,543.864 734.788,543.864 734.788,610.408 774.52,610.408 	"/>
	<path fill="#E2F3F7" d="M968.523,634.962h-41.584c-4.491-5.366-6.741-20.601-6.741-45.681v-0.268l0.272-11.354
		c0.26-15.754,0.399-23.803,0.399-24.155c0-6.427-4.313-9.641-12.944-9.641v90.831H866.35v-189.32h51.354
		c11.706,0,21.889,2.685,30.561,8.053c8.672,5.367,13.004,13.859,13.004,25.479v22.712c0,14.701-8.578,24.645-25.744,29.832
		c17.246,4.056,25.871,14.478,25.871,31.294l-0.652,20.724C960.737,613.756,963.324,630.916,968.523,634.962z M920.73,510.838
		v-31.24c0-6.624-4.272-9.927-12.805-9.927v51.23C916.458,520.894,920.73,517.545,920.73,510.838z"/>
	<path fill="#E2F3F7" d="M991.923,602.354V480.496c0-24.556,15.913-36.834,47.726-36.834c31.373,0,47.066,12.188,47.066,36.566
		v121.862c0,10.999-4.373,19.472-13.125,25.407c-8.744,5.944-20.152,8.916-34.208,8.916
		C1007.736,636.414,991.923,625.056,991.923,602.354z M1046.186,604.327v-128.98c0-3.783-2.243-5.677-6.735-5.677
		c-4.666,0-7.002,1.894-7.002,5.677v128.987c0,3.787,2.336,5.678,7.002,5.678C1043.941,610.012,1046.186,608.118,1046.186,604.327z"
		/>
	<path fill="#E2F3F7" d="M1113.417,445.375h41.581v158.952c0,3.791,2.337,5.685,6.995,5.685c4.58,0,6.862-1.894,6.862-5.685V445.375
		h41.589V602.09c0,10.909-4.531,19.361-13.598,25.348c-9.063,5.99-20.686,8.977-34.854,8.977c-13.117,0-24.498-2.688-34.129-8.051
		c-9.644-5.366-14.461-14.039-14.461-26.006V445.375H1113.417z"/>
	<polygon fill="#E2F3F7" points="1324.276,470.063 1301.043,470.063 1301.043,634.695 1259.461,634.695 1259.461,470.063 
		1236.221,470.063 1236.221,445.375 1324.276,445.375 	"/>
	<polygon fill="#E2F3F7" points="1431.648,634.702 1350.313,634.702 1350.313,445.375 1431.115,445.375 1431.115,469.67 
		1391.902,469.67 1391.902,520.894 1427.282,520.894 1427.282,543.864 1391.902,543.864 1391.902,610.408 1431.648,610.408 	"/>
	<path fill="#E2F3F7" d="M1456.506,558.915h37.749v43.438c0,4.311,2.614,6.47,7.86,6.47c5.058,0,7.58-2.155,7.58-6.47V579.91
		c0-6.869-4.58-14.918-13.718-24.163c-17.696-17.165-28.704-28.694-33.011-34.587c-4.318-5.897-6.462-12.366-6.462-19.41v-21.254
		c0-24.557,16.025-36.834,48.11-36.834c28.731,0,43.106,11.178,43.106,33.533v32.74h-37.755v-34.851
		c0-3.791-2.118-5.681-6.337-5.681c-4.938,0-7.4,3.653-7.4,10.958l0.791,12.279c0,7.042,4.681,15.228,14.023,24.559
		c17.384,16.635,28.425,28.254,33.149,34.851c4.726,6.604,7.09,14.085,7.09,22.444v24.162c0,25.171-16.095,37.757-48.26,37.757
		c-31.021,0-46.521-11.442-46.521-34.319v-43.18H1456.506z"/>
</g>
<path opacity="0.3" fill="#E2F3F7" enable-background="new    " d="M1079.367,268.013L835.609,134.341l-243.766,94.366v644.818
	l228.032-102.223l275.225,102.223l228.038-94.375v-644.81L1079.367,268.013z M1087.234,806.676L823.809,704.447V220.831
	l263.426,110.12V806.676z"/>
<linearGradient id="SVGID_1_" gradientUnits="userSpaceOnUse" x1="960.9258" y1="111.7988" x2="960.9258" y2="0">
	<stop  offset="0" style="stop-color:#FFFFFF;stop-opacity:0"/>
	<stop  offset="0.3726" style="stop-color:#FDFDFD;stop-opacity:0.1491"/>
	<stop  offset="0.5069" style="stop-color:#F6F6F6;stop-opacity:0.2028"/>
	<stop  offset="0.6026" style="stop-color:#EBEBEB;stop-opacity:0.241"/>
	<stop  offset="0.68" style="stop-color:#DADADA;stop-opacity:0.272"/>
	<stop  offset="0.7463" style="stop-color:#C4C4C4;stop-opacity:0.2985"/>
	<stop  offset="0.805" style="stop-color:#A8A8A8;stop-opacity:0.322"/>
	<stop  offset="0.8581" style="stop-color:#888888;stop-opacity:0.3432"/>
	<stop  offset="0.9069" style="stop-color:#626262;stop-opacity:0.3628"/>
	<stop  offset="0.9523" style="stop-color:#373737;stop-opacity:0.3809"/>
	<stop  offset="0.9926" style="stop-color:#090909;stop-opacity:0.397"/>
	<stop  offset="1" style="stop-color:#000000;stop-opacity:0.4"/>
</linearGradient>
<rect x="0.925" fill="url(#SVGID_1_)" width="1920" height="111.799"/>
</svg>
