<?xml version="1.0" encoding="utf-8"?>
<!-- Generator: Adobe Illustrator 16.0.0, SVG Export Plug-In . SVG Version: 6.00 Build 0)  -->
<!DOCTYPE svg PUBLIC "-//W3C//DTD SVG 1.1//EN" "http://www.w3.org/Graphics/SVG/1.1/DTD/svg11.dtd">
<svg version="1.1" id="Layer_1" xmlns="http://www.w3.org/2000/svg" xmlns:xlink="http://www.w3.org/1999/xlink" x="0px" y="0px"
	 width="1920px" height="1005.036px" viewBox="0 0 1920 1005.036" enable-background="new 0 0 1920 1005.036" xml:space="preserve">
<rect fill="#009999" width="1920" height="1005.036"/>
<path opacity="0.3" fill="#E2F3F7" enable-background="new    " d="M1194.369,202.836h-219.25h-45.394H710.491L604.647,423.748
	v256.428v59.164v63.119h79.028V739.34h246.05h45.394h246.043v63.119h79.063V739.34v-59.164V423.748L1194.369,202.836z
	 M717.28,632.823c-35.996,0-65.206-29.162-65.206-65.086c0-35.951,29.209-65.092,65.206-65.092c35.978,0,65.2,29.146,65.2,65.092
	C782.479,603.653,753.27,632.823,717.28,632.823z M1186.289,632.823c-36.004,0-65.232-29.162-65.232-65.086
	c0-35.951,29.229-65.092,65.232-65.092c36.017,0,65.207,29.146,65.207,65.092C1251.496,603.653,1222.308,632.823,1186.289,632.823z
	 M963.637,415.85h-22.793h-288.77l79.781-169.619h209.001h22.779h209.016l79.795,169.619H963.637z"/>
<g>
	<path fill="#E2F3F7" d="M292.797,527.499v69.785h-40.651V407.747h43.824c17.393,0,30.312,2.197,38.737,6.611
		c8.438,4.399,12.646,13.386,12.646,26.963v52.601c0,12.418-3.444,21.211-10.319,26.369
		C330.145,525.448,315.396,527.85,292.797,527.499z M306.707,490.355v-45.471c0-6.695-4.634-10.047-13.91-10.047v65.563
		C302.072,500.401,306.707,497.051,306.707,490.355z"/>
	<path fill="#E2F3F7" d="M485.763,597.284h-41.337l-7.035-50.891h-18.51l-7.122,50.891h-41.336l31.198-189.537H454.5
		L485.763,597.284z M434.027,520.094l-5.999-56.571l-5.678,56.571H434.027z"/>
	<path fill="#E2F3F7" d="M613.576,597.549h-41.708c-4.509-5.377-6.763-20.619-6.763-45.734v-0.266l0.266-11.369
		c0.273-15.768,0.399-23.838,0.399-24.189c0-6.432-4.328-9.648-12.966-9.648v90.941h-41.722V407.747h51.516
		c11.735,0,21.947,2.688,30.645,8.056c8.697,5.376,13.051,13.885,13.051,25.52v22.731c0,14.721-8.618,24.673-25.824,29.871
		c17.307,4.057,25.952,14.488,25.952,31.326l-0.666,20.744C605.755,576.311,608.362,593.5,613.576,597.549z M565.643,473.277
		v-31.271c0-6.63-4.289-9.943-12.84-9.943v51.288C561.354,483.345,565.643,479.986,565.643,473.277z"/>
	<polygon fill="#E2F3F7" points="741.521,597.284 695.662,597.284 679.679,527.086 679.679,597.284 637.963,597.284 
		637.963,407.747 679.679,407.747 679.679,471.069 697.95,407.747 736.62,407.747 710.929,494.192 	"/>
	<rect x="764.991" y="407.747" fill="#E2F3F7" width="41.708" height="189.537"/>
	<polygon fill="#E2F3F7" points="939.279,597.284 896.373,597.284 868.029,496.301 868.029,597.284 833.201,597.284 
		833.201,407.747 880.616,407.747 904.452,494.192 904.452,407.747 939.279,407.747 	"/>
	<path fill="#E2F3F7" d="M1058.083,597.284h-19.994l-5.424-10.441c-9.184,8.111-18.885,12.164-29.128,12.164
		c-9.974,0-18.699-2.586-26.164-7.736c-7.455-5.154-11.177-13.371-11.177-24.654V442.903c0-24.583,15.711-36.874,47.134-36.874
		c29.847,0,44.753,11.188,44.753,33.566v35.161h-37.865V436.43c0-3.086-2.049-4.632-6.161-4.632c-4.104,0-6.158,1.546-6.158,4.632
		v131.506c0,3.086,2.057,4.631,6.158,4.631c4.112,0,6.161-1.545,6.161-4.631v-35.414h-8.479V503.44h46.344V597.284L1058.083,597.284
		z"/>
	<path fill="#E2F3F7" d="M1264.318,597.284h-41.322l-7.049-50.891h-18.515l-7.122,50.891h-41.328l31.196-189.537h52.891
		L1264.318,597.284z M1212.59,520.094l-5.995-56.571l-5.692,56.571H1212.59z"/>
	<path fill="#E2F3F7" d="M1392.126,597.549h-41.71c-4.501-5.377-6.741-20.619-6.741-45.734v-0.266l0.26-11.369
		c0.267-15.768,0.397-23.838,0.397-24.189c0-6.432-4.334-9.648-12.985-9.648v90.941h-41.708V407.747h51.508
		c11.75,0,21.963,2.688,30.666,8.056c8.69,5.376,13.038,13.885,13.038,25.52v22.731c0,14.721-8.604,24.673-25.829,29.871
		c17.3,4.057,25.964,14.488,25.964,31.326l-0.665,20.744C1384.32,576.311,1386.911,593.5,1392.126,597.549z M1344.193,473.277
		v-31.271c0-6.63-4.281-9.943-12.847-9.943v51.288C1339.912,483.345,1344.193,479.986,1344.193,473.277z"/>
	<polygon fill="#E2F3F7" points="1497.571,597.284 1415.996,597.284 1415.996,407.747 1497.045,407.747 1497.045,432.063 
		1457.704,432.063 1457.704,483.345 1493.201,483.345 1493.201,506.342 1457.704,506.342 1457.704,572.959 1497.571,572.959 	"/>
	<path fill="#E2F3F7" d="M1635.311,597.284h-41.33l-7.041-50.891h-18.517l-7.122,50.891h-41.323l31.198-189.537h52.878
		L1635.311,597.284z M1583.574,520.094l-5.996-56.571l-5.691,56.571H1583.574z"/>
</g>
<linearGradient id="SVGID_1_" gradientUnits="userSpaceOnUse" x1="960.0005" y1="111.7988" x2="960.0005" y2="0">
	<stop  offset="0" style="stop-color:#FFFFFF;stop-opacity:0"/>
	<stop  offset="0.3726" style="stop-color:#FDFDFD;stop-opacity:0.1491"/>
	<stop  offset="0.5069" style="stop-color:#F6F6F6;stop-opacity:0.2028"/>
	<stop  offset="0.6026" style="stop-color:#EBEBEB;stop-opacity:0.241"/>
	<stop  offset="0.68" style="stop-color:#DADADA;stop-opacity:0.272"/>
	<stop  offset="0.7463" style="stop-color:#C4C4C4;stop-opacity:0.2985"/>
	<stop  offset="0.805" style="stop-color:#A8A8A8;stop-opacity:0.322"/>
	<stop  offset="0.8581" style="stop-color:#888888;stop-opacity:0.3432"/>
	<stop  offset="0.9069" style="stop-color:#626262;stop-opacity:0.3628"/>
	<stop  offset="0.9523" style="stop-color:#373737;stop-opacity:0.3809"/>
	<stop  offset="0.9926" style="stop-color:#090909;stop-opacity:0.397"/>
	<stop  offset="1" style="stop-color:#000000;stop-opacity:0.4"/>
</linearGradient>
<rect fill="url(#SVGID_1_)" width="1920" height="111.799"/>
</svg>
