<?xml version="1.0" encoding="utf-8"?>
<!-- Generator: Adobe Illustrator 16.0.0, SVG Export Plug-In . SVG Version: 6.00 Build 0)  -->
<!DOCTYPE svg PUBLIC "-//W3C//DTD SVG 1.1//EN" "http://www.w3.org/Graphics/SVG/1.1/DTD/svg11.dtd">
<svg version="1.1" id="Layer_1" xmlns="http://www.w3.org/2000/svg" xmlns:xlink="http://www.w3.org/1999/xlink" x="0px" y="0px"
	 width="200px" height="200px" viewBox="0 0 200 200" enable-background="new 0 0 200 200" xml:space="preserve">
<path fill="#DEDDDD" d="M258.038-134.846h-27.315h-4.8H84.333v61.284h141.59h4.8h27.315c3.918,0,7.093-2.48,7.093-5.543v-50.198
	C265.131-132.364,261.956-134.846,258.038-134.846z"/>
<rect x="23.049" y="-134.846" fill="none" width="61.284" height="61.284"/>
<path fill="#F17C21" d="M48.271-134.846H27.612c-2.521,0-4.563,2.482-4.563,5.543v50.198c0,3.063,2.042,5.543,4.563,5.543h20.659
	h36.063v-61.284H48.271z"/>
<path opacity="0.05" d="M200.041,188.038c0,6.628-5.375,12.003-12.003,12.003H12.002C5.374,200.041,0,194.666,0,188.038V12.002
	C0,5.374,5.374,0,12.002,0h176.036c6.628,0,12.003,5.374,12.003,12.002V188.038z"/>
<g>
	<rect y="157.969" fill="none" width="201.798" height="20.986"/>
	<path fill="#F17C21" d="M32.399,170.613v7.373h-4.287v-20.023h4.622c1.834,0,3.195,0.232,4.084,0.698
		c0.889,0.466,1.333,1.415,1.333,2.849v5.557c0,1.313-0.363,2.242-1.089,2.786C36.337,170.397,34.782,170.65,32.399,170.613z
		 M33.865,166.689v-4.803c0-0.707-0.489-1.062-1.466-1.062v6.926C33.376,167.751,33.865,167.397,33.865,166.689z"/>
	<path fill="#F17C21" d="M52.747,177.986h-4.358l-0.742-5.376h-1.952l-0.751,5.376h-4.358l3.29-20.023h5.577L52.747,177.986z
		 M47.292,169.832l-0.633-5.977l-0.599,5.977H47.292z"/>
	<path fill="#F17C21" d="M66.224,178.014h-4.398c-0.475-0.566-0.712-2.178-0.712-4.83v-0.029l0.028-1.2
		c0.028-1.666,0.042-2.519,0.042-2.556c0-0.68-0.456-1.02-1.369-1.02v9.607h-4.398v-20.023h5.432c1.238,0,2.315,0.284,3.232,0.852
		c0.917,0.568,1.375,1.467,1.375,2.695v2.401c0,1.555-0.908,2.606-2.723,3.155c1.824,0.429,2.737,1.531,2.737,3.311l-0.07,2.191
		C65.4,175.771,65.675,177.586,66.224,178.014z M61.169,164.886v-3.304c0-0.7-0.452-1.05-1.354-1.05v5.417
		C60.718,165.949,61.169,165.596,61.169,164.886z"/>
	<path fill="#F17C21" d="M79.716,177.986h-4.835l-1.686-7.416v7.416h-4.398v-20.023h4.398v6.689l1.926-6.689h4.078l-2.709,9.132
		L79.716,177.986z"/>
	<path fill="#F17C21" d="M86.589,177.986H82.19v-20.023h4.398V177.986z"/>
	<path fill="#F17C21" d="M100.569,177.986h-4.524l-2.988-10.668v10.668h-3.672v-20.023h4.999l2.513,9.132v-9.132h3.672V177.986z"/>
	<path fill="#F17C21" d="M113.098,177.986h-2.109l-0.572-1.104c-0.968,0.857-1.992,1.285-3.072,1.285
		c-1.051,0-1.971-0.272-2.757-0.816c-0.787-0.545-1.181-1.413-1.181-2.605v-13.068c0-2.598,1.657-3.896,4.972-3.896
		c3.146,0,4.72,1.183,4.72,3.547v3.715h-3.994v-4.051c0-0.325-0.217-0.488-0.648-0.488c-0.434,0-0.65,0.163-0.65,0.488v13.895
		c0,0.326,0.217,0.488,0.65,0.488c0.432,0,0.648-0.162,0.648-0.488v-3.742h-0.894v-3.072h4.888V177.986z"/>
	<path fill="#F17C21" d="M134.844,177.986h-4.357l-0.742-5.376h-1.953l-0.75,5.376h-4.359l3.29-20.023h5.577L134.844,177.986z
		 M129.389,169.832l-0.633-5.977l-0.599,5.977H129.389z"/>
	<path fill="#F17C21" d="M148.322,178.014h-4.398c-0.475-0.566-0.713-2.178-0.713-4.83v-0.029l0.028-1.2
		c0.028-1.666,0.042-2.519,0.042-2.556c0-0.68-0.456-1.02-1.369-1.02v9.607h-4.398v-20.023h5.433c1.237,0,2.315,0.284,3.232,0.852
		c0.917,0.568,1.376,1.467,1.376,2.695v2.401c0,1.555-0.908,2.606-2.724,3.155c1.824,0.429,2.737,1.531,2.737,3.311l-0.07,2.191
		C147.498,175.771,147.772,177.586,148.322,178.014z M143.268,164.886v-3.304c0-0.7-0.452-1.05-1.355-1.05v5.417
		C142.815,165.949,143.268,165.596,143.268,164.886z"/>
	<path fill="#F17C21" d="M159.439,177.986h-8.602v-20.023h8.546v2.569h-4.147v5.417h3.742v2.43h-3.742v7.038h4.203V177.986z"/>
	<path fill="#F17C21" d="M173.965,177.986h-4.358l-0.742-5.376h-1.952l-0.751,5.376h-4.358l3.289-20.023h5.578L173.965,177.986z
		 M168.51,169.832l-0.633-5.977l-0.6,5.977H168.51z"/>
</g>
<path fill="#F17C21" d="M119.118,76.835h-17.325h-3.586H80.882l-8.364,17.488v20.299v4.685v4.997h6.246v-4.997h19.443h3.586h19.443
	v4.997h6.245v-4.997v-4.685V94.324L119.118,76.835z M81.418,110.876c-2.845,0-5.153-2.309-5.153-5.153s2.308-5.153,5.153-5.153
	s5.153,2.308,5.153,5.153S84.263,110.876,81.418,110.876z M118.479,110.876c-2.845,0-5.152-2.309-5.152-5.153
	s2.308-5.153,5.152-5.153c2.846,0,5.153,2.308,5.153,5.153S121.324,110.876,118.479,110.876z M100.885,93.699h-1.8H76.266
	l6.305-13.429h16.515h1.8H117.4l6.305,13.429H100.885z"/>
<g>
</g>
<g>
</g>
<g>
</g>
<g>
</g>
<g>
</g>
<g>
</g>
</svg>
