<?xml version="1.0" encoding="utf-8"?>
<!-- Generator: Adobe Illustrator 16.0.0, SVG Export Plug-In . SVG Version: 6.00 Build 0)  -->
<!DOCTYPE svg PUBLIC "-//W3C//DTD SVG 1.1//EN" "http://www.w3.org/Graphics/SVG/1.1/DTD/svg11.dtd">
<svg version="1.1" xmlns="http://www.w3.org/2000/svg" xmlns:xlink="http://www.w3.org/1999/xlink" x="0px" y="0px" width="300px"
	 height="300px" viewBox="0 0 300 300" enable-background="new 0 0 300 300" xml:space="preserve">
<g id="Layer_5">
	<rect fill="#E3F3F7" width="300" height="300"/>
</g>
<g id="Layer_1" display="none">
	<g display="inline">
		<g>
			<path fill="#02838F" d="M81.297,236.97v-21.9h5.665c1.354,0,2.53,0.309,3.528,0.926c0.998,0.614,1.497,1.6,1.497,2.954v3.038
				c0,1.538-0.937,2.621-2.811,3.255c1.976,0.489,2.963,1.542,2.963,3.161v4.246c0,1.444-0.471,2.527-1.412,3.244
				c-0.943,0.717-2.063,1.076-3.368,1.076H81.297L81.297,236.97z M87.452,222.766v-3.735c0-0.768-0.449-1.148-1.346-1.148v6.046
				C87.003,223.928,87.452,223.54,87.452,222.766z M87.452,232.998v-5.544c0-0.761-0.449-1.144-1.346-1.144v7.85
				C87.003,234.16,87.452,233.772,87.452,232.998z"/>
			<rect x="95.198" y="215.069" fill="#02838F" width="4.809" height="21.9"/>
			<polygon fill="#02838F" points="115.07,236.97 109.781,236.97 107.938,228.858 107.938,236.97 103.127,236.97 103.127,215.069 
				107.938,215.069 107.938,222.388 110.044,215.069 114.503,215.069 111.54,225.06 			"/>
			<polygon fill="#02838F" points="127.26,236.97 117.852,236.97 117.852,215.069 127.197,215.069 127.197,217.882 122.661,217.882 
				122.661,223.807 126.754,223.807 126.754,226.463 122.661,226.463 122.661,234.16 127.26,234.16 			"/>
			<path fill="#02838F" d="M149.699,237h-4.81c-0.52-0.621-0.781-2.383-0.781-5.282v-0.03l0.033-1.316
				c0.027-1.823,0.045-2.751,0.045-2.793c0-0.742-0.499-1.115-1.497-1.115v10.507h-4.81v-21.9h5.939
				c1.355,0,2.532,0.311,3.536,0.932c1.002,0.621,1.503,1.604,1.503,2.948v2.628c0,1.699-0.991,2.851-2.977,3.45
				c1.994,0.47,2.993,1.674,2.993,3.618l-0.078,2.397C148.799,234.547,149.098,236.529,149.699,237z M144.169,222.643v-3.612
				c0-0.766-0.491-1.148-1.479-1.148v5.925C143.678,223.807,144.169,223.417,144.169,222.643z"/>
			<polygon fill="#02838F" points="161.856,236.97 152.449,236.97 152.449,215.069 161.797,215.069 161.797,217.882 
				157.262,217.882 157.262,223.807 161.354,223.807 161.354,226.463 157.262,226.463 157.262,234.16 161.856,234.16 			"/>
			<polygon fill="#02838F" points="176.979,236.97 172.033,236.97 168.764,225.302 168.764,236.97 164.748,236.97 164.748,215.069 
				170.213,215.069 172.963,225.06 172.963,215.069 176.979,215.069 			"/>
			<polygon fill="#02838F" points="190.162,217.927 187.476,217.927 187.476,236.97 182.666,236.97 182.666,217.927 
				179.977,217.927 179.977,215.069 190.162,215.069 			"/>
			<path fill="#02838F" d="M206.17,236.97h-4.767l-0.813-5.88h-2.134l-0.821,5.88h-4.768l3.6-21.9h6.099L206.17,236.97z
				 M200.203,228.053l-0.691-6.537l-0.653,6.537H200.203z"/>
			<polygon fill="#02838F" points="218.101,236.97 209.074,236.97 209.074,215.069 213.886,215.069 213.886,234.16 218.101,234.16 
							"/>
		</g>
	</g>
	<g display="inline">
		<g>
			<path fill="#02838F" d="M222.284,100.554c-6.324-6.333-15.112-10.262-24.77-10.26c-3.887-0.002-7.629,0.64-11.13,1.816
				l-7.586-17.114c-0.63-1.425-2.049-2.349-3.612-2.349h-12.117c-2.179,0-3.948,1.77-3.948,3.95c0,2.181,1.77,3.951,3.948,3.951
				h9.552l6.646,14.993l-55.923,47.819l-0.337,0.33c-4.97,5.388-12.055,8.757-19.963,8.757c-7.504-0.004-14.256-3.03-19.183-7.944
				c-4.914-4.923-7.941-11.679-7.941-19.18c0-7.508,3.027-14.264,7.941-19.184c4.927-4.914,11.679-7.943,19.183-7.943
				c6.536,0,12.487,2.295,17.175,6.131c4.684,3.833,8.059,9.203,9.357,15.321c0.456,2.134,2.555,3.497,4.689,3.044
				c2.133-0.455,3.49-2.553,3.041-4.688c-0.975-4.559-2.831-8.785-5.381-12.496h26.406c2.185,0,3.95-1.77,3.95-3.953
				s-1.766-3.948-3.95-3.948h-33.88c-5.915-4.578-13.359-7.312-21.409-7.309c-9.661-0.002-18.443,3.922-24.768,10.258
				c-6.33,6.324-10.261,15.11-10.261,24.768c0,9.66,3.931,18.441,10.261,24.766c6.325,6.336,15.107,10.264,24.768,10.264
				c10.08,0,19.19-4.28,25.567-11.093l53.996-46.175l6.535,14.749c-2.153,2.304-3.48,5.391-3.48,8.792
				c0,7.116,5.77,12.883,12.883,12.883c7.118,0,12.887-5.767,12.887-12.883c0-7.118-5.769-12.887-12.887-12.887
				c-0.843,0-1.672,0.089-2.47,0.242l-6.467-14.596c2.499-0.766,5.142-1.189,7.907-1.189c7.505,0.002,14.261,3.029,19.184,7.943
				c4.914,4.922,7.939,11.681,7.939,19.182c0,7.505-3.025,14.261-7.939,19.184c-4.923,4.912-11.679,7.942-19.184,7.942
				c-6.986,0-13.321-2.624-18.14-6.955c-4.806-4.331-8.057-10.343-8.817-17.11c-0.241-2.167-2.195-3.727-4.368-3.486
				c-2.167,0.244-3.729,2.199-3.482,4.367c0.979,8.747,5.183,16.525,11.384,22.099c6.196,5.583,14.43,8.991,23.424,8.991
				c9.657,0,18.443-3.932,24.77-10.264c6.331-6.326,10.258-15.107,10.258-24.768S228.615,106.878,222.284,100.554z"/>
			<path fill="#02838F" d="M90.577,126.626c0,7.116,5.767,12.883,12.886,12.883c7.112,0,12.88-5.767,12.88-12.883
				c0-7.118-5.768-12.883-12.88-12.883C96.344,113.743,90.577,119.508,90.577,126.626z"/>
		</g>
	</g>
</g>
<g id="Layer_2" display="none">
	<g display="inline">
		<path fill="#02838F" d="M77.42,229.316v7.772h-4.525v-21.102h4.877c1.938,0,3.375,0.244,4.313,0.734
			c0.938,0.491,1.406,1.491,1.406,3.002v5.854c0,1.388-0.383,2.364-1.149,2.939C81.578,229.091,79.937,229.358,77.42,229.316z
			 M78.968,225.184v-5.061c0-0.749-0.515-1.121-1.548-1.121v7.3C78.453,226.302,78.968,225.927,78.968,225.184z"/>
		<path fill="#02838F" d="M98.903,237.089h-4.601l-0.784-5.668h-2.063l-0.793,5.668h-4.601l3.472-21.102h5.888L98.903,237.089z
			 M93.142,228.495l-0.666-6.298l-0.636,6.298H93.142z"/>
		<path fill="#02838F" d="M113.132,237.115h-4.644c-0.502-0.595-0.754-2.293-0.754-5.093v-0.027l0.03-1.266
			c0.031-1.755,0.043-2.653,0.043-2.691c0-0.717-0.481-1.073-1.443-1.073v10.124h-4.643v-21.102h5.734
			c1.307,0,2.443,0.298,3.41,0.894c0.971,0.602,1.456,1.548,1.456,2.843v2.53c0,1.64-0.959,2.748-2.874,3.323
			c1.925,0.453,2.888,1.615,2.888,3.49l-0.075,2.312C112.26,234.752,112.551,236.668,113.132,237.115z M107.795,223.281V219.8
			c0-0.738-0.477-1.106-1.431-1.106v5.711C107.318,224.404,107.795,224.028,107.795,223.281z"/>
		<polygon fill="#02838F" points="127.376,237.089 122.269,237.089 120.488,229.272 120.488,237.089 115.845,237.089 
			115.845,215.987 120.488,215.987 120.488,223.035 122.524,215.987 126.829,215.987 123.97,225.609 		"/>
		<rect x="129.988" y="215.987" fill="#02838F" width="4.644" height="21.102"/>
		<polygon fill="#02838F" points="149.39,237.089 144.614,237.089 141.459,225.847 141.459,237.089 137.583,237.089 
			137.583,215.987 142.862,215.987 145.515,225.609 145.515,215.987 149.39,215.987 		"/>
		<path fill="#02838F" d="M162.616,237.089h-2.225l-0.605-1.164c-1.021,0.902-2.104,1.354-3.242,1.354
			c-1.109,0-2.08-0.288-2.916-0.863c-0.826-0.572-1.24-1.489-1.24-2.742v-13.772c0-2.738,1.746-4.107,5.246-4.107
			c3.324,0,4.982,1.245,4.982,3.739v3.913h-4.215v-4.267c0-0.345-0.229-0.516-0.686-0.516c-0.459,0-0.688,0.171-0.688,0.516v14.64
			c0,0.344,0.229,0.517,0.688,0.517c0.457,0,0.686-0.173,0.686-0.517v-3.942h-0.945v-3.236h5.16V237.089L162.616,237.089z"/>
		<path fill="#02838F" d="M185.575,237.089h-4.6l-0.783-5.668h-2.063l-0.795,5.668h-4.598l3.473-21.102h5.889L185.575,237.089z
			 M179.815,228.495l-0.666-6.298l-0.633,6.298H179.815z"/>
		<path fill="#02838F" d="M199.802,237.115h-4.641c-0.502-0.595-0.75-2.293-0.75-5.093v-0.027l0.029-1.266
			c0.027-1.755,0.043-2.653,0.043-2.691c0-0.717-0.48-1.073-1.443-1.073v10.124h-4.646v-21.102h5.734
			c1.311,0,2.447,0.298,3.416,0.894c0.967,0.602,1.449,1.548,1.449,2.843v2.53c0,1.64-0.957,2.748-2.875,3.323
			c1.926,0.453,2.893,1.615,2.893,3.49l-0.074,2.312C198.937,234.752,199.224,236.668,199.802,237.115z M194.468,223.281V219.8
			c0-0.738-0.479-1.106-1.428-1.106v5.711C193.989,224.404,194.468,224.028,194.468,223.281z"/>
		<polygon fill="#02838F" points="211.544,237.089 202.464,237.089 202.464,215.987 211.483,215.987 211.483,218.693 
			207.104,218.693 207.104,224.404 211.056,224.404 211.056,226.965 207.104,226.965 207.104,234.379 211.544,234.379 		"/>
		<path fill="#02838F" d="M226.878,237.089h-4.602l-0.785-5.668h-2.061l-0.793,5.668h-4.598l3.473-21.102h5.885L226.878,237.089z
			 M221.116,228.495l-0.664-6.298l-0.635,6.298H221.116z"/>
	</g>
	<path display="inline" fill="#02838F" d="M183.427,75.069H152.98h-6.303h-30.445l-14.698,30.677v35.606v8.218v8.764h10.974v-8.764
		h34.169h6.303h34.168v8.764h10.978v-8.764v-8.218v-35.606L183.427,75.069z M117.177,134.778c-5,0-9.056-4.048-9.056-9.037
		c0-4.994,4.057-9.04,9.056-9.04c4.997,0,9.052,4.047,9.052,9.04C126.229,130.727,122.173,134.778,117.177,134.778z
		 M182.306,134.778c-5.001,0-9.059-4.048-9.059-9.037c0-4.994,4.058-9.04,9.059-9.04c5.002,0,9.055,4.047,9.055,9.04
		C191.36,130.727,187.308,134.778,182.306,134.778z M151.388,104.648h-3.167h-40.1l11.08-23.553h29.022h3.165h29.023l11.081,23.553
		H151.388z"/>
</g>
<g id="Layer_3">
	<g>
		<path fill="#02838F" d="M84.297,236.807v-21.37h5.528c1.32,0,2.466,0.305,3.44,0.904c0.974,0.601,1.459,1.563,1.459,2.882v2.968
			c0,1.5-0.913,2.557-2.742,3.173c1.928,0.477,2.89,1.505,2.89,3.083v4.144c0,1.409-0.457,2.466-1.375,3.165
			c-0.923,0.698-2.016,1.052-3.286,1.052H84.297L84.297,236.807L84.297,236.807z M90.302,222.946v-3.646
			c0-0.748-0.44-1.118-1.312-1.118v5.898C89.862,224.081,90.302,223.703,90.302,222.946z M90.302,232.931v-5.409
			c0-0.744-0.44-1.118-1.312-1.118v7.658C89.862,234.062,90.302,233.687,90.302,232.931z"/>
		<rect x="97.859" y="215.437" fill="#02838F" width="4.692" height="21.37"/>
		<polygon fill="#02838F" points="117.248,236.807 112.087,236.807 110.291,228.895 110.291,236.807 105.597,236.807 
			105.597,215.437 110.291,215.437 110.291,222.576 112.342,215.437 116.695,215.437 113.806,225.187 		"/>
		<polygon fill="#02838F" points="129.137,236.807 119.959,236.807 119.959,215.437 129.08,215.437 129.08,218.183 124.653,218.183 
			124.653,223.962 128.648,223.962 128.648,226.556 124.653,226.556 124.653,234.062 129.137,234.062 		"/>
		<path fill="#02838F" d="M151.033,236.836h-4.694c-0.505-0.604-0.76-2.327-0.76-5.159v-0.028l0.031-1.282
			c0.029-1.776,0.047-2.685,0.047-2.726c0-0.724-0.489-1.085-1.463-1.085v10.251h-4.692v-21.37h5.793
			c1.324,0,2.47,0.305,3.453,0.908c0.977,0.608,1.465,1.566,1.465,2.878v2.564c0,1.657-0.968,2.779-2.906,3.362
			c1.946,0.461,2.92,1.636,2.92,3.535l-0.074,2.339C150.154,234.443,150.446,236.379,151.033,236.836z M145.639,222.827v-3.526
			c0-0.748-0.483-1.118-1.445-1.118v5.779C145.156,223.962,145.639,223.584,145.639,222.827z"/>
		<path fill="#02838F" d="M153.672,233.157v-13.754c0-2.771,1.797-4.155,5.385-4.155c3.543,0,5.314,1.372,5.314,4.127v13.749
			c0,1.241-0.492,2.199-1.482,2.869c-0.987,0.67-2.273,1.007-3.86,1.007C155.459,237,153.672,235.718,153.672,233.157z
			 M159.797,233.379v-14.56c0-0.423-0.253-0.637-0.76-0.637c-0.527,0-0.789,0.214-0.789,0.637v14.56
			c0,0.428,0.262,0.641,0.789,0.641C159.544,234.02,159.797,233.807,159.797,233.379z"/>
		<path fill="#02838F" d="M167.385,215.437h4.691v17.942c0,0.428,0.266,0.641,0.789,0.641c0.518,0,0.775-0.213,0.775-0.641v-17.942
			h4.693v17.688c0,1.233-0.512,2.187-1.535,2.86c-1.023,0.679-2.336,1.016-3.934,1.016c-1.48,0-2.764-0.304-3.852-0.908
			c-1.086-0.604-1.629-1.587-1.629-2.935V215.437L167.385,215.437z"/>
		<polygon fill="#02838F" points="191.18,218.228 188.561,218.228 188.561,236.807 183.867,236.807 183.867,218.228 
			181.244,218.228 181.244,215.437 191.18,215.437 		"/>
		<polygon fill="#02838F" points="203.297,236.807 194.119,236.807 194.119,215.437 203.238,215.437 203.238,218.183 
			198.813,218.183 198.813,223.962 202.805,223.962 202.805,226.556 198.813,226.556 198.813,234.062 203.297,234.062 		"/>
		<path fill="#02838F" d="M206.105,228.253h4.258v4.904c0,0.484,0.297,0.728,0.889,0.728c0.568,0,0.854-0.239,0.854-0.728v-2.532
			c0-0.777-0.518-1.686-1.547-2.729c-1.996-1.937-3.24-3.235-3.727-3.905c-0.486-0.661-0.727-1.394-0.727-2.19v-2.396
			c0-2.771,1.805-4.155,5.426-4.155c3.242,0,4.865,1.262,4.865,3.781v3.695h-4.262v-3.93c0-0.432-0.238-0.642-0.713-0.642
			c-0.557,0-0.836,0.411-0.836,1.233l0.09,1.386c0,0.797,0.529,1.722,1.582,2.774c1.961,1.874,3.207,3.186,3.74,3.934
			c0.535,0.739,0.803,1.587,0.803,2.532v2.725c0,2.841-1.818,4.263-5.447,4.263c-3.502,0-5.248-1.295-5.248-3.872V228.253
			L206.105,228.253L206.105,228.253z"/>
	</g>
	<path fill="#02838F" d="M168.744,87.471l-37.487-20.556l-37.489,14.51v99.168l35.07-15.723l42.324,15.723l35.068-14.514V66.915
		L168.744,87.471z M169.955,170.309l-40.513-15.719V80.216l40.513,16.935V170.309L169.955,170.309z"/>
</g>
<g id="Layer_3_copy" display="none">
	<rect display="inline" fill="#02838F" width="300" height="63"/>
	<rect y="237" display="inline" fill="#02838F" width="300" height="63"/>
</g>
</svg>
