<?xml version="1.0" encoding="utf-8"?>
<!-- Generator: Adobe Illustrator 16.0.0, SVG Export Plug-In . SVG Version: 6.00 Build 0)  -->
<!DOCTYPE svg PUBLIC "-//W3C//DTD SVG 1.1//EN" "http://www.w3.org/Graphics/SVG/1.1/DTD/svg11.dtd">
<svg version="1.1" id="Layer_1" xmlns="http://www.w3.org/2000/svg" xmlns:xlink="http://www.w3.org/1999/xlink" x="0px" y="0px"
	 width="800px" height="200px" viewBox="0 0 800 200" enable-background="new 0 0 800 200" xml:space="preserve">
<g>
	<g>
		<g>
			
				<linearGradient id="SVGID_1_" gradientUnits="userSpaceOnUse" x1="319.7378" y1="-1.7139" x2="319.7378" y2="207.9995" gradientTransform="matrix(0.9887 0.1498 -0.1498 0.9887 19.8677 -39.9043)">
				<stop  offset="0" style="stop-color:#FCD839"/>
				<stop  offset="0.5269" style="stop-color:#FAA21F"/>
				<stop  offset="1" style="stop-color:#F17C21"/>
			</linearGradient>
			<path fill="url(#SVGID_1_)" d="M574.621,89.789c-0.3,0.955-0.599,1.876-0.897,2.772c-0.3,0.895-0.446,1.517-0.436,1.872
				c-0.084,0.829-0.118,1.481-0.104,1.951c0.015,0.472-0.032,0.83-0.131,1.068c-0.214,0.244-0.367,0.573-0.462,0.987
				c-0.098,0.416-0.246,0.923-0.444,1.519c-0.203,0.599-0.348,1.25-0.434,1.961c0.195-0.717,0.45-1.368,0.761-1.971
				c0.198-0.596,0.398-1.166,0.603-1.701c0.202-0.537,0.298-0.982,0.286-1.338c0.183-1.184,0.271-1.894,0.263-2.132
				c0.317-0.365,0.519-0.902,0.606-1.613c0.101-0.237,0.208-0.387,0.316-0.452c0.104-0.061,0.096-0.27-0.021-0.62l-0.037-1.237
				c-0.02-0.589,0.235-1.069,0.775-1.441c0.104-0.12,0.152-0.359,0.143-0.714c0.104-0.118,0.151-0.356,0.142-0.71
				c-0.005-0.117,0.117-0.562,0.367-1.34c0.249-0.775,0.219-0.919-0.096-0.44L574.621,89.789z M575.164,75.427
				c-0.209,0.363-0.368,0.544-0.475,0.547c-0.111,0.003-0.271,0.125-0.48,0.37c-0.209,0.358-0.191,0.952,0.054,1.768l0.087,2.831
				c0.009,0.238-0.089,0.683-0.287,1.337c-0.198,0.658-0.398,1.281-0.597,1.878c-0.089,0.71-0.119,1.481-0.094,2.306
				c0.026,0.825-0.012,1.478-0.104,1.95c-0.097,0.476-0.559,1.434-1.388,2.876c-0.21,0.361-0.382,0.929-0.523,1.698
				c-0.139,0.777-0.257,1.456-0.345,2.046c-0.093,0.595-0.164,1.009-0.209,1.246c-0.049,0.24-0.081,0.065-0.098-0.527
				c0.177-1.302,0.41-2.581,0.7-3.83c0.291-1.246,0.533-2.229,0.729-2.944c0.202-0.597,0.325-1.009,0.374-1.251
				c0.048-0.236-0.048-0.588-0.281-1.053c-0.017-0.588,0.075-1.123,0.281-1.604c0.202-0.479,0.402-1.015,0.606-1.613
				c0.196-0.712,0.342-1.273,0.438-1.692c0.098-0.417,0.127-1.273,0.088-2.569c-0.04-1.298,0.193-2.544,0.704-3.744
				c0.202-0.479,0.462-1.016,0.77-1.618l0.017,0.532L575.164,75.427z M573.807,65.908c-0.495-0.102-1.021-0.264-1.573-0.484
				c-0.112-0.115-0.441-0.165-0.988-0.147l-0.322,0.189l0.008,0.175c0.246,0.938,0.317,1.527,0.217,1.764
				c-0.103,0.241-0.535,0.432-1.294,0.573l-0.49,0.015c-0.638,0.612-1.11,1.303-1.414,2.079c-0.303,0.778-0.661,1.584-1.072,2.425
				c-0.846,0.97-1.637,1.968-2.367,2.993c-0.736,1.027-1.524,2.025-2.367,2.995c-1.16,1.452-2.291,2.817-3.4,4.088
				c-1.109,1.274-2.244,2.58-3.404,3.912c-2.321,2.786-4.588,5.484-6.803,8.09c-2.216,2.605-4.538,5.305-6.968,8.094
				c-0.532,0.486-1.01,0.943-1.433,1.37c-0.425,0.429-1.014,0.77-1.771,1.028c0.169-1.657,0.26-3.165,0.271-4.523
				c0.016-1.358,0.271-2.753,0.774-4.186c0.592-2.026,1.24-4.049,1.945-6.078c0.7-2.029,1.351-4.056,1.944-6.083
				c0.29-1.188,0.637-2.349,1.041-3.483c0.401-1.136,0.856-2.297,1.367-3.496c0.204-0.478,0.381-0.987,0.528-1.522
				c0.146-0.536,0.268-0.982,0.369-1.338c0.401-1.073,0.371-2.079-0.093-3.011c-0.468-0.926-1.139-1.494-2.021-1.707
				c-0.547,0.016-0.934-0.117-1.162-0.406c-0.229-0.286-0.615-0.482-1.164-0.584c-0.42,0.604-1.18,0.806-2.276,0.603
				c-0.998-0.441-1.704-0.305-2.12,0.417c0.139,0.94,0.188,1.589,0.143,1.943c-0.044,0.355-0.215,1.013-0.514,1.966
				c-0.504,1.314-1.01,2.629-1.52,3.941c-0.504,1.313-1.01,2.628-1.518,3.941c-0.493,1.669-0.986,3.366-1.482,5.095
				c-0.492,1.727-0.985,3.482-1.479,5.268c-0.298,0.956-0.567,1.995-0.808,3.124c-0.235,1.13-0.448,2.226-0.635,3.296
				c-0.164,1.775-0.083,3.485,0.239,5.126c0.326,1.644,1.112,3.274,2.364,4.886c1.022,1.271,2.094,2.299,3.209,3.093
				c1.118,0.789,2.495,1.16,4.134,1.111c1.755,0.298,3.386-0.045,4.888-1.038c1.502-0.868,2.889-2.036,4.155-3.491
				c1.267-1.454,2.535-2.85,3.807-4.188c1.27-1.339,2.479-2.792,3.636-4.362c1.164-1.215,2.246-2.431,3.249-3.641
				c1.001-1.207,1.974-2.48,2.918-3.808c0.104-0.12,0.24-0.187,0.404-0.19c0.163-0.006,0.346-0.127,0.561-0.371
				c0.017,0.473,0.051,0.794,0.111,0.97c0.061,0.175,0.04,0.383-0.061,0.62c-0.409,0.96-0.679,1.943-0.812,2.949
				c-0.135,1.008-0.296,1.985-0.484,2.936c-0.085,0.831-0.194,1.66-0.334,2.491c-0.139,0.828-0.142,1.658-0.005,2.479
				c0.1,3.303,1.34,6.274,3.718,8.915c1.361,1.613,2.795,2.159,4.311,1.64c0.2-0.597,0.401-1.162,0.605-1.7
				c0.2-0.54,0.238-1.098,0.112-1.686c-0.372-1.407-0.411-2.7-0.119-3.893c0.165-1.658,0.333-3.257,0.507-4.797
				c0.171-1.538,0.507-3.025,1.012-4.458c0.483-2.022,1.022-4.075,1.614-6.16c0.592-2.083,1.13-4.134,1.615-6.16
				c0.192-0.829,0.358-1.661,0.496-2.492c0.141-0.829,0.302-1.719,0.493-2.67c0.182-1.187,0.363-2.316,0.552-3.382
				c0.184-1.069,0.366-2.253,0.547-3.56c0.182-1.186,0.262-2.134,0.24-2.84c0.054-1.772-0.696-3.107-2.256-4.005
				C574.825,66.233,574.302,66.011,573.807,65.908z M495.893,46.076c0.01,0.293-0.038,0.62-0.134,0.978
				c0.428-0.249,0.639-0.552,0.629-0.905c-0.012-0.354-0.079-0.708-0.197-1.059C495.98,45.45,495.883,45.78,495.893,46.076z
				 M543.334,80.035c-0.329-0.047-0.606-0.187-0.831-0.417c-0.112,0.002-0.229-0.286-0.356-0.876
				c-0.539,0.255-0.969,0.502-1.288,0.749c-0.318,0.249-0.697,0.493-1.124,0.746l0.332,0.165l0.158-0.182l0.493-0.014l0.162-0.004
				l-0.162,0.004l-0.493,0.014c-0.206,0.478-0.303,0.837-0.295,1.07l-0.162,0.006l-0.033-1.06c-0.967,0.618-1.5,1.078-1.599,1.374
				c-0.1,0.299-0.578,0.758-1.433,1.373c-2.143,1.481-3.767,2.8-4.88,3.956c-1.111,1.159-2.686,2.416-4.72,3.778
				c-0.538,0.366-1.199,0.982-1.991,1.831c-0.796,0.852-1.461,1.46-1.995,1.833c-0.541,0.252-1.371,0.809-2.491,1.667
				c-1.12,0.865-1.951,1.478-2.484,1.846c-1.28,1.104-2.801,2.246-4.568,3.419c-1.768,1.177-3.236,2.313-4.404,3.411
				c-0.857,0.617-1.767,1.233-2.732,1.856c-0.963,0.618-1.903,1.209-2.813,1.767c-0.914,0.562-1.772,1.002-2.583,1.317
				c-0.811,0.321-1.382,0.428-1.714,0.32c-0.229-0.347-0.429-0.695-0.604-1.044c-0.175-0.35-0.268-0.701-0.278-1.057
				c-0.238-0.579-0.475-1.252-0.718-2.012c-0.243-0.758-0.435-1.609-0.569-2.549c-0.247-0.821-0.541-1.579-0.889-2.275
				c-0.351-0.7-0.757-1.395-1.213-2.09c-0.346-0.579-0.746-1.065-1.192-1.468c-0.451-0.397-1.11-0.523-1.979-0.382
				c-0.221,0.009-0.412-0.074-0.582-0.247c-0.168-0.172-0.368-0.372-0.593-0.602c0.21-0.243,0.476-0.516,0.796-0.822
				c0.318-0.304,0.582-0.576,0.794-0.823c1.923-1.474,3.902-2.863,5.938-4.164c2.034-1.304,4.126-2.634,6.273-4.002
				c1.396-0.75,2.576-1.551,3.533-2.411c0.534-0.371,1.043-0.738,1.522-1.108c0.482-0.366,0.987-0.74,1.524-1.109
				c2.896-1.741,5.898-3.66,9.004-5.765c0.101-0.24,0.368-0.482,0.799-0.734c0.42-0.482,0.681-0.907,0.779-1.26
				c0.097-0.359-0.133-0.764-0.693-1.221c-0.451-0.456-0.902-0.883-1.351-1.287c-0.45-0.399-0.899-0.77-1.345-1.109
				c-0.336-0.225-0.726-0.391-1.164-0.494c-0.44-0.104-0.826-0.213-1.159-0.319l-2.29,0.07c-1.075,0.625-2.091,1.302-3.055,2.042
				c-0.961,0.735-1.922,1.475-2.883,2.212c-0.105,0.121-0.374,0.309-0.802,0.56c-0.321,0.245-0.614,0.519-0.877,0.821
				c-0.265,0.306-0.614,0.581-1.041,0.83c-1.506,0.871-2.924,1.802-4.259,2.785c-1.337,0.986-2.703,1.915-4.097,2.782
				c-0.216,0.128-0.431,0.191-0.648,0.199c-0.221,0.007-0.488,0.077-0.813,0.202c-0.01-0.233-0.042-0.409-0.099-0.526l-0.093-0.354
				c0.198-0.597,0.428-1.193,0.684-1.789c0.253-0.6,0.479-1.196,0.684-1.795c0.788-2.74,1.659-5.452,2.618-8.135
				c0.956-2.688,1.937-5.399,2.947-8.148c0.488-1.904,1.085-3.81,1.791-5.723c0.706-1.907,1.359-3.818,1.955-5.728
				c0.304-0.832,0.577-1.639,0.83-2.413c0.248-0.775,0.469-1.578,0.664-2.414c0.505-1.312,0.954-2.685,1.348-4.112
				c0.394-1.427,0.733-2.796,1.022-4.105c0.277-1.658-0.144-2.828-1.257-3.502c-0.892-0.562-1.752-1.008-2.582-1.335
				c-0.828-0.33-1.783-0.241-2.86,0.264c-0.212,0.243-0.401,0.277-0.57,0.105c-0.17-0.173-0.307-0.195-0.411-0.075
				c-0.649,0.256-1.276,0.334-1.88,0.235c-0.605-0.099-1.169,0.213-1.692,0.936c0.009,0.24,0.099,0.558,0.276,0.966
				c0.175,0.41,0.158,0.792-0.049,1.151c-0.386,1.667-0.745,3.273-1.08,4.816c-0.337,1.545-0.753,3.093-1.251,4.64
				c0.675,0.69,0.923,1.568,0.735,2.634c-0.525,0.724-0.91,1.564-1.151,2.515c-0.245,0.954-0.517,1.906-0.815,2.858
				c-0.207,0.361-0.333,0.717-0.376,1.076c-0.045,0.354-0.118,0.653-0.218,0.89c-0.091,0.598-0.214,1.101-0.363,1.518
				c-0.152,0.418-0.276,0.865-0.369,1.34c-0.604,1.67-1.236,3.343-1.897,5.015c-0.659,1.675-1.29,3.347-1.895,5.019
				c-1.215,3.109-2.379,6.211-3.486,9.311c-1.105,3.105-2.213,6.151-3.325,9.135c-0.612,1.435-1.169,2.842-1.675,4.214
				c-0.504,1.375-1.008,2.717-1.517,4.029c-0.395,1.313-0.846,2.626-1.354,3.94c-0.505,1.314-0.846,2.623-1.026,3.929
				c-0.823,1.678-1.479,3.35-1.979,5.018c-0.494,1.668-0.988,3.335-1.485,5.003c-0.396,1.313-0.629,2.617-0.7,3.918
				c-0.066,1.301-0.19,2.661-0.366,4.082c-0.071,1.184,0.231,2.152,0.909,2.896c0.679,0.748,1.465,1.46,2.361,2.141
				c0.003,0.119,0.224,0.17,0.661,0.156c0.543-0.132,1.114-0.209,1.714-0.229c0.601-0.019,1.17-0.151,1.709-0.408
				c0.54-0.251,0.909-0.673,1.108-1.273c0.201-0.595,0.404-1.131,0.606-1.613c0.1-0.354,0.138-0.886,0.115-1.596
				c0.199-0.715,0.341-1.398,0.429-2.049c0.091-0.65,0.287-1.338,0.592-2.054c0.207-0.478,0.409-0.925,0.614-1.35
				c0.21-0.419,0.358-0.866,0.45-1.34c0.503-1.549,0.948-3.011,1.343-4.38c0.396-1.369,0.793-2.709,1.189-4.021
				c0.102-0.24,0.229-0.539,0.381-0.899c0.153-0.357,0.28-0.655,0.383-0.895c0.222,0.111,0.438,0.162,0.66,0.155l0.168,0.172
				c0.487,1.64,1.002,3.219,1.542,4.736c0.536,1.519,1.263,2.967,2.183,4.357c0.221,0.112,0.362,0.314,0.429,0.61
				c0.061,0.291,0.207,0.554,0.435,0.78c0.47,1.167,0.957,1.861,1.457,2.081c0.499,0.221,1.189,0.554,2.08,0.998
				c3.887,2.006,7.695,1.535,11.433-1.412c2.243-1.722,4.352-3.293,6.332-4.711c1.977-1.418,4.028-3.162,6.151-5.235
				c0.523-0.725,1.296-1.397,2.316-2.02c1.017-0.621,1.898-1.297,2.643-2.029l6.718-5.518c1.277-1.102,2.578-2.261,3.91-3.485
				c1.327-1.221,2.574-2.382,3.746-3.478c0.32-0.245,0.504-0.427,0.557-0.548l-0.01-0.355c-0.061-0.115-0.092-0.265-0.097-0.44
				c-0.006-0.176,0.095-0.386,0.309-0.627c0.527-0.606,1.057-1.125,1.591-1.556c0.534-0.429,0.679-1.055,0.437-1.874
				c-0.119-0.233-0.047-0.499,0.222-0.804c0.261-0.299,0.444-0.572,0.548-0.813c0.207-0.359,0.331-0.687,0.38-0.986
				c0.044-0.293,0.064-0.559,0.056-0.799C543.779,80.348,543.664,80.088,543.334,80.035z M445.163,59.936
				c-0.213,0.246-0.396,0.459-0.554,0.64c-0.158,0.181-0.37,0.483-0.63,0.904c-0.26,0.422-0.86,1.296-1.805,2.625
				c-0.419,0.603-0.729,1.17-0.931,1.707c-0.204,0.542-0.514,1.11-0.931,1.714c-0.21,0.361-0.417,0.694-0.626,0.993
				c-0.21,0.303-0.365,0.631-0.461,0.99c-0.521,0.84-0.958,1.709-1.315,2.604c-0.353,0.898-0.788,1.828-1.308,2.787
				c-0.513,1.079-0.915,2.215-1.206,3.4c-0.292,1.191-0.638,2.386-1.039,3.575c-0.1,0.241-0.144,0.654-0.125,1.244
				c0.249,0.936,0.521,1.785,0.814,2.543c0.298,0.761,0.835,1.302,1.608,1.631c0.446,0.225,0.728,0.449,0.842,0.682
				c0.67,0.455,1.335,0.818,2.001,1.091c0.664,0.277,1.432,0.458,2.312,0.548c1.646,0.189,3.279-0.041,4.898-0.682
				c2.484-0.898,4.791-2.272,6.925-4.106l1.135-0.392c-0.298,0.959-0.517,1.878-0.652,2.768c-0.138,0.891-0.302,1.808-0.49,2.76
				c-0.189,0.948-0.405,1.957-0.644,3.031c-0.242,1.066-0.456,2.078-0.645,3.027c-0.317,0.362-0.367,0.604-0.145,0.714
				c0.239,0.7,0.26,1.35,0.062,1.944c-0.202,0.599-0.401,1.196-0.602,1.792c-0.273,1.777-0.604,3.53-0.985,5.252
				c-0.386,1.728-0.823,3.541-1.311,5.441c-0.481,2.142-0.633,4.271-0.458,6.392c0.032,1.062,0.359,1.965,0.984,2.713
				c0.621,0.75,1.376,1.286,2.262,1.612c0.331,0.11,0.581,0.222,0.748,0.332c0.169,0.111,0.362,0.225,0.586,0.335
				c2.094,0.643,3.953,0.587,5.569-0.17c2.146-1.243,3.905-2.657,5.279-4.233c1.474-1.819,2.925-3.572,4.347-5.268
				c1.425-1.698,2.931-3.397,4.52-5.101c2.314-2.785,4.557-5.51,6.717-8.175c2.156-2.66,4.401-5.208,6.733-7.64
				c0.319-0.247,0.582-0.551,0.792-0.913c0.206-0.359,0.413-0.66,0.628-0.903c0.404-0.956,0.763-1.854,1.064-2.691
				c0.301-0.834,0.657-1.73,1.066-2.687c0.309-0.602,0.128-1.126-0.541-1.578c-1.941,0.887-3.763,2.123-5.462,3.707
				c-0.212,0.248-0.451,0.458-0.72,0.642c-0.268,0.187-0.505,0.401-0.716,0.644c-0.32,0.245-0.745,0.674-1.273,1.278
				c-0.953,0.976-1.938,1.893-2.948,2.748c-1.014,0.856-1.995,1.771-2.949,2.744c-1.17,1.098-2.283,2.226-3.34,3.376
				c-1.058,1.158-2.17,2.342-3.333,3.559c-0.736,0.969-1.528,1.906-2.373,2.816c-0.849,0.912-1.747,1.855-2.7,2.826
				c-0.53,0.611-1.057,1.215-1.584,1.821c-0.53,0.609-1.055,1.271-1.577,1.997c-0.414,0.839-1.1,1.625-2.06,2.365
				c-0.21,0.359-0.34,0.571-0.391,0.63c-0.055,0.062-0.355,0.042-0.904-0.06c0.385-1.663,0.741-3.388,1.071-5.169
				c0.326-1.781,0.687-3.443,1.076-4.991c0.395-1.31,0.732-2.855,1.005-4.634c0.274-1.78,0.553-3.383,0.838-4.806
				c0.482-2.023,0.914-3.983,1.294-5.883c0.377-1.898,0.756-3.861,1.133-5.88c0.296-0.952,0.465-1.667,0.507-2.142
				c0.04-0.469,0.027-0.855-0.035-1.149c-0.064-0.29-0.182-0.584-0.355-0.873c-0.172-0.288-0.433-0.724-0.777-1.305l-1.016-1.033
				c-0.232-0.346-0.787-0.681-1.67-1.008c-0.986-0.089-1.997-0.03-3.027,0.18c-1.034,0.209-1.983,0.446-2.849,0.706
				c-0.545,0.137-1.054,0.36-1.537,0.669c-0.482,0.311-0.994,0.592-1.531,0.843c-0.11,0.003-0.647,0.286-1.614,0.845
				c-0.965,0.562-1.562,0.786-1.782,0.675c0.417-0.603,0.858-1.442,1.315-2.52c0.459-1.076,0.916-2.212,1.372-3.406
				c0.455-1.192,0.884-2.298,1.292-3.315c0.403-1.014,0.871-1.826,1.401-2.435c0.413-0.72,0.7-1.198,0.857-1.442
				c0.156-0.239,0.229-0.479,0.223-0.713c-0.008-0.234-0.017-0.531-0.027-0.885c-0.012-0.354,0.08-0.947,0.274-1.78
				c0.191-0.83,0.421-1.4,0.686-1.703c0.263-0.301,0.117-0.624-0.439-0.96c-1.777-0.89-3.538-1.247-5.28-1.077
				c-0.22,0.006-0.742-0.125-1.57-0.395c-0.827-0.271-1.35-0.341-1.564-0.218C445.85,59.209,445.374,59.696,445.163,59.936z
				 M377.36,83.798l0.005,0.177l-0.158,0.184L377.2,83.98L377.36,83.798z M376.284,86.135l-0.164,0.005l-0.175-0.35l0.156-0.271
				l0.155-0.267l0.166,0.082l0.168,0.083C376.376,85.663,376.277,85.901,376.284,86.135z M378.616,81.99l-0.792,0.91
				c0.206-0.36,0.335-0.632,0.385-0.808c0.048-0.181,0.126-0.329,0.231-0.451L378.616,81.99z M366.96,102.889
				c0.415-0.722,0.781-1.262,1.098-1.627l0.934-1.621c-0.018-0.59,0.106-1.068,0.366-1.43c0.263-0.361,0.55-0.725,0.868-1.089
				c-0.022-0.708,0.236-1.248,0.771-1.616c0.202-0.596,0.354-0.955,0.46-1.078c0.105-0.117,0.322-0.125,0.654-0.02
				c0.103-0.238,0.094-0.501-0.025-0.797c-0.116-0.289-0.017-0.559,0.304-0.805c-0.021-0.708,0.237-1.186,0.777-1.442
				c0.083-0.824,0.507-1.254,1.271-1.276c-0.225-0.229-0.315-0.493-0.271-0.789c0.049-0.299,0.065-0.561,0.059-0.798
				c0.211-0.242,0.372-0.394,0.478-0.46c0.108-0.061,0.267-0.209,0.477-0.457c-0.188,0.951-0.562,1.201-1.124,0.743
				c0.227,0.228,0.344,0.521,0.354,0.874c0.01,0.353,0.02,0.65,0.027,0.886c-0.21,0.245-0.42,0.458-0.636,0.638
				c-0.212,0.183-0.423,0.396-0.635,0.638c0.021,0.708-0.237,1.189-0.777,1.442c-0.099,0.239-0.148,0.507-0.14,0.8
				c0.009,0.296-0.037,0.564-0.139,0.802c-0.214,0.125-0.371,0.338-0.473,0.636c-0.097,0.299-0.315,0.392-0.647,0.283
				c0.128,0.589,0.169,0.97,0.118,1.149c-0.048,0.177-0.341,0.394-0.882,0.645c0.036,1.182-0.375,2.021-1.234,2.52
				c-0.2,0.596-0.4,1.135-0.606,1.611c-0.202,0.479-0.405,1.017-0.605,1.61c-0.709,1.793-1.42,3.559-2.134,5.292
				c-0.709,1.732-1.476,3.497-2.298,5.294c-0.234-0.582-0.198-1.173,0.111-1.775c0.708-1.908,1.524-3.821,2.447-5.738
				c0.1-0.358,0.227-0.688,0.379-0.987c0.155-0.298,0.171-0.684,0.046-1.152l0.166-0.005l-0.242,0.182l-0.24,0.188
				c-0.719,1.438-1.386,2.902-1.997,4.396c-0.609,1.497-1.216,3.08-1.82,4.75c-0.102,0.239-0.146,0.654-0.126,1.244
				c-0.196,0.714-0.012,1.415,0.556,2.107c0.228,0.229,0.454,0.517,0.682,0.863c0.231,0.348,0.515,0.756,0.858,1.215
				c0.224,0.11,0.472,0.191,0.745,0.241c0.276,0.053,0.58,0.188,0.915,0.414c1.789,1.245,3.759,1.364,5.914,0.35
				c1.079-0.503,1.986-1.181,2.724-2.03c0.74-0.848,1.422-1.754,2.048-2.719c1.044-1.564,2.063-3.074,3.059-4.522
				c0.993-1.447,1.901-3.008,2.726-4.686c0.509-1.196,1.13-2.308,1.866-3.334c0.731-1.023,1.464-2.082,2.196-3.167
				c0.838-1.203,1.623-2.322,2.358-3.346c0.732-1.025,1.518-2.086,2.361-3.171c0.627-0.964,1.207-1.572,1.749-1.825l0.022,0.707
				c-0.174,1.539-0.373,3.08-0.596,4.622c-0.227,1.544-0.427,3.085-0.597,4.624l-0.377,3.729c-0.201,0.599-0.292,1.161-0.276,1.691
				c0.017,0.531-0.131,1.037-0.445,1.519c-0.201,0.6-0.131,1.067,0.207,1.409c1.635,3.375,3.993,5.43,7.075,6.158
				c0.218-0.007,0.494,0.015,0.822,0.063c0.33,0.051,0.657,0.013,0.98-0.119c1.733-0.521,3.132-1.216,4.201-2.076
				c1.385-1.105,3.223-2.606,5.519-4.507c2.289-1.899,4.768-3.979,7.431-6.248c2.662-2.266,5.405-4.621,8.228-7.073
				c2.82-2.444,5.479-4.858,7.975-7.239c2.495-2.377,4.722-4.63,6.682-6.756c1.955-2.125,3.346-3.968,4.174-5.529
				c0.199-0.594,0.431-1.104,0.691-1.526c0.258-0.42,0.491-0.87,0.696-1.35c-0.004-0.114-0.063-0.264-0.177-0.437
				c-0.116-0.174-0.174-0.319-0.178-0.438l-0.316,0.363l-0.011-0.351l0.327-0.012c-0.339-0.344-0.564-0.512-0.672-0.509
				c-0.652,0.139-1.244,0.452-1.776,0.937c-1.069,0.742-2.325,1.667-3.767,2.774c-1.441,1.106-2.962,2.277-4.564,3.502
				c-1.602,1.233-3.231,2.493-4.886,3.785c-1.656,1.285-3.23,2.488-4.726,3.594c-3.62,3.183-7.192,6.068-10.721,8.653
				c-3.527,2.587-7.314,5.656-11.358,9.202c-0.423,0.488-0.876,0.823-1.362,1.014c-0.485,0.194-1,0.419-1.538,0.67
				c-0.25-0.937-0.172-2,0.229-3.193c0.558-3.207,1.087-6.41,1.591-9.613c0.5-3.201,0.975-6.463,1.422-9.783
				c0.09-0.593,0.151-1.211,0.188-1.862c0.033-0.652-0.013-1.269-0.14-1.857c-0.054-1.767-0.803-2.925-2.238-3.473
				c-0.663-0.214-1.324-0.429-1.988-0.648c-0.661-0.215-1.367-0.017-2.112,0.593l-0.328,0.012c-0.114-0.112-0.279-0.168-0.497-0.162
				c-0.217,0.126-0.379,0.188-0.486,0.19l-0.322,0.189c-0.427,0.365-0.796,0.792-1.108,1.274c-0.419,0.604-0.842,1.148-1.262,1.633
				c-0.423,0.488-0.897,1.032-1.425,1.637c-0.212,0.244-0.449,0.546-0.709,0.908c-0.263,0.364-0.5,0.666-0.709,0.907
				c-0.104,0.24-0.209,0.39-0.315,0.454c-0.108,0.063-0.158,0.214-0.15,0.446c0.018,0.593-0.241,1.069-0.776,1.442
				c-0.216,0.125-0.349,0.248-0.399,0.365c-0.053,0.121-0.183,0.302-0.394,0.543c-0.828,1.561-1.827,2.833-2.998,3.81
				c-0.215,0.245-0.449,0.545-0.709,0.909c-0.264,0.361-0.501,0.664-0.711,0.905c-1.153,1.691-2.332,3.349-3.537,4.979
				c-1.208,1.631-2.386,3.292-3.536,4.979l-0.153,0.36c-0.106,0.119-0.27,0.068-0.496-0.163c0.301-0.833,0.629-1.671,0.988-2.508
				c0.356-0.837,0.795-1.62,1.322-2.344c0.733-0.966,1.414-2.02,2.034-3.161c0.62-1.138,1.241-2.31,1.86-3.511
				c0.83-1.442,1.687-2.854,2.574-4.24c0.886-1.38,1.857-2.74,2.91-4.073c0.523-0.724,1.271-1.336,2.238-1.839
				c0.429-0.248,0.806-0.468,1.129-0.656c0.322-0.185,0.646-0.341,0.97-0.472c0.496-1.548,0.246-2.604-0.753-3.163
				c-0.784-0.567-1.589-1.014-2.419-1.343c-0.832-0.328-1.673-0.184-2.529,0.433c-0.321,0.247-0.672,0.374-1.054,0.383
				c-0.384,0.012-0.735,0.087-1.059,0.212c-1.089,0.152-2.092,0.448-3.006,0.888c-0.917,0.443-1.685,1.203-2.308,2.287
				c-0.315,0.361-0.471,0.664-0.463,0.896c0.235,0.585,0.199,1.118-0.114,1.6c-0.314,0.482-0.574,0.903-0.781,1.263
				c-1.665,2.768-3.214,5.621-4.657,8.553c-1.438,2.94-2.879,5.844-4.324,8.721c-0.198,0.599-0.399,1.138-0.606,1.613
				c-0.203,0.48-0.404,1.014-0.606,1.613L366.96,102.889z M362.517,38.214l-0.168-0.172L362.517,38.214
				c0.011,0.355-0.038,0.593-0.141,0.712l0.163-0.005L362.517,38.214z M352.031,113.263l0.006,0.179l0.163-0.005L352.031,113.263z
				 M352.403,106.702c-0.03,0.827-0.142,1.597-0.338,2.311c-0.288,1.311-0.301,2.727-0.034,4.25c0.289-1.304,0.464-2.67,0.53-4.089
				c0.064-1.417,0.242-2.779,0.531-4.09c0.101-0.237,0.175-0.474,0.225-0.716c0.046-0.235-0.204-0.346-0.75-0.329
				C352.487,104.988,352.431,105.876,352.403,106.702z M351.641,113.896c-0.163,0.065-0.239,0.215-0.232,0.451
				c-0.188,1.065-0.321,2.074-0.399,3.02c-0.081,0.95-0.162,1.894-0.241,2.841c-0.365,2.375-0.624,4.653-0.773,6.841
				c-0.154,2.191-0.356,4.47-0.611,6.838c-0.179,1.307-0.222,2.636-0.123,3.988c0.094,1.354,0,2.686-0.288,3.991
				c-0.213,0.243-0.207,0.45,0.019,0.621c0.222,0.171,0.441,0.191,0.656,0.067c0.097-0.355,0.197-0.742,0.293-1.159
				c0.093-0.419,0.193-0.805,0.292-1.159c0.09-0.592,0.127-1.216,0.106-1.862c-0.02-0.648,0.015-1.27,0.106-1.863l0.659-10.645
				c0.155-2.011,0.366-4.084,0.628-6.218c0.262-2.133,0.364-4.201,0.302-6.207C351.934,113.682,351.802,113.832,351.641,113.896z
				 M342.218,84.7c-0.566,1.198-1.212,2.399-1.939,3.604c-0.309,0.602-0.701,1.2-1.175,1.805c-0.472,0.608-0.864,1.208-1.173,1.806
				c-0.62,1.201-1.325,2.226-2.12,3.076c-0.792,0.852-1.561,1.76-2.293,2.728c-0.523,0.842-0.99,1.654-1.401,2.433
				c-0.414,0.782-0.827,1.591-1.238,2.429c-0.835,1.326-1.588,2.559-2.263,3.7c-0.676,1.146-1.373,2.375-2.1,3.693l-0.241,0.186
				l-0.239,0.184c-0.218,0.008-0.335-0.226-0.35-0.699c0.097-4.014,0.8-7.814,2.11-11.396c0.199-0.594,0.375-1.162,0.522-1.697
				c0.148-0.537,0.319-1.098,0.521-1.699c0.801-2.388,1.658-4.743,2.57-7.075c0.913-2.328,1.934-4.631,3.067-6.909
				c0.203-0.479,0.465-0.901,0.78-1.264c0.318-0.365,0.577-0.785,0.782-1.267c0.521-0.836,0.999-1.268,1.436-1.282
				c0.435-0.012,1.104,0.321,2,1.001l-0.005-0.176c0.1-0.237,0.147-0.535,0.136-0.888l0.321-0.188
				c0.219-0.007,0.33,0.049,0.334,0.167l0.016,0.531c-0.216,0.126-0.35,0.185-0.404,0.187c-0.056,0.003-0.19,0.069-0.404,0.191
				c0.225,0.232,0.56,0.457,1.005,0.677c0.876,0.093,1.653,0.48,2.33,1.168c0.222,0.112,0.469,0.162,0.744,0.153
				c0.271-0.008,0.519,0.048,0.741,0.156c0.016,0.472-0.032,0.771-0.136,0.891C343.427,82.246,342.781,83.506,342.218,84.7z
				 M327.767,78.59c0.264-0.242,0.5-0.546,0.709-0.904c-0.095,0.474-0.136,0.887-0.125,1.241c-0.214,0.245-0.369,0.486-0.47,0.724
				c-0.103,0.24-0.259,0.48-0.471,0.722c-0.237-0.58-0.301-0.875-0.189-0.879C327.317,79.138,327.5,78.839,327.767,78.59z
				 M367.426,37.887c-0.658-0.097-1.269-0.373-1.829-0.831c-0.002-0.116-0.227-0.168-0.662-0.154
				c-0.875,0.025-1.674,0.701-2.396,2.019l-0.163,0.005c-0.443-0.102-1.141,0.274-2.097,1.127c0.456,0.694,0.586,1.339,0.387,1.936
				c-0.202,0.597-0.401,1.193-0.601,1.788c-0.303,0.835-0.34,1.428-0.108,1.774c0.117,0.352,0.126,0.647,0.025,0.885
				c-0.188,1.068-0.426,2.167-0.717,3.298c-0.294,1.133-0.699,2.177-1.217,3.135c-0.825,1.681-1.535,3.386-2.139,5.112
				c-0.602,1.732-1.482,3.323-2.64,4.771c-0.212,0.25-0.312,0.486-0.306,0.722c0.022,0.707-0.154,1.274-0.521,1.698
				c-0.371,0.426-0.658,0.879-0.86,1.354c-0.103,0.24-0.208,0.392-0.314,0.451c-0.109,0.065-0.214,0.216-0.313,0.454
				c-0.085,0.83-0.335,1.602-0.749,2.325c-0.416,0.721-0.724,1.379-0.923,1.975c-0.299,0.956-0.823,1.739-1.568,2.351
				c-0.223-0.11-0.362-0.194-0.417-0.252c-0.059-0.059-0.197-0.142-0.417-0.254c-1.027-1.385-2.424-2.344-4.188-2.881
				c-1.104-0.32-2.178-0.581-3.22-0.787c-1.047-0.205-2.109-0.051-3.185,0.452c-0.858,0.618-1.774,0.939-2.757,0.969
				c-0.548,0.017-1.06,0.184-1.542,0.491c-0.483,0.313-0.997,0.535-1.538,0.667c-0.22,0.007-0.489,0.104-0.811,0.29
				c-0.322,0.188-0.48,0.402-0.474,0.635c0.022,0.708-0.123,1.243-0.44,1.606c-0.317,0.364-0.578,0.788-0.782,1.263
				c-0.625,0.965-1.088,1.955-1.385,2.966c-0.296,1.014-0.646,2.054-1.051,3.13c-0.101,0.241-0.09,0.594,0.032,1.062
				c0.125,0.467,0.136,0.826,0.033,1.06c-0.31,0.603-0.838,1.149-1.589,1.643c0.007,0.238-0.041,0.416-0.147,0.537
				c-0.805,2.267-1.528,4.502-2.172,6.707c-0.643,2.204-1.255,4.497-1.838,6.874c-0.101,0.238-0.203,0.538-0.301,0.897
				c-0.096,0.355-0.086,0.65,0.027,0.881c0.037,1.183-0.257,2.312-0.88,3.394c-0.515,0.963-0.842,1.976-0.972,3.039
				c-0.131,1.068-0.125,2.13,0.016,3.188c0.014,0.472-0.028,0.829-0.13,1.067c-0.296,1.07-0.452,2.111-0.479,3.113
				c-0.022,1.002,0.525,1.903,1.64,2.694l0.257,0.345l0.257,0.348c0.357,0.934,0.815,1.599,1.373,1.99
				c0.56,0.4,1.226,0.765,2.001,1.092c2.869,0.858,5.255,0.312,7.164-1.635c1.802-1.826,3.214-3.874,4.238-6.152
				c2.602-4.21,5.039-8.534,7.308-12.974c1.762-3.122,3.47-6.242,5.123-9.366c1.652-3.118,3.306-6.238,4.96-9.359
				c0.933-1.683,1.838-3.303,2.72-4.865c0.878-1.56,1.792-3.064,2.731-4.511c0.41-0.836,0.824-1.589,1.243-2.25
				c0.415-0.662,0.718-1.466,0.91-2.422l0.234-0.358l0.235-0.361l0.091,0.259l0.089,0.266c-0.362,2.49-0.724,4.978-1.083,7.47
				c-0.362,2.491-0.725,4.982-1.083,7.471c-0.179,1.307-0.357,2.609-0.536,3.91c-0.179,1.307-0.358,2.611-0.535,3.915
				c-0.282,1.542-0.537,3.058-0.763,4.537c-0.228,1.487-0.481,3-0.761,4.541l-1.609,11.736c-0.158,2.015-0.346,3.937-0.56,5.773
				c-0.219,1.837-0.407,3.702-0.567,5.595c-0.257,2.252-0.438,4.47-0.533,6.656c-0.097,2.188-0.221,4.407-0.37,6.654
				c-0.081,0.946-0.135,1.862-0.161,2.747c-0.03,0.889,0.081,1.799,0.329,2.734c0.427-0.252,0.72-0.553,0.874-0.911
				c0.153-0.361,0.331-0.718,0.541-1.079l0.158-0.182c0.225,0.23,0.29,0.585,0.196,1.056c-0.096,0.473,0.026,0.825,0.36,1.051
				c0.501-1.431,1.034-2.805,1.596-4.12c0.557-1.316,0.816-2.739,0.77-4.273l0.159-0.182l0.158-0.186
				c0.276-1.658,0.553-3.317,0.83-4.98c0.278-1.661,0.607-3.323,0.995-4.989c0.171-1.537,0.371-3.022,0.603-4.447
				c0.227-1.422,0.428-2.903,0.601-4.443c0.473-2.376,0.89-4.778,1.254-7.21c0.361-2.432,0.777-4.895,1.25-7.389
				c0.167-1.657,0.392-3.227,0.674-4.713c0.283-1.482,0.564-2.998,0.844-4.542c0.367-2.253,0.684-4.448,0.947-6.581
				c0.262-2.13,0.577-4.267,0.952-6.404c0.394-1.311,0.628-2.587,0.702-3.83c0.069-1.24,0.193-2.511,0.374-3.816
				c0.17-1.539,0.369-3.052,0.599-4.535c0.227-1.48,0.48-3.052,0.757-4.715c0.157-2.012,0.392-4.055,0.714-6.131
				c0.318-2.074,0.717-4.126,1.204-6.146c0.371-2.137,0.851-4.336,1.438-6.597c0.274-1.778-0.254-2.941-1.583-3.492
				C368.747,38.201,368.085,37.986,367.426,37.887z M293.038,76.826c0.552,0.222,0.985,0.057,1.295-0.485
				c0.312-0.538,0.796-0.822,1.451-0.841c-0.84,1.207-1.682,2.238-2.528,3.09c-0.852,0.851-1.696,1.823-2.536,2.909
				c-1.579,1.94-3.269,3.881-5.067,5.825c-0.232-0.348-0.24-0.642-0.027-0.885c0.21-0.244,0.368-0.425,0.475-0.544
				c0.519-0.843,1.043-1.597,1.572-2.265c0.523-0.663,1.051-1.298,1.58-1.909c0.103-0.117,0.126-0.268,0.068-0.444
				c-0.062-0.175-0.041-0.381,0.063-0.62c-0.53,0.608-1.03,1.213-1.502,1.814c-0.473,0.608-1.135,1.336-1.983,2.188
				c0.189-0.949,0.331-1.694,0.425-2.229c0.091-0.532,0.238-1.096,0.438-1.692c0.19-0.949,0.411-1.785,0.663-2.499
				c0.249-0.718,0.47-1.549,0.66-2.501c0.09-0.591,0.209-1.215,0.353-1.867c0.145-0.653,0.26-1.337,0.349-2.051
				c-0.022-0.707-0.375-1.521-1.06-2.445c-1.346-1.138-2.676-1.775-3.993-1.915c-1.318-0.135-2.682-0.066-4.092,0.214
				c-0.409,0.958-0.664,1.614-0.759,1.972c-0.412,0.84-0.504,1.432-0.274,1.777c0.36,1.053,0.233,2.236-0.383,3.555
				c-0.597,1.911-1.169,3.814-1.71,5.72c-0.541,1.905-1.112,3.814-1.71,5.718c-0.189,0.955-0.274,1.721-0.257,2.313
				c0.029,0.942-0.053,1.772-0.251,2.483c-0.196,0.715-0.445,1.494-0.749,2.326c-0.088,0.596-0.269,1.013-0.535,1.256
				c-0.264,0.248-0.443,0.665-0.535,1.257c-0.2,0.598-0.265,1.132-0.197,1.601c0.071,0.47,0.003,0.946-0.203,1.421
				c-0.594,2.027-1.161,3.962-1.706,5.808c-0.544,1.85-1.117,3.726-1.714,5.63c-0.388,1.549-0.901,2.684-1.534,3.413
				c0.123,0.469,0.272,0.908,0.449,1.314c0.177,0.407,0.329,0.848,0.451,1.313c0.826,1.985,2.178,3.298,4.056,3.948
				c0.991,0.208,1.867,0.239,2.626,0.099c0.761-0.142,1.503-0.871,2.228-2.194c0.822-1.674,1.621-3.296,2.393-4.855
				c0.771-1.556,1.567-3.175,2.392-4.853c1.129-2.398,2.318-4.615,3.566-6.664c1.249-2.044,2.499-4.09,3.746-6.133
				c1.774-2.77,3.635-5.337,5.587-7.696c1.948-2.363,3.699-4.986,5.25-7.866c1.267-1.457,1.939-1.768,2.02-0.95
				c0.079,0.828-0.148,2.339-0.68,4.541c-0.535,2.2-1.304,4.819-2.302,7.861c-0.999,3.041-1.972,6.081-2.916,9.122
				c-0.947,3.038-1.735,5.839-2.366,8.393c-0.634,2.56-0.93,4.427-0.895,5.605c-0.213,0.247-0.222,0.776-0.033,1.595
				c0.189,0.821,0.624,1.664,1.306,2.529c0.682,0.863,1.637,1.692,2.863,2.477c1.227,0.792,2.772,1.335,4.642,1.632
				c2.365-1.253,5.188-2.756,8.469-4.512c3.279-1.751,6.234-4.32,8.864-7.708c0.515-0.959,1.055-2.096,1.617-3.414
				c0.559-1.314,0.934-2.478,1.121-3.488c0.189-1.007,0.193-1.747,0.015-2.215c-0.176-0.465-0.745-0.27-1.704,0.586
				c-1.169,1.097-2.441,2.376-3.816,3.833c-1.377,1.462-2.837,2.921-4.374,4.386c-1.541,1.464-3.11,2.84-4.711,4.132
				c-1.599,1.285-3.208,2.312-4.824,3.067c-0.047-1.531,0.374-3.848,1.262-6.945c0.89-3.098,1.932-6.522,3.129-10.277
				c1.196-3.758,2.443-7.601,3.746-11.539c1.298-3.932,2.394-7.448,3.283-10.548c0.067-1.299,0.14-2.51,0.215-3.635
				c0.073-1.125-0.015-2.272-0.269-3.445c-0.386-1.875-1.467-3.201-3.238-3.975c-0.549-0.097-1.1-0.198-1.649-0.302
				c-0.551-0.101-1.101-0.2-1.649-0.305c-1.875-0.529-3.771,0.001-5.689,1.594c-0.214,0.242-0.476,0.516-0.795,0.819
				c-0.318,0.307-0.635,0.641-0.952,1.004c-0.537,0.369-0.859,0.555-0.967,0.56c-0.548,0.017-0.954,0.148-1.218,0.394
				c-0.267,0.246-0.504,0.545-0.71,0.905c-0.412,0.839-0.854,1.565-1.328,2.165c-0.473,0.608-1.029,1.216-1.665,1.823
				c-0.212,0.244-0.422,0.545-0.627,0.904L293.038,76.826z M215.03,88.781l0.007,0.176l-0.159,0.182l-0.004-0.178L215.03,88.781z
				 M213.956,91.116l-0.165,0.006l-0.174-0.35l0.155-0.273l0.156-0.266l0.167,0.082l0.166,0.082
				C214.048,90.644,213.948,90.882,213.956,91.116z M216.288,86.972l-0.792,0.908c0.207-0.36,0.334-0.631,0.385-0.804
				c0.047-0.182,0.125-0.331,0.231-0.453L216.288,86.972z M204.632,107.869c0.416-0.721,0.781-1.262,1.097-1.628l0.935-1.62
				c-0.018-0.589,0.105-1.067,0.367-1.429c0.263-0.361,0.55-0.724,0.868-1.09c-0.021-0.708,0.235-1.247,0.771-1.614
				c0.202-0.597,0.355-0.957,0.459-1.079c0.105-0.118,0.322-0.125,0.653-0.02c0.103-0.239,0.095-0.501-0.024-0.797
				c-0.116-0.29-0.017-0.56,0.305-0.805c-0.022-0.709,0.237-1.186,0.775-1.441c0.084-0.825,0.509-1.254,1.271-1.278
				c-0.225-0.228-0.315-0.493-0.27-0.79c0.047-0.296,0.064-0.56,0.057-0.797c0.215-0.243,0.372-0.394,0.478-0.46
				c0.108-0.061,0.268-0.21,0.478-0.458c-0.188,0.952-0.562,1.202-1.123,0.746c0.226,0.228,0.343,0.521,0.353,0.874
				c0.011,0.353,0.02,0.649,0.027,0.885c-0.21,0.244-0.421,0.457-0.637,0.637c-0.21,0.184-0.423,0.397-0.634,0.641
				c0.021,0.708-0.235,1.188-0.775,1.441c-0.102,0.24-0.149,0.506-0.141,0.802c0.009,0.295-0.037,0.562-0.14,0.8
				c-0.213,0.126-0.371,0.337-0.473,0.635c-0.098,0.298-0.315,0.393-0.646,0.284c0.127,0.589,0.167,0.969,0.116,1.148
				c-0.048,0.178-0.342,0.396-0.881,0.646c0.037,1.182-0.374,2.021-1.235,2.519c-0.2,0.597-0.4,1.136-0.606,1.61
				c-0.204,0.48-0.405,1.019-0.606,1.613c-0.709,1.79-1.421,3.558-2.134,5.289c-0.711,1.734-1.475,3.498-2.297,5.295
				c-0.235-0.581-0.2-1.173,0.109-1.774c0.708-1.908,1.522-3.822,2.448-5.74c0.1-0.357,0.226-0.686,0.379-0.984
				c0.154-0.301,0.172-0.687,0.047-1.152l0.163-0.006l-0.24,0.182l-0.24,0.186c-0.719,1.439-1.386,2.905-1.995,4.399
				c-0.612,1.497-1.217,3.078-1.822,4.749c-0.1,0.241-0.145,0.655-0.126,1.244c-0.196,0.714-0.011,1.417,0.557,2.106
				c0.227,0.23,0.453,0.519,0.682,0.864c0.23,0.349,0.514,0.756,0.856,1.215c0.223,0.11,0.471,0.193,0.746,0.24
				c0.275,0.054,0.579,0.189,0.915,0.413c1.787,1.247,3.759,1.366,5.914,0.353c1.078-0.504,1.987-1.182,2.724-2.032
				c0.74-0.847,1.42-1.752,2.05-2.719c1.042-1.563,2.062-3.073,3.057-4.521c0.993-1.446,1.9-3.01,2.726-4.685
				c0.509-1.197,1.13-2.309,1.866-3.335c0.73-1.024,1.464-2.082,2.197-3.168c0.836-1.202,1.622-2.319,2.357-3.346
				c0.731-1.025,1.519-2.085,2.362-3.171c0.626-0.963,1.207-1.573,1.748-1.824l0.021,0.705c-0.173,1.54-0.372,3.082-0.597,4.624
				c-0.226,1.542-0.424,3.083-0.595,4.622l-0.376,3.729c-0.204,0.599-0.293,1.161-0.276,1.692c0.016,0.529-0.132,1.037-0.447,1.52
				c-0.201,0.598-0.13,1.064,0.208,1.408c1.633,3.376,3.992,5.43,7.075,6.158c0.218-0.007,0.493,0.016,0.822,0.063
				c0.33,0.052,0.657,0.013,0.98-0.119c1.733-0.522,3.133-1.217,4.201-2.076c1.384-1.104,3.224-2.606,5.518-4.509
				c2.29-1.897,4.769-3.979,7.432-6.246c2.662-2.268,5.405-4.62,8.227-7.073c2.82-2.445,5.479-4.858,7.975-7.239
				c2.495-2.377,4.721-4.629,6.68-6.754c1.957-2.127,3.347-3.971,4.175-5.532c0.199-0.593,0.43-1.105,0.69-1.524
				c0.259-0.421,0.492-0.872,0.697-1.352c-0.004-0.113-0.064-0.263-0.179-0.435c-0.113-0.174-0.171-0.321-0.175-0.438l-0.316,0.362
				l-0.012-0.353l0.328-0.009c-0.339-0.345-0.565-0.514-0.673-0.511c-0.651,0.14-1.243,0.451-1.775,0.938
				c-1.071,0.741-2.326,1.665-3.768,2.771c-1.441,1.108-2.963,2.279-4.565,3.502c-1.601,1.234-3.231,2.493-4.884,3.784
				c-1.657,1.288-3.231,2.489-4.727,3.596c-3.62,3.181-7.192,6.067-10.721,8.652c-3.526,2.587-7.314,5.657-11.357,9.203
				c-0.425,0.485-0.878,0.823-1.363,1.013c-0.487,0.194-1,0.417-1.539,0.669c-0.249-0.937-0.17-1.999,0.232-3.193
				c0.557-3.207,1.086-6.41,1.59-9.612c0.501-3.201,0.976-6.462,1.421-9.784c0.09-0.592,0.152-1.21,0.189-1.861
				c0.033-0.653-0.013-1.269-0.139-1.857c-0.055-1.768-0.801-2.924-2.238-3.474c-0.662-0.213-1.326-0.427-1.988-0.646
				c-0.661-0.214-1.367-0.017-2.113,0.595l-0.327,0.009c-0.113-0.111-0.279-0.168-0.497-0.159c-0.215,0.125-0.378,0.186-0.486,0.19
				l-0.323,0.188c-0.426,0.365-0.794,0.792-1.108,1.274c-0.419,0.605-0.841,1.148-1.261,1.631c-0.422,0.488-0.898,1.032-1.425,1.639
				c-0.213,0.244-0.45,0.544-0.71,0.906c-0.263,0.362-0.5,0.667-0.711,0.907c-0.102,0.241-0.208,0.393-0.313,0.455
				c-0.108,0.063-0.158,0.213-0.151,0.445c0.019,0.593-0.24,1.069-0.775,1.442c-0.216,0.125-0.349,0.247-0.399,0.365
				c-0.053,0.12-0.182,0.301-0.392,0.543c-0.828,1.562-1.828,2.833-2.999,3.81c-0.214,0.243-0.449,0.544-0.71,0.908
				c-0.262,0.362-0.5,0.665-0.71,0.907c-1.151,1.69-2.33,3.35-3.536,4.98c-1.208,1.63-2.386,3.291-3.537,4.978l-0.152,0.359
				c-0.106,0.12-0.271,0.067-0.498-0.163c0.303-0.832,0.631-1.672,0.989-2.509c0.356-0.835,0.796-1.618,1.321-2.343
				c0.734-0.967,1.415-2.019,2.036-3.161c0.62-1.14,1.24-2.312,1.858-3.51c0.83-1.443,1.689-2.856,2.576-4.242
				c0.884-1.38,1.854-2.739,2.908-4.073c0.523-0.724,1.271-1.336,2.238-1.839c0.428-0.249,0.806-0.469,1.128-0.658
				c0.322-0.184,0.645-0.34,0.969-0.471c0.5-1.546,0.249-2.603-0.751-3.163c-0.784-0.566-1.59-1.013-2.42-1.344
				c-0.83-0.326-1.673-0.182-2.528,0.434c-0.32,0.246-0.674,0.372-1.055,0.384c-0.383,0.011-0.735,0.086-1.059,0.212
				c-1.088,0.151-2.092,0.447-3.005,0.888c-0.917,0.441-1.686,1.202-2.309,2.286c-0.316,0.361-0.47,0.664-0.463,0.898
				c0.235,0.584,0.198,1.117-0.115,1.599c-0.313,0.482-0.574,0.902-0.782,1.262c-1.665,2.769-3.214,5.621-4.656,8.554
				c-1.44,2.939-2.879,5.843-4.325,8.721c-0.198,0.599-0.399,1.135-0.605,1.612c-0.204,0.48-0.405,1.016-0.607,1.612
				L204.632,107.869z M73.24,100.569l0.851,1.039c2.046,2.534,4.009,4.188,5.891,4.951c1.882,0.771,3.771,0.919,5.671,0.448
				c1.896-0.473,3.835-1.388,5.818-2.748c1.98-1.355,4.092-2.897,6.335-4.623c2.772-2.208,5.602-4.45,8.483-6.724
				c2.882-2.271,5.596-4.686,8.14-7.241c1.908-1.949,2.762-3.478,2.564-4.597c-0.198-1.115-0.825-1.92-1.878-2.421
				c-1.055-0.497-2.788-0.888-5.199-1.169c-0.661-0.094-1.458-0.188-2.388-0.279c-0.933-0.087-1.732-0.361-2.402-0.812
				c-0.522,0.842-1.206,1.689-2.054,2.542c-0.849,0.853-1.778,1.71-2.791,2.563c-1.013,0.862-2.025,1.688-3.038,2.486
				c-1.016,0.799-1.895,1.563-2.636,2.295c-0.537,0.369-1.336,1.043-2.397,2.02c-1.064,0.979-2.21,1.958-3.435,2.941
				c-1.228,0.983-2.43,1.906-3.604,2.766c-1.178,0.862-2.087,1.422-2.737,1.677c0.713-1.674,1.682-3.029,2.91-4.073
				c1.224-1.041,2.259-2.045,3.104-3.019c2.438-2.432,5.035-5.022,7.795-7.766c2.758-2.74,5.58-5.156,8.468-7.252
				c5.777-4.073,11.531-7.996,17.264-11.775c5.73-3.775,11.834-7.06,18.308-9.857c6.147-2.667,12.243-5.215,18.292-7.645
				c6.046-2.427,11.987-4.735,17.823-6.921c0.862-0.381,2.376-0.897,4.542-1.557c2.166-0.656,4.577-1.381,7.231-2.172
				c2.652-0.787,5.468-1.61,8.45-2.472c2.977-0.857,5.795-1.622,8.454-2.294c2.657-0.671,5.019-1.186,7.085-1.545
				c2.064-0.357,3.481-0.489,4.25-0.395c-0.917,2.151-1.957,3.925-3.116,5.318c-1.161,1.394-2.353,2.64-3.574,3.738
				c-1.224,1.101-2.421,2.172-3.59,3.209c-1.172,1.041-2.171,2.28-3.001,3.723c-0.834,1.325-1.997,2.627-3.487,3.916
				c-1.493,1.285-2.823,2.419-3.995,3.396c-4.159,3.437-8.229,7.012-12.214,10.736c-3.984,3.725-8.054,7.358-12.208,10.909
				c-0.858,0.618-1.579,1.174-2.162,1.659c-0.588,0.495-1.198,1.042-1.834,1.652c-1.492,1.347-2.761,2.681-3.814,4.013
				c-1.052,1.332-2.382,2.492-3.991,3.487l-5.346,2.112c0.571-2.733,1.515-5.772,2.834-9.118c1.318-3.344,2.448-6.568,3.393-9.669
				c0.942-3.096,1.431-5.884,1.465-8.364c0.032-2.48-0.897-4.285-2.789-5.405c-0.666-0.335-1.165-0.554-1.495-0.661
				c-0.333-0.107-0.607-0.129-0.823-0.064c-0.22,0.068-0.488,0.133-0.814,0.202c-0.326,0.069-0.766-0.005-1.318-0.227
				c-0.773-0.211-1.353-0.401-1.739-0.566c-0.391-0.167-0.748-0.331-1.081-0.499c-0.333-0.166-0.667-0.333-0.999-0.501
				c-0.333-0.164-0.83-0.356-1.494-0.571c0.069,2.241-0.063,4.224-0.391,5.94c-0.332,1.726-0.772,3.391-1.322,5.002
				c-0.552,1.608-1.159,3.253-1.817,4.925c-0.661,1.675-1.283,3.58-1.873,5.723c-1.078,4.168-2.555,8.552-4.434,13.151
				c-1.883,4.605-3.255,8.809-4.123,12.611l-1.82,10.152c-0.186,1.065-0.355,1.752-0.511,2.047
				c-0.154,0.305-0.257,0.516-0.308,0.631c-0.054,0.122-0.1,0.331-0.146,0.625c-0.047,0.297-0.05,1.037-0.014,2.214
				c0.062,2.01-0.125,3.932-0.56,5.773c-0.435,1.845-0.899,3.654-1.391,5.442c-0.494,1.785-0.982,3.631-1.47,5.536
				c-0.49,1.906-0.701,3.859-0.64,5.862c1.671,1.012,3.24,1.348,4.705,1.007c1.464-0.337,2.781-1.061,3.95-2.156
				c1.167-1.1,2.163-2.455,2.99-4.078c0.824-1.62,1.43-3.256,1.816-4.923c0.768-3.447,1.541-6.747,2.319-9.9
				c0.776-3.15,1.829-6.283,3.156-9.395c0.2-0.596,0.246-0.83,0.142-0.714c-0.107,0.123-0.059-0.055,0.148-0.532
				c0.199-0.598,0.45-1.344,0.75-2.236c0.301-0.897,0.686-1.704,1.155-2.427c0.469-0.725,1.081-1.271,1.835-1.652
				c0.751-0.376,1.735-0.406,2.949-0.091c1.764,0.541,4.113,0.497,7.047-0.127c2.931-0.619,6.105-1.364,9.522-2.237
				c3.417-0.873,6.889-1.655,10.421-2.355c3.53-0.702,6.777-0.917,9.735-0.656c-1.119,2.753-2.657,5.191-4.611,7.314
				c-1.959,2.129-4.002,4.107-6.13,5.944c-1.599,1.349-2.742,2.415-3.427,3.204c-0.688,0.79-1.374,1.545-2.062,2.276
				c-0.69,0.729-1.591,1.584-2.709,2.563s-2.854,2.332-5.204,4.055l-2.693,3.094c-0.615,1.32-1.295,2.373-2.034,3.16
				c-0.741,0.793-1.872,1.386-3.389,1.786l2.549-2.379c0.005,0.118,0.106-0.063,0.311-0.542c-1.075,0.627-2.466,1.581-4.176,2.874
				c-1.708,1.291-3.151,2.372-4.327,3.23l-1.397,2.522c-0.527,0.724-1.293,1.543-2.303,2.46c-1.012,0.918-2.105,1.779-3.282,2.582
				c-1.178,0.804-2.328,1.606-3.451,2.406c-1.123,0.806-2.062,1.452-2.81,1.945c-1.502,0.993-2.782,2.034-3.838,3.129
				c-1.06,1.096-2.283,2.255-3.664,3.478c-0.235-0.463-0.272-0.848-0.118-1.147c0.156-0.298,0.174-0.506,0.063-0.623
				c-0.637,0.611-1.494,1.288-2.563,2.025c-1.07,0.743-2.166,1.544-3.286,2.404c-1.122,0.859-2.139,1.662-3.043,2.396
				c-0.906,0.736-1.461,1.401-1.659,1.998c-0.108,0.119-0.155,0.296-0.149,0.537l-0.152,0.358c-0.21,0.36-0.34,0.513-0.397,0.455
				c-0.058-0.063-0.189,0.095-0.396,0.453l-11.986,10.109c-0.533,0.485-1.305,1.159-2.315,2.018
				c-1.014,0.856-2.055,1.684-3.121,2.488c-1.07,0.798-2.141,1.538-3.21,2.223c-1.074,0.679-1.932,1.148-2.582,1.407
				c-1.191,0.391-2.169,0.598-2.932,0.621c-0.765,0.024-1.898,0.47-3.402,1.345c0.368,1.285,0.632,1.868,0.792,1.745
				c0.161-0.122,0.353-0.011,0.584,0.334c0.342,0.462,0.486,0.697,0.432,0.698l-0.168-0.083l-0.161,0.093
				c-0.053,0.117,0.042,0.528,0.282,1.231c2.107,0.995,3.928,1.531,5.461,1.604c1.531,0.065,2.971-0.211,4.319-0.843
				c1.345-0.635,2.821-1.563,4.423-2.792c1.602-1.231,3.523-2.707,5.767-4.429l26.284-19.753c3.844-2.953,7.53-5.694,11.061-8.22
				c3.529-2.524,7.03-5.085,10.503-7.673c3.472-2.584,7.025-5.288,10.656-8.117c3.628-2.826,7.519-6.073,11.669-9.741
				c2.767-2.446,5.506-4.893,8.22-7.335c2.711-2.444,5.337-5.062,7.875-7.857c1.372-1.575,2.714-3.212,4.03-4.903
				c1.314-1.696,2.218-3.375,2.714-5.044c0.496-1.665,0.473-3.318-0.069-4.957c-0.543-1.633-1.93-3.186-4.161-4.654
				c-1.784-1.121-3.776-1.917-5.974-2.383c-2.204-0.465-4.479-0.746-6.832-0.852c-2.354-0.105-4.756-0.089-7.212,0.042
				c-2.455,0.137-4.775,0.237-6.959,0.303c0.814-1.91,2.271-3.523,4.362-4.827c2.091-1.303,3.88-2.625,5.371-3.973l28.402-25.483
				c2.972-2.805,6.11-5.704,9.406-8.7c3.296-2.994,6.092-6.234,8.392-9.733c1.043-1.564,1.489-3.084,1.336-4.555
				c-0.157-1.469-0.66-2.752-1.513-3.85c-0.853-1.095-1.946-1.979-3.278-2.644c-1.331-0.669-2.656-1.097-3.974-1.297
				c-1.211-0.197-2.228-0.43-3.055-0.702c-0.829-0.269-1.655-0.48-2.479-0.631c-0.825-0.152-1.704-0.272-2.634-0.363
				c-0.934-0.087-2.107-0.052-3.522,0.106c0.004,0.119-0.13,0.215-0.401,0.28c-0.271,0.067-0.434,0.13-0.487,0.193
				c-0.051,0.06,0.086,0.114,0.416,0.164c0.33,0.05,1.042,0.173,2.143,0.375c-0.871,0.147-1.58,0.199-2.127,0.154
				c-0.549-0.042-1.149-0.054-1.805-0.033c-0.655,0.02-1.392,0.041-2.212,0.067c-0.818,0.026-1.935,0.18-3.346,0.458
				c-1.631,0.287-3.18,0.571-4.647,0.85c-1.466,0.284-2.792,0.738-3.975,1.363c1.2-0.037,2.207-0.185,3.018-0.446
				c0.813-0.26,1.543-0.49,2.193-0.688c0.65-0.198,1.248-0.273,1.796-0.232c0.548,0.043,1.263,0.227,2.149,0.553
				c-7.398,1.174-14.723,2.931-21.974,5.28c-7.251,2.347-14.438,4.989-21.564,7.921c-7.123,2.934-14.16,6.045-21.11,9.325
				c-6.95,3.285-13.823,6.387-20.619,9.309l7.214-5.356c-2.927,0.797-6.267,2.378-10.021,4.735s-7.553,4.985-11.399,7.876
				c-3.845,2.893-7.555,5.806-11.125,8.752c-3.573,2.944-6.584,5.455-9.033,7.537c-1.068,0.861-2.477,2.114-4.23,3.759
				c-1.752,1.65-3.394,3.442-4.917,5.375c-1.526,1.937-2.694,3.893-3.509,5.863c-0.813,1.972-0.812,3.773,0.002,5.399
				c0.591,1.403,1.027,2.272,1.311,2.619c0.282,0.344,1.191,0.613,2.729,0.801C75.01,99.452,74.098,100.071,73.24,100.569z"/>
		</g>
		<g>
			
				<linearGradient id="SVGID_2_" gradientUnits="userSpaceOnUse" x1="380.0278" y1="80.4121" x2="380.0278" y2="158.1313" gradientTransform="matrix(0.9887 0.1498 -0.1498 0.9887 19.8677 -39.9043)">
				<stop  offset="0" style="stop-color:#FCD839"/>
				<stop  offset="0.5269" style="stop-color:#FAA21F"/>
				<stop  offset="1" style="stop-color:#F17C21"/>
			</linearGradient>
			<path fill="url(#SVGID_2_)" d="M548.542,123.688c-3.444-0.184-6.176-0.195-8.227-0.037c-8.904,0.564-18.487,0.907-28.77,1.028
				c-4.807,0.054-9.43,0.121-13.882,0.207c-4.462,0.091-9.086,0.208-13.872,0.355c-4.112,0.029-8.4,0.161-12.844,0.395
				c-4.461,0.232-9.083,0.475-13.865,0.715l-5.139,0.158c-7.551,0.038-15.42,0.255-23.635,0.653
				c-8.214,0.396-16.097,0.759-23.621,1.087c-2.746,0.181-5.488,0.264-8.222,0.253c-2.749-0.013-5.83,0.083-9.25,0.284
				c-3.431,0.2-6.673,0.421-9.75,0.661c-3.081,0.239-6.336,0.46-9.753,0.662c-6.162,0.285-12.162,0.517-17.975,0.696
				c-5.829,0.178-11.815,0.461-17.974,0.842c-0.688,0.12-1.714,0.198-3.08,0.239c-6.168,0.096-12.331,0.331-18.493,0.714
				c-6.159,0.382-11.978,0.802-17.446,1.261c-2.051,0.158-5.485,0.313-10.271,0.459c-1.376,0.142-2.741,0.229-4.103,0.271
				c-1.383,0.042-2.748,0.137-4.11,0.273c-10.26,0.798-20.526,1.477-30.794,2.033c-10.268,0.558-20.199,1.082-29.778,1.567
				c-3.435,0.2-7.878,0.386-13.355,0.555c-4.109,0.124-7.197,0.076-9.259-0.151c-1.395-0.343-3.104-0.533-5.16-0.567
				c-2.058-0.03-4.47-0.057-7.202-0.069l-1.025,0.175l-1.021,0.178c0.688,0.465,1.571,0.896,2.61,1.301
				c1.041,0.402,1.905,0.836,2.611,1.298c0.683,0.268,1.381,0.537,2.083,0.806c0.68,0.271,0.354,0.569-1.003,0.901
				c-0.688,0.022-1.022,0.179-1.014,0.467c1.388,0.734,3.465,1.371,6.229,1.914c2.748,0.547,5.852,1.105,9.307,1.676l2.063,0.082
				c10.313,0.844,20.936,0.952,31.892,0.328c4.104-0.317,8.036-0.538,11.809-0.654c3.758-0.115,7.351-0.318,10.779-0.62
				c4.78-0.438,9.573-0.802,14.369-1.095c4.778-0.291,9.575-0.607,14.369-0.948c8.884-0.658,17.606-1.289,26.172-1.893
				c8.545-0.6,17.271-1.184,26.172-1.748c2.058-0.063,4.109-0.198,6.159-0.404c2.054-0.21,3.749-0.381,5.126-0.52
				c8.891-0.467,17.279-0.967,25.155-1.499c7.858-0.531,15.911-1.02,24.126-1.467c6.162-0.282,12.322-0.617,18.481-1.004
				c6.162-0.382,11.969-0.654,17.46-0.825c8.218-0.348,16.437-0.72,24.653-1.117c8.215-0.398,16.431-0.772,24.648-1.12
				c8.219-0.348,16.598-0.702,25.167-1.063c8.555-0.356,16.951-0.712,25.165-1.062l0.005,0.145l28.773-0.884
				c4.785-0.147,8.22-0.299,10.27-0.459c3.417-0.199,5.98-0.522,7.687-0.962c1.691-0.438,1.853-0.878,0.475-1.321
				C574.291,124.835,564.313,123.787,548.542,123.688z"/>
		</g>
	</g>
</g>
<g>
</g>
<g>
</g>
<g>
</g>
<g>
</g>
<g>
</g>
<g>
</g>
</svg>
