<?xml version="1.0" encoding="utf-8"?>
<!-- Generator: Adobe Illustrator 16.0.0, SVG Export Plug-In . SVG Version: 6.00 Build 0)  -->
<!DOCTYPE svg PUBLIC "-//W3C//DTD SVG 1.1//EN" "http://www.w3.org/Graphics/SVG/1.1/DTD/svg11.dtd">
<svg version="1.1" id="Layer_1" xmlns="http://www.w3.org/2000/svg" xmlns:xlink="http://www.w3.org/1999/xlink" x="0px" y="0px"
	 width="300px" height="300px" viewBox="0 0 300 300" enable-background="new 0 0 300 300" xml:space="preserve">
<g>
	<circle fill="#06788B" cx="149.99" cy="148.141" r="146.645"/>
	<path fill="#FFFFFF" d="M217.534,216.155h-3.712v18.507h11.999v-2.848h-8.287V216.155z M203.883,221.239h0.076l2.046,6.521h-4.182
		L203.883,221.239z M208.166,234.662h3.877l-6.216-18.507h-3.801l-6.241,18.507h3.877l1.246-3.991h5.999L208.166,234.662z
		 M196.611,216.155H182.4v2.859h5.212v15.647h3.712v-15.647h5.287V216.155z M180.672,216.155h-3.712v12.456l-0.076,0.013
		l-7.461-12.469h-3.712v18.507h3.712v-12.47l0.076-0.013l7.461,12.482h3.712V216.155z M161.809,223.667h-6.863v-4.652h8.135v-2.859
		h-11.847v18.507h11.872v-2.848h-8.16v-5.287h6.863V223.667z M138.357,219.015h2.694c0.991,0,1.743,0.25,2.257,0.75
		c0.512,0.5,0.769,1.174,0.769,2.021c0,0.864-0.254,1.517-0.763,1.957c-0.509,0.441-1.284,0.661-2.326,0.661h-2.631V219.015z
		 M141.307,227.265c0.923,0,1.637,0.256,2.142,0.769c0.504,0.513,0.756,1.231,0.756,2.154v1.31c0,0.585,0.049,1.19,0.146,1.817
		c0.098,0.628,0.315,1.076,0.654,1.348h3.826v-0.267c-0.339-0.271-0.578-0.688-0.718-1.252c-0.141-0.563-0.21-1.104-0.21-1.621
		v-1.36c0-1.109-0.239-2.042-0.719-2.796c-0.479-0.754-1.265-1.292-2.357-1.614c0.966-0.424,1.701-0.981,2.205-1.672
		s0.757-1.511,0.757-2.459c0-1.721-0.596-3.062-1.786-4.023s-2.841-1.442-4.951-1.442h-6.406v18.507h3.712v-7.397H141.307z
		 M124.261,223.667h-6.863v-4.652h8.135v-2.859h-11.847v18.507h11.872v-2.848h-8.16v-5.287h6.863V223.667z M107.279,234.662h4.729
		l-6.902-9.901l6.406-8.605h-4.588l-5.072,7.563h-1.042v-7.563h-3.712v18.507h3.712v-7.729h1.36L107.279,234.662z M93.424,216.155
		h-3.712v18.507h3.712V216.155z M76.582,219.015h2.352c1.067,0,1.87,0.204,2.408,0.61c0.538,0.407,0.808,1.038,0.808,1.894
		c0,0.78-0.267,1.373-0.801,1.78c-0.534,0.406-1.297,0.609-2.288,0.609h-2.479V219.015z M79.988,226.477
		c1.025,0,1.792,0.241,2.301,0.725c0.509,0.482,0.763,1.174,0.763,2.071c0,0.839-0.259,1.473-0.775,1.9s-1.267,0.642-2.25,0.642
		h-3.444v-5.338H79.988z M80.026,234.662c2.144,0,3.801-0.455,4.97-1.366c1.17-0.911,1.755-2.252,1.755-4.023
		c0-1.051-0.293-1.97-0.877-2.758c-0.585-0.788-1.454-1.288-2.606-1.5c0.848-0.339,1.491-0.843,1.933-1.513
		c0.44-0.669,0.661-1.428,0.661-2.275c0-1.678-0.61-2.942-1.831-3.794c-1.22-0.852-2.919-1.277-5.097-1.277H72.87v18.507H80.026z"/>
	<path fill="#FFFFFF" d="M228.455,116.621c-6.992-7.001-16.695-11.342-27.371-11.341c-4.293-0.001-8.438,0.709-12.305,2.006
		l-8.385-18.912c-0.695-1.576-2.266-2.597-3.988-2.597h-13.395c-2.412,0-4.363,1.956-4.363,4.369c0,2.409,1.951,4.364,4.363,4.364
		h10.549l7.35,16.572l-61.805,52.85c-0.133,0.119-0.249,0.227-0.374,0.363c-5.488,5.957-13.32,9.678-22.062,9.682
		c-8.295-0.006-15.763-3.348-21.201-8.785c-5.429-5.438-8.782-12.904-8.782-21.197c0-8.296,3.354-15.764,8.782-21.202
		c5.438-5.431,12.906-8.776,21.201-8.777c7.223,0,13.805,2.534,18.985,6.774c5.174,4.24,8.901,10.172,10.339,16.935
		c0.5,2.356,2.82,3.863,5.182,3.363c2.356-0.505,3.86-2.822,3.357-5.182c-1.07-5.042-3.123-9.711-5.942-13.813h29.185
		c2.41,0,4.369-1.956,4.369-4.367c0-2.41-1.959-4.364-4.369-4.364h-37.445c-6.54-5.06-14.765-8.083-23.661-8.08
		c-10.677-0.002-20.384,4.337-27.372,11.34c-6.998,6.991-11.342,16.699-11.342,27.375c0,10.673,4.344,20.378,11.342,27.371
		c6.988,7.002,16.695,11.344,27.372,11.34c11.139,0,21.205-4.727,28.26-12.26l59.67-51.031l11.682,26.347
		c0.977,2.206,3.557,3.198,5.76,2.224c2.207-0.979,3.195-3.559,2.219-5.76l-11.918-26.903c2.76-0.843,5.689-1.31,8.736-1.31
		c8.295,0,15.762,3.348,21.203,8.779c5.432,5.44,8.779,12.906,8.779,21.203c0,8.291-3.348,15.757-8.779,21.197
		c-5.438,5.434-12.908,8.777-21.203,8.781c-7.721-0.004-14.719-2.902-20.045-7.689c-5.313-4.787-8.906-11.432-9.742-18.906
		c-0.27-2.402-2.434-4.125-4.826-3.855c-2.398,0.27-4.121,2.43-3.857,4.822c1.086,9.669,5.734,18.269,12.582,24.429
		c6.852,6.168,15.951,9.936,25.889,9.932c10.682,0.004,20.385-4.342,27.377-11.342c7-6.99,11.34-16.695,11.34-27.373
		C239.795,133.317,235.455,123.611,228.455,116.621z"/>
	<path fill="#FFFFFF" d="M97.127,131.196c7.866,0,14.242,6.374,14.242,14.24c0,7.863-6.376,14.238-14.242,14.238
		c-7.865,0-14.237-6.375-14.237-14.238C82.89,137.57,89.262,131.196,97.127,131.196z"/>
	<circle fill="#FFFFFF" cx="202.219" cy="145.434" r="14.24"/>
</g>
</svg>
