<?xml version="1.0" encoding="utf-8"?>
<!-- Generator: Adobe Illustrator 16.0.0, SVG Export Plug-In . SVG Version: 6.00 Build 0)  -->
<!DOCTYPE svg PUBLIC "-//W3C//DTD SVG 1.1//EN" "http://www.w3.org/Graphics/SVG/1.1/DTD/svg11.dtd">
<svg version="1.1" id="Layer_1" xmlns="http://www.w3.org/2000/svg" xmlns:xlink="http://www.w3.org/1999/xlink" x="0px" y="0px"
	 width="300px" height="300px" viewBox="0 0 300 300" enable-background="new 0 0 300 300" xml:space="preserve">
<g>
	<circle fill="#06788B" cx="151.521" cy="148.14" r="146.646"/>
	<path fill="#FFFFFF" d="M224.716,231.496c-0.521,0.416-1.277,0.623-2.27,0.623c-1.102,0-1.974-0.258-2.618-0.775
		c-0.644-0.516-0.966-1.322-0.966-2.414h-3.598l-0.025,0.076c-0.042,1.965,0.65,3.443,2.078,4.436
		c1.429,0.992,3.138,1.486,5.129,1.486c2.034,0,3.67-0.457,4.907-1.371c1.236-0.916,1.855-2.166,1.855-3.75
		c0-1.518-0.534-2.74-1.602-3.668s-2.618-1.68-4.652-2.256c-1.33-0.449-2.267-0.875-2.809-1.277
		c-0.543-0.402-0.813-0.918-0.813-1.545c0-0.686,0.249-1.25,0.749-1.689c0.5-0.441,1.208-0.662,2.123-0.662
		c1.009,0,1.792,0.248,2.352,0.744s0.839,1.205,0.839,2.129h3.598l0.025-0.076c0.042-1.678-0.562-3.033-1.812-4.068
		c-1.25-1.033-2.9-1.551-4.951-1.551c-1.932,0-3.521,0.482-4.767,1.443c-1.245,0.963-1.868,2.201-1.868,3.719
		c0,1.508,0.553,2.699,1.658,3.57c1.106,0.873,2.727,1.633,4.862,2.275c1.246,0.383,2.116,0.789,2.612,1.221
		s0.743,1.004,0.743,1.717C225.497,230.527,225.236,231.082,224.716,231.496z M211.947,223.666h-6.863v-4.652h8.135v-2.859h-11.847
		v18.508h11.872v-2.848h-8.16v-5.287h6.863V223.666z M199.338,216.154h-14.211v2.859h5.212v15.648h3.712v-15.648h5.287V216.154z
		 M179.496,216.154v12.113c0,1.238-0.335,2.182-1.004,2.836c-0.67,0.652-1.576,0.979-2.721,0.979c-1.127,0-2.021-0.326-2.682-0.979
		c-0.661-0.654-0.991-1.598-0.991-2.836v-12.113h-3.725v12.113c0,2.086,0.685,3.717,2.053,4.895s3.15,1.766,5.345,1.766
		c2.203,0,3.996-0.588,5.377-1.766s2.072-2.809,2.072-4.895v-12.113H179.496z M161.916,227.072c0,1.467-0.355,2.662-1.067,3.586
		s-1.703,1.385-2.975,1.385c-1.263,0-2.245-0.461-2.948-1.385c-0.704-0.924-1.056-2.119-1.056-3.586v-3.355
		c0-1.439,0.35-2.621,1.049-3.545s1.676-1.387,2.93-1.387c1.271,0,2.267,0.463,2.987,1.387c0.72,0.924,1.08,2.105,1.08,3.545
		V227.072z M165.615,223.742c0-2.262-0.721-4.137-2.161-5.623c-1.44-1.488-3.309-2.232-5.605-2.232
		c-2.279,0-4.129,0.744-5.548,2.232c-1.42,1.486-2.129,3.361-2.129,5.623v3.33c0,2.271,0.711,4.148,2.135,5.633
		c1.424,1.482,3.279,2.223,5.567,2.223c2.297,0,4.161-0.738,5.593-2.217c1.433-1.479,2.148-3.357,2.148-5.639V223.742z
		 M137.766,219.014h2.694c0.991,0,1.743,0.25,2.257,0.75c0.512,0.5,0.769,1.174,0.769,2.021c0,0.865-0.254,1.518-0.763,1.957
		c-0.509,0.441-1.284,0.662-2.326,0.662h-2.631V219.014z M140.715,227.264c0.923,0,1.637,0.256,2.142,0.77
		c0.504,0.512,0.756,1.23,0.756,2.154v1.309c0,0.586,0.049,1.191,0.146,1.818s0.315,1.076,0.654,1.348h3.826v-0.268
		c-0.339-0.271-0.578-0.688-0.718-1.252c-0.141-0.563-0.21-1.104-0.21-1.621v-1.359c0-1.109-0.239-2.043-0.719-2.797
		c-0.479-0.754-1.265-1.291-2.357-1.613c0.966-0.424,1.701-0.982,2.205-1.672c0.504-0.691,0.757-1.512,0.757-2.459
		c0-1.721-0.596-3.063-1.786-4.023c-1.19-0.963-2.841-1.443-4.951-1.443h-6.406v18.508h3.712v-7.398H140.715z M123.669,223.666
		h-6.863v-4.652h8.135v-2.859h-11.847v18.508h11.872v-2.848h-8.16v-5.287h6.863V223.666z M106.688,234.662h4.729l-6.902-9.902
		l6.406-8.605h-4.588l-5.072,7.563h-1.042v-7.563h-3.712v18.508h3.712v-7.729h1.36L106.688,234.662z M92.832,216.154H89.12v18.508
		h3.712V216.154z M75.99,219.014h2.352c1.067,0,1.87,0.205,2.408,0.611s0.808,1.037,0.808,1.893c0,0.781-0.267,1.373-0.801,1.781
		c-0.534,0.406-1.297,0.609-2.288,0.609H75.99V219.014z M79.396,226.477c1.025,0,1.792,0.24,2.301,0.725
		c0.509,0.482,0.763,1.174,0.763,2.07c0,0.84-0.259,1.473-0.775,1.9s-1.267,0.643-2.25,0.643H75.99v-5.338H79.396z M79.435,234.662
		c2.144,0,3.801-0.455,4.97-1.367c1.17-0.91,1.755-2.252,1.755-4.023c0-1.051-0.293-1.969-0.877-2.758
		c-0.585-0.787-1.454-1.287-2.606-1.5c0.848-0.338,1.491-0.842,1.933-1.512c0.44-0.67,0.661-1.428,0.661-2.275
		c0-1.678-0.61-2.943-1.831-3.795c-1.22-0.852-2.919-1.277-5.097-1.277h-6.063v18.508H79.435z"/>
	<path fill-rule="evenodd" clip-rule="evenodd" fill="#FFFFFF" d="M77.647,165.543c1.39-4.928,2.906-9.824,4.104-14.799
		c0.492-2.043,1.363-2.593,3.367-2.545c10.711,0.254,20.28,4.145,29.496,9.124c3.071,1.658,5.994,3.604,8.906,5.533
		c0.662,0.438,1.467,1.391,1.421,2.051c-0.434,6.342-1.03,12.668-1.604,18.998c-0.03,0.338-0.265,0.652-0.485,1.164
		c-7.981-3.281-15.863-6.547-23.765-9.768c-7.136-2.908-14.294-5.768-21.441-8.65C77.647,166.283,77.647,165.914,77.647,165.543z"/>
	<path fill-rule="evenodd" clip-rule="evenodd" fill="#FFFFFF" d="M219.398,182.709c-9.522-3.029-19.05-6.047-28.566-9.092
		c-4.283-1.371-8.577-2.723-12.803-4.254c-0.807-0.293-1.842-1.352-1.89-2.113c-0.483-7.527-0.777-15.064-1.163-23.344
		c1.373,0.979,2.273,1.619,3.173,2.264c10.557,7.582,21.363,14.787,34.028,18.345c3.5,0.982,5.19,2.301,5.429,6.006
		c0.229,3.533,1.166,7.021,1.792,10.525C219.398,181.602,219.398,182.154,219.398,182.709z"/>
	<path fill-rule="evenodd" clip-rule="evenodd" fill="#FFFFFF" d="M125.895,155.076c-13.24-7.083-25.271-16.019-40.975-16.139
		c4.069-15.461,8.214-31.21,12.449-47.304c3.373,1.22,6.51,2.354,9.302,3.365c-0.555,3.882-1.461,7.39-1.465,10.899
		c-0.011,5.771,2.473,10.877,6.573,14.746c4.385,4.138,9.336,7.691,14.178,11.319c1.247,0.935,1.84,1.613,1.668,3.268
		C126.95,141.724,126.474,148.24,125.895,155.076z"/>
	<path fill-rule="evenodd" clip-rule="evenodd" fill="#FFFFFF" d="M188.764,107.997c-1.421-5.259-2.833-10.443-4.225-15.633
		c-1.9-7.092-3.73-14.205-5.692-21.279c-2.265-8.159,1.398-17.112,8.83-21.3c7.409-4.175,16.899-2.715,22.773,3.506
		c5.833,6.176,7.038,15.801,2.222,22.658c-7.511,10.691-15.405,21.109-23.148,31.637
		C189.43,107.713,189.221,107.756,188.764,107.997z M187.165,66.627c-0.046,5.424,4.115,9.718,9.454,9.756
		c5.391,0.039,9.612-4.107,9.714-9.54c0.1-5.281-4.188-9.7-9.502-9.792C191.533,56.958,187.208,61.243,187.165,66.627z"/>
	<path fill-rule="evenodd" clip-rule="evenodd" fill="#FFFFFF" d="M131.035,184.926c0.566-6.705,1.074-13.203,1.72-19.686
		c0.074-0.768,0.711-1.738,1.377-2.146c10.73-6.607,21.508-13.139,32.279-19.679c0.14-0.085,0.349-0.056,0.784-0.114
		c0.208,3.544,0.446,7.068,0.618,10.594c0.216,4.418,0.474,8.836,0.487,13.254c0.005,0.898-0.771,2.287-1.549,2.629
		c-11.439,5.018-22.939,9.896-34.429,14.801C132.008,184.713,131.653,184.762,131.035,184.926z"/>
	<path fill-rule="evenodd" clip-rule="evenodd" fill="#FFFFFF" d="M165.076,91.33c0.584,13.456,1.109,26.447,1.752,39.433
		c0.102,2.018-0.48,3.241-2.275,4.176c-2.024,1.053-3.901,2.389-6.551,4.045c0-2.735,0.009-4.875-0.004-7.016
		c-0.017-3.045-0.039-6.089-0.074-9.133c-0.048-4.053-2.55-5.845-6.379-4.462c-5.001,1.807-9.965,3.713-15.188,5.668
		c0.572-6.782,1.096-13.292,1.722-19.793c0.056-0.565,0.676-1.315,1.224-1.559C147.768,98.909,156.265,95.198,165.076,91.33z"/>
	<path fill-rule="evenodd" clip-rule="evenodd" fill="#FFFFFF" d="M173.19,91.224c2.062,0.662,4.189,1.205,6.184,2.068
		c0.645,0.28,1.128,1.346,1.348,2.145c2.081,7.521,4.091,15.06,6.265,23.144c1.718-2.336,3.207-4.356,4.689-6.382
		c2.554-3.491,5.159-6.949,7.63-10.5c0.827-1.187,1.611-1.519,2.931-0.939c1.089,0.477,2.286,0.707,3.379,1.176
		c0.543,0.232,1.305,0.697,1.384,1.157c0.751,4.412,1.377,8.844,2.06,13.416c-13.342,2.249-21.688,10.299-27.35,22.187
		c-2.259-1.636-4.403-3.145-6.486-4.74c-0.367-0.282-0.632-0.916-0.655-1.399c-0.576-13.527-1.118-27.056-1.653-40.585
		C172.906,91.806,173.032,91.636,173.19,91.224z"/>
	<path fill-rule="evenodd" clip-rule="evenodd" fill="#FFFFFF" d="M210.438,125.118c1.61,10.352,3.194,20.558,4.879,31.394
		c-10.035-2.107-17.723-7.61-25.677-12.419C190.688,135.073,201.234,125.363,210.438,125.118z"/>
	<path fill-rule="evenodd" clip-rule="evenodd" fill="#FFFFFF" d="M115.399,98.117c4.509,1.612,9.087,3.188,13.601,4.933
		c0.594,0.23,1.244,1.356,1.199,2.021c-0.421,6.049-0.989,12.087-1.521,18.194C116.826,118.548,109.633,107.716,115.399,98.117z"/>
	<path fill-rule="evenodd" clip-rule="evenodd" fill="#FFFFFF" d="M133.728,154.287c0.56-6.846,1.054-13.14,1.632-19.424
		c0.046-0.512,0.563-1.222,1.035-1.415c4.316-1.758,8.671-3.421,13.497-5.301c0,5.336,0.021,10.265-0.037,15.193
		c-0.006,0.445-0.434,1.042-0.838,1.301C144.082,147.795,139.116,150.901,133.728,154.287z"/>
</g>
</svg>
