<?xml version="1.0" encoding="utf-8"?>
<!-- Generator: Adobe Illustrator 16.0.0, SVG Export Plug-In . SVG Version: 6.00 Build 0)  -->
<!DOCTYPE svg PUBLIC "-//W3C//DTD SVG 1.1//EN" "http://www.w3.org/Graphics/SVG/1.1/DTD/svg11.dtd">
<svg version="1.1" id="Layer_1" xmlns="http://www.w3.org/2000/svg" xmlns:xlink="http://www.w3.org/1999/xlink" x="0px" y="0px"
	 width="300px" height="300px" viewBox="0 0 300 300" enable-background="new 0 0 300 300" xml:space="preserve">
<ellipse fill="#06788B" cx="150.09" cy="148.142" rx="146.586" ry="146.645"/>
<g>
	<path fill="#FFFFFF" d="M213.395,217.476h-4.063l6.233,11.794v6.69h3.707v-6.5l6.335-11.984h-4.063l-4.037,8.519h-0.076
		L213.395,217.476z M204.635,229.841c0,1.202-0.273,2.093-0.818,2.673c-0.547,0.579-1.373,0.869-2.482,0.869
		c-1.168,0-2.08-0.449-2.736-1.346c-0.655-0.896-0.983-2.057-0.983-3.479v-3.694c0-1.413,0.312-2.566,0.933-3.46
		c0.623-0.893,1.488-1.339,2.597-1.339c1.193,0,2.075,0.29,2.647,0.87c0.57,0.579,0.856,1.461,0.856,2.646h3.605l0.025-0.076
		c0.034-1.998-0.584-3.547-1.854-4.646s-3.03-1.65-5.281-1.65c-2.158,0-3.901,0.717-5.23,2.152
		c-1.329,1.434-1.993,3.277-1.993,5.528v3.669c0,2.26,0.682,4.103,2.044,5.529c1.362,1.426,3.153,2.139,5.37,2.139
		c2.176,0,3.881-0.559,5.116-1.676s1.837-2.662,1.803-4.634l-0.025-0.076H204.635z M190.962,217.476h-3.707v12.441l-0.076,0.013
		l-7.452-12.454h-3.707v18.484h3.707v-12.454l0.076-0.013l7.452,12.467h3.707V217.476z M172.122,224.979h-6.855v-4.646h8.125v-2.856
		H161.56v18.484h11.857v-2.844h-8.15v-5.281h6.855V224.979z M158.411,226.299h-7.274v2.564h3.555v3.58
		c-0.279,0.271-0.675,0.495-1.188,0.673c-0.512,0.178-1.207,0.267-2.088,0.267c-1.193,0-2.146-0.439-2.856-1.32
		s-1.066-2.019-1.066-3.415v-3.885c0-1.38,0.347-2.507,1.041-3.384c0.694-0.875,1.608-1.313,2.742-1.313
		c1.083,0,1.909,0.272,2.476,0.819c0.566,0.545,0.851,1.309,0.851,2.291h3.491l0.025-0.076c0.043-1.785-0.537-3.214-1.739-4.285
		c-1.202-1.07-2.933-1.605-5.192-1.605c-2.167,0-3.94,0.705-5.319,2.113c-1.379,1.41-2.069,3.231-2.069,5.466v3.859
		c0,2.243,0.711,4.067,2.133,5.472s3.25,2.107,5.484,2.107c1.803,0,3.275-0.277,4.418-0.832c1.143-0.554,2.002-1.207,2.577-1.961
		V226.299z M131.383,220.332h2.691c0.99,0,1.741,0.25,2.253,0.749s0.768,1.173,0.768,2.019c0,0.863-0.254,1.516-0.762,1.955
		s-1.282,0.66-2.323,0.66h-2.628V220.332z M134.328,228.571c0.922,0,1.636,0.256,2.139,0.769c0.503,0.512,0.755,1.229,0.755,2.151
		v1.308c0,0.584,0.049,1.189,0.146,1.815s0.315,1.075,0.654,1.346h3.821v-0.267c-0.338-0.271-0.578-0.688-0.717-1.25
		c-0.14-0.563-0.209-1.104-0.209-1.619v-1.358c0-1.108-0.239-2.04-0.717-2.793s-1.263-1.29-2.355-1.612
		c0.965-0.424,1.699-0.979,2.203-1.67c0.503-0.689,0.755-1.508,0.755-2.456c0-1.718-0.595-3.058-1.784-4.019
		c-1.189-0.96-2.837-1.44-4.945-1.44h-6.398v18.484h3.707v-7.389H134.328z M123.778,224.979h-6.855v-4.646h8.125v-2.856h-11.832
		v18.484h11.857v-2.844h-8.15v-5.281h6.855V224.979z M95.455,217.476h-4.862v18.484H94.3v-12.645l0.076-0.013l4.57,12.657h2.514
		l4.57-12.632l0.076,0.013v12.619h3.707v-18.484h-4.837l-4.748,13.622h-0.076L95.455,217.476z M86.695,224.979H79.84v-4.646h8.125
		v-2.856H76.133v18.484H87.99v-2.844h-8.15v-5.281h6.855V224.979z"/>
</g>
<g>
	<path fill-rule="evenodd" clip-rule="evenodd" fill="#FFFFFF" d="M193.272,170.634c0.744,0,1.666-0.024,2.586,0.006
		c2.043,0.066,3.549,1.567,3.607,3.615c0.039,1.261,0.031,2.521,0.002,3.782c-0.049,2.042-1.371,3.375-3.422,3.492
		c-0.184,0.01-0.369,0.008-0.555,0.008c-30.078,0-60.156,0.002-90.234-0.005c-0.479,0-0.97-0.028-1.433-0.135
		c-1.474-0.338-2.468-1.47-2.534-2.987c-0.066-1.517-0.068-3.04-0.012-4.56c0.069-1.875,1.407-3.146,3.302-3.207
		c0.958-0.032,1.918-0.005,2.709-0.005c0-2.054-0.051-4.007,0.017-5.957c0.051-1.475,1.144-2.659,2.59-2.942
		c0.541-0.105,1.106-0.119,1.66-0.119c25.776-0.006,51.552-0.013,77.327,0.022c0.998,0,2.154,0.147,2.943,0.671
		c0.695,0.461,1.295,1.508,1.383,2.353C193.411,166.6,193.272,168.57,193.272,170.634z"/>
	<path fill-rule="evenodd" clip-rule="evenodd" fill="#FFFFFF" d="M153.888,72.642c-2.529,0-5.002,0-7.516,0
		c-0.047-0.154-0.125-0.287-0.125-0.42c-0.006-3.22-0.042-6.439,0.013-9.658c0.034-1.921,1.44-3.358,3.396-3.659
		c1.588-0.244,3.359,0.797,4.002,2.371c0.109,0.27,0.219,0.564,0.221,0.849C153.894,65.591,153.888,69.059,153.888,72.642z"/>
	<path fill-rule="evenodd" clip-rule="evenodd" fill="#FFFFFF" d="M177.546,80.964c-2.219-1.262-4.391-2.497-6.67-3.795
		c1.141-2.013,2.244-3.964,3.352-5.912c0.494-0.868,0.961-1.755,1.502-2.593c1.24-1.919,3.629-2.477,5.535-1.329
		c1.861,1.122,2.342,3.229,1.148,5.314C180.833,75.406,179.206,78.135,177.546,80.964z"/>
	<path fill-rule="evenodd" clip-rule="evenodd" fill="#FFFFFF" d="M110.513,93.379c-1.296,2.28-2.502,4.401-3.752,6.599
		c-0.286-0.118-0.558-0.198-0.798-0.336c-2.565-1.473-5.133-2.944-7.687-4.439c-2.138-1.253-2.792-3.351-1.676-5.264
		c1.147-1.963,3.499-2.557,5.59-1.368C104.946,90.14,107.684,91.743,110.513,93.379z"/>
	<path fill-rule="evenodd" clip-rule="evenodd" fill="#FFFFFF" d="M189.913,93.199c3.02-1.742,5.914-3.531,8.92-5.104
		c1.801-0.941,4.1,0.066,4.996,1.896c0.9,1.831,0.264,3.901-1.582,4.984c-2.777,1.629-5.578,3.223-8.508,4.912
		C192.479,97.686,191.228,95.498,189.913,93.199z"/>
	<path fill-rule="evenodd" clip-rule="evenodd" fill="#FFFFFF" d="M122.743,81.001c-1.721-3.059-3.449-6.025-5.061-9.051
		c-0.783-1.469-0.236-3.307,1.082-4.392c1.313-1.082,3.144-1.155,4.512-0.11c0.46,0.352,0.891,0.802,1.188,1.296
		c1.656,2.751,3.268,5.532,4.97,8.43C127.208,78.447,125.019,79.7,122.743,81.001z"/>
	<path fill-rule="evenodd" clip-rule="evenodd" fill="#FFFFFF" d="M186.114,121.191c-0.002-1.629-0.033-3.269-0.223-4.884
		c-1.145-9.786-5.58-17.829-13.264-23.941c-7.449-5.925-16.02-8.513-25.545-7.663c-8.806,0.787-16.346,4.378-22.486,10.702
		c-6.912,7.119-10.19,15.749-10.161,25.671c0.033,11.87,0.008,23.741,0.008,35.613c0,0.394,0,0.787,0,1.224
		c23.94,0,47.741,0,71.682,0c0-0.558,0-1.001,0-1.442C186.126,144.711,186.134,132.951,186.114,121.191z M144.949,127.041
		c-0.257,11.113-9.62,18.434-18.423,18.174c0-12.322,0-24.647,0-37.054C136.608,107.89,145.188,116.726,144.949,127.041z
		 M173.798,145.109c-6.604-0.178-11.842-2.885-15.367-8.35c-4.186-6.494-4.293-13.309-0.242-19.921
		c3.512-5.726,8.855-8.48,15.609-8.772C173.798,120.459,173.798,132.714,173.798,145.109z"/>
</g>
</svg>
