<?xml version="1.0" encoding="utf-8"?>
<!-- Generator: Adobe Illustrator 16.0.0, SVG Export Plug-In . SVG Version: 6.00 Build 0)  -->
<!DOCTYPE svg PUBLIC "-//W3C//DTD SVG 1.1//EN" "http://www.w3.org/Graphics/SVG/1.1/DTD/svg11.dtd">
<svg version="1.1" id="Layer_1" xmlns="http://www.w3.org/2000/svg" xmlns:xlink="http://www.w3.org/1999/xlink" x="0px" y="0px"
	 width="300px" height="300px" viewBox="0 0 300 300" enable-background="new 0 0 300 300" xml:space="preserve">
<ellipse fill="#06788B" cx="150.09" cy="148.142" rx="146.586" ry="146.645"/>
<g>
	<path fill="#FFFFFF" d="M245,235.96h4.723l-6.895-9.89l6.398-8.595h-4.582l-5.066,7.554h-1.041v-7.554h-3.707v18.484h3.707v-7.719
		h1.359L245,235.96z M228.559,229.841c0,1.202-0.272,2.093-0.818,2.673c-0.546,0.579-1.373,0.869-2.482,0.869
		c-1.168,0-2.08-0.449-2.735-1.346s-0.983-2.057-0.983-3.479v-3.694c0-1.413,0.311-2.566,0.933-3.46
		c0.622-0.893,1.487-1.339,2.597-1.339c1.193,0,2.075,0.29,2.646,0.87c0.571,0.579,0.857,1.461,0.857,2.646h3.605l0.025-0.076
		c0.033-1.998-0.584-3.547-1.854-4.646s-3.03-1.65-5.281-1.65c-2.158,0-3.902,0.717-5.23,2.152
		c-1.329,1.434-1.994,3.277-1.994,5.528v3.669c0,2.26,0.682,4.103,2.045,5.529c1.362,1.426,3.152,2.139,5.369,2.139
		c2.176,0,3.881-0.559,5.117-1.676c1.235-1.117,1.836-2.662,1.803-4.634l-0.025-0.076H228.559z M208.5,222.554h0.076l2.045,6.513
		h-4.178L208.5,222.554z M212.779,235.96h3.871l-6.207-18.484h-3.797l-6.232,18.484h3.871l1.244-3.986h5.992L212.779,235.96z
		 M189.025,220.332h2.35c1.066,0,1.867,0.203,2.405,0.609s0.806,1.037,0.806,1.892c0,0.778-0.266,1.371-0.799,1.777
		s-1.295,0.609-2.285,0.609h-2.477V220.332z M192.428,227.784c1.024,0,1.791,0.241,2.299,0.724s0.762,1.172,0.762,2.069
		c0,0.838-0.259,1.471-0.775,1.897c-0.516,0.428-1.265,0.642-2.246,0.642h-3.441v-5.332H192.428z M192.467,235.96
		c2.141,0,3.795-0.455,4.963-1.364c1.168-0.91,1.752-2.25,1.752-4.019c0-1.05-0.291-1.968-0.875-2.755s-1.452-1.287-2.604-1.498
		c0.847-0.338,1.49-0.842,1.93-1.511c0.44-0.669,0.66-1.427,0.66-2.272c0-1.676-0.609-2.939-1.828-3.789
		c-1.219-0.852-2.915-1.276-5.09-1.276h-6.057v18.484H192.467z M174.566,220.332c1.219,0,2.2,0.453,2.945,1.358
		c0.744,0.905,1.117,2.065,1.117,3.479v3.085c0,1.422-0.373,2.588-1.117,3.498c-0.745,0.909-1.727,1.364-2.945,1.364h-2.742v-12.784
		H174.566z M174.566,235.96c2.26,0,4.121-0.718,5.586-2.151c1.464-1.436,2.195-3.287,2.195-5.555v-3.06
		c0-2.26-0.731-4.111-2.195-5.554c-1.465-1.443-3.326-2.165-5.586-2.165h-6.449v18.484H174.566z M164.219,224.979h-6.855v-4.646
		h8.125v-2.856h-11.832v18.484h11.857v-2.844h-8.15v-5.281h6.855V224.979z M149.759,224.979h-6.855v-4.646h8.125v-2.856h-11.833
		v18.484h11.858v-2.844h-8.151v-5.281h6.855V224.979z M135.541,225.423h-7.097v-5.091h8.392v-2.856h-12.099v18.484h3.707v-7.681
		h7.097V225.423z M107.509,220.332c1.219,0,2.201,0.453,2.945,1.358s1.117,2.065,1.117,3.479v3.085c0,1.422-0.373,2.588-1.117,3.498
		c-0.745,0.909-1.727,1.364-2.945,1.364h-2.742v-12.784H107.509z M107.509,235.96c2.26,0,4.122-0.718,5.586-2.151
		c1.464-1.436,2.196-3.287,2.196-5.555v-3.06c0-2.26-0.732-4.111-2.196-5.554c-1.464-1.443-3.326-2.165-5.586-2.165h-6.449v18.484
		H107.509z M97.658,217.476h-3.707v12.441l-0.076,0.013l-7.452-12.454h-3.707v18.484h3.707v-12.454l0.076-0.013l7.452,12.467h3.707
		V217.476z M78.818,224.979h-6.855v-4.646h8.125v-2.856H68.255v18.484h11.857v-2.844h-8.15v-5.281h6.855V224.979z M61.038,232.799
		c-0.521,0.414-1.276,0.622-2.266,0.622c-1.1,0-1.972-0.259-2.615-0.774s-0.965-1.32-0.965-2.412h-3.593l-0.025,0.076
		c-0.042,1.963,0.649,3.44,2.076,4.431s3.134,1.485,5.123,1.485c2.031,0,3.665-0.457,4.9-1.371s1.854-2.162,1.854-3.745
		c0-1.515-0.533-2.735-1.6-3.663c-1.066-0.926-2.615-1.678-4.646-2.253c-1.329-0.448-2.264-0.874-2.806-1.276
		c-0.542-0.401-0.813-0.916-0.813-1.542c0-0.686,0.25-1.249,0.749-1.688s1.206-0.66,2.12-0.66c1.007,0,1.79,0.248,2.349,0.742
		c0.559,0.496,0.838,1.205,0.838,2.127h3.593l0.025-0.076c0.042-1.676-0.561-3.029-1.809-4.063s-2.896-1.549-4.945-1.549
		c-1.93,0-3.517,0.48-4.761,1.441c-1.244,0.96-1.866,2.197-1.866,3.713c0,1.506,0.552,2.695,1.657,3.567s2.723,1.63,4.856,2.272
		c1.244,0.381,2.114,0.787,2.609,1.219s0.743,1.003,0.743,1.714C61.819,231.83,61.559,232.385,61.038,232.799z"/>
</g>
<path fill-rule="evenodd" clip-rule="evenodd" fill="#FFFFFF" d="M214.302,91.008c0.004-6.043-2.445-10.714-7.646-13.855
	c-1.818-1.099-3.823-1.707-5.935-1.991H99.456c-3.349,0.458-6.324,1.734-8.789,4.079c-3.064,2.916-4.754,6.491-4.762,10.735
	c-0.031,17.814-0.045,35.629,0.002,53.442c0.021,8.217,6.747,14.752,15.085,14.817c2.472,0.02,4.944,0.002,7.545,0.002
	c0,0.471,0,0.855,0,1.238c0,8.262,0.013,16.525-0.011,24.787c-0.005,1.805,0.653,3.172,2.332,3.887
	c1.646,0.703,3.077,0.211,4.352-0.977c10.153-9.453,20.311-18.9,30.495-28.318c0.399-0.371,1.099-0.59,1.659-0.592
	c17.186-0.029,34.372-0.02,51.559-0.025c6.824-0.002,12.545-4.02,14.563-10.418c0.545-1.73,0.772-3.628,0.777-5.451
	C214.32,125.249,214.289,108.128,214.302,91.008z M111.812,97.906c0.49-0.055,0.988-0.071,1.482-0.071
	c9.746-0.005,19.492-0.003,29.238-0.004c9.747,0,19.493-0.006,29.238,0.011c0.751,0.002,1.533,0.054,2.242,0.271
	c1.548,0.477,2.583,2.102,2.469,3.671c-0.129,1.757-1.33,3.159-3.009,3.468c-0.483,0.09-0.983,0.133-1.476,0.133
	c-19.658,0.006-39.315,0.006-58.974,0.002c-2.368,0-3.815-0.963-4.329-2.848C108.106,100.384,109.598,98.16,111.812,97.906z
	 M144.771,134.761c-0.655,0.429-1.514,0.768-2.281,0.771c-10.037,0.052-20.074,0.046-30.111,0.027
	c-2.174-0.004-3.804-1.652-3.813-3.732c-0.01-2.116,1.647-3.756,3.878-3.764c5.019-0.018,10.037-0.006,15.056-0.006
	c4.985,0,9.971-0.009,14.956,0.006c1.741,0.006,3.078,0.988,3.607,2.566C146.573,132.154,146.111,133.88,144.771,134.761z
	 M191.132,118.468c-0.742,1.389-1.967,1.99-3.509,1.99c-4.789,0.004-9.579,0.002-14.369,0.002c-20.149,0-40.3-0.005-60.45,0.008
	c-1.528,0.001-2.811-0.434-3.653-1.758c-1.549-2.429,0.087-5.583,2.979-5.725c1.351-0.066,2.708-0.025,4.062-0.027
	c11.298,0,22.596,0,33.893,0c12.422,0,24.842,0.01,37.263-0.011c1.535-0.003,2.806,0.433,3.646,1.755
	C191.763,115.912,191.809,117.201,191.132,118.468z"/>
</svg>
