<?xml version="1.0" encoding="utf-8"?>
<!-- Generator: Adobe Illustrator 16.0.0, SVG Export Plug-In . SVG Version: 6.00 Build 0)  -->
<!DOCTYPE svg PUBLIC "-//W3C//DTD SVG 1.1//EN" "http://www.w3.org/Graphics/SVG/1.1/DTD/svg11.dtd">
<svg version="1.1" id="Layer_1" xmlns="http://www.w3.org/2000/svg" xmlns:xlink="http://www.w3.org/1999/xlink" x="0px" y="0px"
	 width="716.749px" height="185.17px" viewBox="0 0 716.749 185.17" enable-background="new 0 0 716.749 185.17"
	 xml:space="preserve">
<rect fill="#128CA6" width="418.202" height="185.17"/>
<path fill="#FFFFFF" d="M391.533,26.416h-32.79c-2.908,0-5.372,1.074-7.393,3.223c-2.023,2.151-3.032,4.738-3.032,7.771v36.392
	l34.875,24.641v37.908c0,1.015-0.351,1.896-1.042,2.653c-0.698,0.758-1.485,1.137-2.369,1.137h-9.478
	c-0.885,0-1.678-0.379-2.369-1.137c-0.698-0.758-1.042-1.639-1.042-2.653v-26.915h-18.575v38.477c0,3.033,0.978,5.658,2.938,7.866
	c1.957,2.211,4.39,3.316,7.298,3.316h33.169c2.906,0,5.308-1.07,7.203-3.222c1.895-2.148,2.843-4.738,2.843-7.771V88.585
	l-34.875-23.692V49.161c0-1.011,0.344-1.896,1.042-2.653c0.691-0.759,1.484-1.138,2.369-1.138h9.478
	c0.884,0,1.671,0.379,2.369,1.138c0.691,0.758,1.042,1.643,1.042,2.653v7.961h18.575V37.788c0-3.032-0.983-5.686-2.938-7.96
	C396.869,27.554,394.439,26.416,391.533,26.416z"/>
<path fill="#FFFFFF" d="M320.646,136.35c0,1.015-0.317,1.896-0.948,2.653c-0.633,0.758-1.391,1.137-2.273,1.137h-10.235
	c-1.896,0-2.844-1.26-2.844-3.79V26.416H285.77v121.495c0,3.033,0.979,5.658,2.938,7.866c1.957,2.211,4.39,3.316,7.298,3.316h32.979
	c2.904,0,5.337-1.07,7.297-3.222c1.957-2.148,2.938-4.738,2.938-7.771V26.416h-18.575V136.35z"/>
<path fill="#FFFFFF" d="M128.642,26.416h-32.98c-2.908,0-5.34,1.109-7.297,3.317c-1.96,2.211-2.938,4.833-2.938,7.865v110.502
	c0,3.033,0.978,5.623,2.938,7.771c1.957,2.151,4.39,3.222,7.297,3.222l33.169,0.19c2.904,0,5.308-1.138,7.202-3.412
	c1.896-2.274,2.844-4.928,2.844-7.961v-42.268h-18.575v30.706c0,2.53-0.948,3.79-2.843,3.79h-10.425c-2.023,0-3.033-1.26-3.033-3.79
	V49.161c0-2.527,1.01-3.791,3.033-3.791h10.425c1.895,0,2.843,1.264,2.843,3.791v20.28h18.575V37.409
	c0-3.032-0.981-5.619-2.938-7.771C133.979,27.49,131.546,26.416,128.642,26.416z"/>
<path fill="#FFFFFF" d="M274.208,88.206V37.409c0-3.032-0.981-5.619-2.938-7.771c-1.96-2.148-4.394-3.223-7.298-3.223h-43.215
	v132.678h18.575v-45.11l4.359-3.601l13.646,48.711h20.092l-17.817-59.325L274.208,88.206z M255.633,81.193l-16.3,12.699V45.37
	h12.889c0.883,0,1.673,0.379,2.369,1.138c0.693,0.758,1.042,1.643,1.042,2.653V81.193z"/>
<path fill="#FFFFFF" d="M171.856,26.416l-23.313,132.678h18.196l3.222-20.849h19.902l3.032,20.849h18.575L189.484,26.416H171.856z
	 M173.184,118.912l7.202-45.869l6.634,45.869H173.184z"/>
<rect x="418.202" fill="#F1F2F2" width="298.547" height="185.17"/>
<g>
	<g>
		<polygon fill="#128CA6" points="470.824,140.235 454.523,140.235 454.523,26.511 435.949,26.511 435.949,159.188 489.399,159.188 
			489.399,125.071 470.824,125.071 		"/>
		<path fill="#128CA6" d="M522,26.511l-23.313,132.678h18.196l3.222-20.849h19.901l3.033,20.849h18.575L539.627,26.511H522z
			 M523.327,119.007l7.202-45.869l6.634,45.869H523.327z"/>
		<path fill="#128CA6" d="M614.306,26.511h-43.215v132.678h43.215c2.906,0,5.339-1.07,7.301-3.222
			c1.955-2.148,2.935-4.738,2.935-7.771V97.778c0-1.517-0.85-2.871-2.555-4.075c-1.706-1.2-3.447-2.054-5.217-2.56l-2.653-0.758
			c0.759-0.253,1.706-0.568,2.843-0.947c1.138-0.379,2.686-1.232,4.647-2.559c1.955-1.327,2.935-2.749,2.935-4.266V39.21
			c0-3.411-0.947-6.377-2.843-8.908C619.803,27.774,617.339,26.511,614.306,26.511z M605.967,136.444
			c0,2.53-1.012,3.791-3.033,3.791h-13.268v-33.549l7.202-6.255c6.065,1.643,9.099,3.98,9.099,7.013V136.444z M605.967,72.19
			L589.666,84.7V45.465h13.078c2.148,0,3.223,1.643,3.223,4.929V72.19z"/>
		<path fill="#128CA6" d="M676.854,26.511h-32.791c-2.906,0-5.37,1.074-7.392,3.223c-2.021,2.151-3.033,4.738-3.033,7.771v36.392
			l34.876,24.641v37.908c0,1.014-0.348,1.896-1.039,2.653c-0.698,0.758-1.488,1.138-2.373,1.138h-9.477
			c-0.885,0-1.675-0.38-2.366-1.138c-0.698-0.758-1.046-1.64-1.046-2.653v-26.915h-18.575v38.477c0,3.033,0.979,5.658,2.941,7.866
			c1.955,2.211,4.388,3.316,7.294,3.316h33.17c2.906,0,5.307-1.07,7.202-3.222c1.896-2.148,2.844-4.738,2.844-7.771V88.68
			l-34.876-23.692V49.256c0-1.011,0.348-1.896,1.046-2.653c0.691-0.759,1.481-1.138,2.366-1.138h9.477
			c0.885,0,1.675,0.379,2.373,1.138c0.691,0.758,1.039,1.643,1.039,2.653v7.961h18.575V37.884c0-3.033-0.979-5.687-2.935-7.961
			C682.193,27.648,679.761,26.511,676.854,26.511z"/>
	</g>
</g>
<g>
	<path fill="#FFFFFF" d="M77.023,28.23c0,0-21.664,4.381-22.761,52.043c0,0,1.097,31.579,3.291,40.348
		c0,0,3.566,20.176,1.095,27.781c0,0,11.794-9.065,11.519-37.427l1.097-61.99C71.264,48.985,71.541,35.978,77.023,28.23z"/>
	<path fill="#FFFFFF" d="M52.436,54.932c0,0-16.634,13.061-15.904,46.784l-0.023,8.575c0,0,0.114,9.165,2.949,17.547
		c0,0,5.94,17.543,1.553,19.979c0,0,7.496,7.213,14.349-2.05c0,0,2.559-7.013-1.097-21.242c0,0-4.203-18.522-4.386-38.793
		C49.877,85.731,50.974,57.662,52.436,54.932z"/>
	<path fill="#FFFFFF" d="M32.741,96.062c0,0,0.96,25.876,2.88,32.166c0,0-7.543-4.392-8.366-19.158
		C27.255,109.069,26.983,103.517,32.741,96.062z"/>
	<path fill="#FFFFFF" d="M36.509,132.755c0,0-8.841,18.28,9.117,22.809c0,0,6.444,2.432,11.927-5.072c0,0-2.055,9.895-13.707,9.895
		c0,0-13.575-2.629-13.575-13.815C30.272,146.57,29.586,137.434,36.509,132.755z"/>
</g>
</svg>
