<?xml version="1.0" encoding="utf-8"?>
<!-- Generator: Adobe Illustrator 16.0.0, SVG Export Plug-In . SVG Version: 6.00 Build 0)  -->
<!DOCTYPE svg PUBLIC "-//W3C//DTD SVG 1.1//EN" "http://www.w3.org/Graphics/SVG/1.1/DTD/svg11.dtd">
<svg version="1.1" id="Layer_1" xmlns="http://www.w3.org/2000/svg" xmlns:xlink="http://www.w3.org/1999/xlink" x="0px" y="0px"
	 width="300px" height="300px" viewBox="0 0 300 300" enable-background="new 0 0 300 300" xml:space="preserve">
<g>
	<circle fill="#06788B" cx="149.877" cy="149.337" r="146.646"/>
	<path fill="#FFFFFF" d="M215.243,118.949l-13.062-37.324l-0.083-0.22c-0.963-2.355-2.24-4.324-3.707-5.892
		c-1.098-1.175-2.294-2.123-3.506-2.861c-1.818-1.111-3.654-1.759-5.302-2.131c-1.648-0.372-3.119-0.472-4.279-0.473
		c-0.982,0.001-1.738,0.073-2.204,0.133h-30.277h-8.123h-30.277c-0.468-0.06-1.224-0.131-2.205-0.133
		c-1.031,0.001-2.306,0.081-3.737,0.358c-2.138,0.416-4.657,1.292-7.047,3.056c-1.192,0.878-2.341,1.977-3.364,3.303
		c-1.025,1.325-1.922,2.875-2.645,4.641l-0.083,0.22l-13.063,37.324c-0.167,0.477-0.255,0.998-0.255,1.503v63.917
		c0,1.198,0.485,2.37,1.333,3.218c0.846,0.846,2.018,1.331,3.216,1.331h12.13c1.198,0,2.37-0.485,3.217-1.331
		c0.847-0.848,1.332-2.02,1.332-3.218v-7.114h41.449h8.123h41.449v7.114c0,1.198,0.485,2.37,1.331,3.218
		c0.847,0.846,2.019,1.331,3.218,1.331h12.13c1.197,0,2.369-0.485,3.218-1.331c0.846-0.848,1.331-2.02,1.331-3.218v-63.917
		C215.5,119.946,215.411,119.425,215.243,118.949z M107.8,151.877c-6.183,0-11.197-5.014-11.197-11.197
		c0-6.185,5.014-11.198,11.197-11.198c6.185,0,11.197,5.014,11.197,11.198C118.998,146.863,113.985,151.877,107.8,151.877z
		 M96.37,113.919l11.664-33.124h80.714l11.664,33.124H96.37z M189.547,151.877c-6.186,0-11.197-5.014-11.197-11.197
		c0-6.185,5.012-11.198,11.197-11.198c6.184,0,11.197,5.014,11.197,11.198C200.744,146.863,195.73,151.877,189.547,151.877z"/>
	<path fill="#FFFFFF" d="M229.566,222.435h0.076l2.046,6.521h-4.182L229.566,222.435z M233.85,235.857h3.877l-6.216-18.507h-3.801
		l-6.241,18.507h3.877l1.246-3.991h5.999L233.85,235.857z M219.041,224.862h-6.863v-4.652h8.135v-2.859h-11.847v18.507h11.872
		v-2.848h-8.16v-5.287h6.863V224.862z M195.59,220.21h2.694c0.991,0,1.743,0.25,2.257,0.75c0.512,0.5,0.769,1.174,0.769,2.021
		c0,0.864-0.254,1.517-0.763,1.957c-0.509,0.441-1.284,0.661-2.326,0.661h-2.631V220.21z M198.539,228.46
		c0.923,0,1.637,0.256,2.142,0.769c0.504,0.513,0.756,1.231,0.756,2.154v1.31c0,0.585,0.049,1.19,0.146,1.817
		c0.098,0.628,0.315,1.076,0.654,1.348h3.826v-0.267c-0.339-0.271-0.578-0.688-0.718-1.252c-0.141-0.563-0.21-1.104-0.21-1.621
		v-1.36c0-1.109-0.239-2.042-0.719-2.796c-0.479-0.754-1.265-1.292-2.357-1.614c0.966-0.424,1.701-0.981,2.205-1.672
		s0.757-1.511,0.757-2.459c0-1.721-0.596-3.062-1.786-4.023s-2.841-1.442-4.951-1.442h-6.406v18.507h3.712v-7.397H198.539z
		 M181.938,222.435h0.076l2.046,6.521h-4.182L181.938,222.435z M186.222,235.857h3.877l-6.216-18.507h-3.801l-6.241,18.507h3.877
		l1.246-3.991h5.999L186.222,235.857z M165.681,226.185h-7.283v2.567h3.559v3.585c-0.279,0.271-0.676,0.495-1.188,0.673
		c-0.513,0.179-1.209,0.268-2.091,0.268c-1.194,0-2.148-0.44-2.859-1.322c-0.712-0.881-1.068-2.021-1.068-3.419v-3.89
		c0-1.381,0.348-2.511,1.043-3.388c0.694-0.877,1.609-1.315,2.745-1.315c1.085,0,1.911,0.273,2.479,0.819
		c0.567,0.547,0.852,1.312,0.852,2.295h3.496l0.025-0.076c0.042-1.788-0.538-3.218-1.742-4.29c-1.203-1.072-2.936-1.608-5.198-1.608
		c-2.17,0-3.945,0.706-5.326,2.116c-1.382,1.411-2.071,3.235-2.071,5.473v3.864c0,2.245,0.711,4.071,2.135,5.479
		c1.424,1.406,3.254,2.109,5.491,2.109c1.805,0,3.279-0.277,4.424-0.832c1.144-0.555,2.004-1.21,2.58-1.964V226.185z
		 M148.089,217.351h-3.711v12.456l-0.077,0.013l-7.461-12.469h-3.712v18.507h3.712v-12.47l0.076-0.013l7.461,12.482h3.711V217.351z
		 M129.455,217.351h-3.711v18.507h3.711V217.351z M119.083,235.857h4.729l-6.902-9.901l6.407-8.605h-4.589l-5.072,7.563h-1.042
		v-7.563h-3.712v18.507h3.712v-7.729h1.36L119.083,235.857z M96.025,220.21h2.694c0.992,0,1.744,0.25,2.256,0.75
		s0.769,1.174,0.769,2.021c0,0.864-0.254,1.517-0.763,1.957c-0.508,0.441-1.284,0.661-2.326,0.661h-2.631V220.21z M98.974,228.46
		c0.923,0,1.638,0.256,2.142,0.769c0.504,0.513,0.756,1.231,0.756,2.154v1.31c0,0.585,0.049,1.19,0.146,1.817
		c0.097,0.628,0.315,1.076,0.654,1.348h3.826v-0.267c-0.339-0.271-0.578-0.688-0.718-1.252c-0.14-0.563-0.209-1.104-0.209-1.621
		v-1.36c0-1.109-0.24-2.042-0.718-2.796c-0.479-0.754-1.265-1.292-2.358-1.614c0.966-0.424,1.701-0.981,2.206-1.672
		c0.504-0.69,0.756-1.511,0.756-2.459c0-1.721-0.595-3.062-1.786-4.023c-1.191-0.962-2.841-1.442-4.951-1.442h-6.406v18.507h3.712
		v-7.397H98.974z M82.373,222.435h0.076l2.046,6.521h-4.182L82.373,222.435z M86.657,235.857h3.877l-6.216-18.507h-3.801
		l-6.241,18.507h3.876l1.246-3.991h6L86.657,235.857z M65.137,220.21h3.368c1.042,0,1.828,0.291,2.358,0.871
		s0.794,1.315,0.794,2.205c0,0.873-0.267,1.591-0.801,2.154c-0.534,0.564-1.318,0.846-2.352,0.846h-3.368V220.21z M68.505,229.146
		c2.127,0,3.801-0.538,5.021-1.615c1.22-1.075,1.83-2.499,1.83-4.271c0-1.771-0.61-3.198-1.83-4.283s-2.894-1.627-5.021-1.627h-7.08
		v18.507h3.712v-6.711H68.505z"/>
</g>
</svg>
