<?xml version="1.0" encoding="utf-8"?>
<!-- Generator: Adobe Illustrator 16.0.0, SVG Export Plug-In . SVG Version: 6.00 Build 0)  -->
<!DOCTYPE svg PUBLIC "-//W3C//DTD SVG 1.1//EN" "http://www.w3.org/Graphics/SVG/1.1/DTD/svg11.dtd">
<svg version="1.1" id="Layer_1" xmlns="http://www.w3.org/2000/svg" xmlns:xlink="http://www.w3.org/1999/xlink" x="0px" y="0px"
	 width="300px" height="300px" viewBox="0 0 300 300" enable-background="new 0 0 300 300" xml:space="preserve">
<ellipse fill="#06788B" cx="150.09" cy="148.142" rx="146.586" ry="146.645"/>
<g>
	<path fill="#FFFFFF" d="M183.189,232.799c-0.52,0.414-1.275,0.622-2.266,0.622c-1.1,0-1.973-0.259-2.615-0.774
		s-0.965-1.32-0.965-2.412h-3.593l-0.025,0.076c-0.042,1.963,0.649,3.44,2.075,4.431c1.427,0.99,3.135,1.485,5.123,1.485
		c2.031,0,3.664-0.457,4.9-1.371s1.854-2.162,1.854-3.745c0-1.515-0.533-2.735-1.6-3.663c-1.066-0.926-2.615-1.678-4.646-2.253
		c-1.328-0.448-2.264-0.874-2.806-1.276c-0.542-0.401-0.813-0.916-0.813-1.542c0-0.686,0.249-1.249,0.749-1.688
		s1.206-0.66,2.12-0.66c1.007,0,1.79,0.248,2.349,0.742c0.559,0.496,0.838,1.205,0.838,2.127h3.593l0.025-0.076
		c0.042-1.676-0.561-3.029-1.81-4.063c-1.248-1.033-2.896-1.549-4.944-1.549c-1.93,0-3.517,0.48-4.761,1.441
		c-1.244,0.96-1.866,2.197-1.866,3.713c0,1.506,0.552,2.695,1.657,3.567c1.104,0.872,2.723,1.63,4.855,2.272
		c1.244,0.381,2.113,0.787,2.609,1.219c0.494,0.432,0.742,1.003,0.742,1.714C183.971,231.83,183.711,232.385,183.189,232.799z
		 M170.438,224.979h-6.855v-4.646h8.125v-2.856h-11.832v18.484h11.857v-2.844h-8.15v-5.281h6.855V224.979z M149.135,217.476h-3.707
		v18.484h11.984v-2.844h-8.277V217.476z M138.496,217.476v12.099c0,1.236-0.334,2.18-1.003,2.831s-1.574,0.978-2.717,0.978
		c-1.125,0-2.019-0.326-2.679-0.978s-0.99-1.595-0.99-2.831v-12.099h-3.72v12.099c0,2.082,0.684,3.711,2.05,4.888
		s3.146,1.765,5.338,1.765c2.201,0,3.991-0.588,5.37-1.765s2.069-2.806,2.069-4.888v-12.099H138.496z M114.705,220.332h2.691
		c0.99,0,1.741,0.25,2.253,0.749s0.768,1.173,0.768,2.019c0,0.863-0.254,1.516-0.762,1.955s-1.282,0.66-2.323,0.66h-2.628V220.332z
		 M117.65,228.571c0.922,0,1.636,0.256,2.139,0.769c0.503,0.512,0.755,1.229,0.755,2.151v1.308c0,0.584,0.049,1.189,0.146,1.815
		s0.315,1.075,0.654,1.346h3.821v-0.267c-0.338-0.271-0.578-0.688-0.717-1.25c-0.14-0.563-0.209-1.104-0.209-1.619v-1.358
		c0-1.108-0.239-2.04-0.717-2.793s-1.263-1.29-2.355-1.612c0.965-0.424,1.699-0.979,2.203-1.67c0.503-0.689,0.755-1.508,0.755-2.456
		c0-1.718-0.595-3.058-1.784-4.019c-1.189-0.96-2.837-1.44-4.945-1.44h-6.398v18.484h3.707v-7.389H117.65z"/>
</g>
<g>
	<path fill="#FFFFFF" d="M169.141,179.287H97.115V79.128h99.226v78.096c0,1.74,1.411,3.152,3.151,3.152
		c1.741,0,3.152-1.412,3.152-3.152V75.977c0-0.83-0.337-1.642-0.924-2.229s-1.398-0.923-2.229-0.923H93.963
		c-0.83,0-1.642,0.336-2.229,0.923s-0.923,1.399-0.923,2.229v106.463c0,0.828,0.336,1.641,0.923,2.229
		c0.587,0.586,1.399,0.924,2.229,0.924h75.177c1.741,0,3.152-1.412,3.152-3.152C172.293,180.697,170.882,179.287,169.141,179.287z"
		/>
	<path fill="#FFFFFF" d="M114.042,102.008h67.24c1.739,0,3.151-1.411,3.151-3.152s-1.412-3.152-3.151-3.152h-67.24
		c-1.741,0-3.152,1.411-3.152,3.152S112.301,102.008,114.042,102.008"/>
	<path fill="#FFFFFF" d="M114.042,118.351h67.24c1.739,0,3.151-1.411,3.151-3.152s-1.412-3.152-3.151-3.152h-67.24
		c-1.741,0-3.152,1.411-3.152,3.152S112.301,118.351,114.042,118.351"/>
	<path fill="#FFFFFF" d="M114.042,133.993h67.24c1.739,0,3.151-1.411,3.151-3.151c0-1.741-1.412-3.152-3.151-3.152h-67.24
		c-1.741,0-3.152,1.411-3.152,3.152C110.891,132.582,112.301,133.993,114.042,133.993"/>
	<path fill="#FFFFFF" d="M114.042,149.169h67.24c1.739,0,3.151-1.412,3.151-3.152c0-1.741-1.412-3.152-3.151-3.152h-67.24
		c-1.741,0-3.152,1.411-3.152,3.152C110.891,147.758,112.301,149.169,114.042,149.169"/>
	<path fill="#FFFFFF" d="M114.042,163.645h33.62c1.74,0,3.152-1.41,3.152-3.152c0-1.74-1.412-3.15-3.152-3.15h-33.62
		c-1.741,0-3.152,1.41-3.152,3.15C110.891,162.234,112.301,163.645,114.042,163.645"/>
	<path fill="#FFFFFF" d="M170.736,166.387l9.806,18.209c0.601,1.117,1.656,1.941,2.885,2.256c1.229,0.311,2.55,0.092,3.611-0.6
		l44.359-28.951c2.105-1.373,2.699-4.195,1.324-6.301c-1.374-2.106-4.194-2.698-6.301-1.325L186.21,175.92l-7.457-13.85
		c-1.192-2.213-3.953-3.043-6.167-1.85C170.372,161.412,169.544,164.172,170.736,166.387z"/>
</g>
</svg>
