<?xml version="1.0" encoding="utf-8"?>
<!-- Generator: Adobe Illustrator 16.0.0, SVG Export Plug-In . SVG Version: 6.00 Build 0)  -->
<!DOCTYPE svg PUBLIC "-//W3C//DTD SVG 1.1//EN" "http://www.w3.org/Graphics/SVG/1.1/DTD/svg11.dtd">
<svg version="1.1" id="Layer_1" xmlns="http://www.w3.org/2000/svg" xmlns:xlink="http://www.w3.org/1999/xlink" x="0px" y="0px"
	 width="300px" height="300px" viewBox="0 0 300 300" enable-background="new 0 0 300 300" xml:space="preserve">
<circle fill="#06788B" cx="150.648" cy="148.142" r="146.645"/>
<g>
	<path fill="#FFFFFF" d="M204.541,232.728c-0.521,0.415-1.276,0.622-2.267,0.622c-1.101,0-1.972-0.258-2.615-0.774
		s-0.965-1.32-0.965-2.412h-3.593l-0.025,0.076c-0.042,1.964,0.649,3.44,2.076,4.431c1.426,0.99,3.133,1.485,5.122,1.485
		c2.031,0,3.665-0.457,4.9-1.371s1.854-2.163,1.854-3.745c0-1.516-0.533-2.736-1.6-3.662c-1.066-0.928-2.615-1.678-4.646-2.254
		c-1.329-0.449-2.264-0.874-2.806-1.275c-0.542-0.402-0.813-0.916-0.813-1.543c0-0.686,0.25-1.248,0.749-1.688s1.206-0.66,2.12-0.66
		c1.007,0,1.79,0.247,2.349,0.743c0.559,0.494,0.838,1.203,0.838,2.126h3.593l0.025-0.076c0.042-1.676-0.561-3.03-1.809-4.063
		c-1.249-1.032-2.897-1.549-4.945-1.549c-1.93,0-3.517,0.48-4.761,1.44c-1.244,0.961-1.866,2.199-1.866,3.714
		c0,1.507,0.553,2.696,1.656,3.567c1.105,0.871,2.724,1.629,4.856,2.272c1.244,0.381,2.114,0.787,2.608,1.219
		c0.496,0.432,0.743,1.003,0.743,1.714C205.321,231.758,205.061,232.313,204.541,232.728z M192.537,226.228h-7.274v2.564h3.555v3.58
		c-0.279,0.271-0.675,0.495-1.187,0.673c-0.513,0.178-1.209,0.267-2.089,0.267c-1.193,0-2.146-0.44-2.856-1.32
		s-1.066-2.019-1.066-3.415v-3.885c0-1.379,0.347-2.508,1.041-3.383c0.694-0.877,1.608-1.314,2.742-1.314
		c1.083,0,1.908,0.273,2.476,0.818c0.567,0.547,0.851,1.311,0.851,2.292h3.491l0.025-0.076c0.042-1.786-0.537-3.214-1.739-4.284
		c-1.202-1.071-2.933-1.606-5.192-1.606c-2.167,0-3.939,0.704-5.319,2.114c-1.38,1.408-2.069,3.23-2.069,5.465v3.859
		c0,2.242,0.711,4.066,2.133,5.472s3.25,2.107,5.484,2.107c1.803,0,3.275-0.277,4.418-0.831c1.143-0.555,2.002-1.209,2.577-1.962
		V226.228z M174.967,217.404h-3.707v12.441l-0.076,0.013l-7.452-12.454h-3.707v18.484h3.707v-12.454l0.076-0.013l7.452,12.467h3.707
		V217.404z M156.355,217.404h-3.707v18.484h3.707V217.404z M150.363,217.404h-14.194v2.856h5.205v15.628h3.707v-15.628h5.282
		V217.404z M135.243,217.404h-14.193v2.856h5.205v15.628h3.707v-15.628h5.281V217.404z M118.459,224.907h-6.855v-4.646h8.125v-2.856
		h-11.832v18.484h11.857v-2.844h-8.15v-5.281h6.855V224.907z M100.68,232.728c-0.521,0.415-1.276,0.622-2.266,0.622
		c-1.1,0-1.972-0.258-2.615-0.774s-0.965-1.32-0.965-2.412h-3.593l-0.025,0.076c-0.042,1.964,0.649,3.44,2.076,4.431
		s3.134,1.485,5.123,1.485c2.031,0,3.665-0.457,4.9-1.371s1.854-2.163,1.854-3.745c0-1.516-0.533-2.736-1.6-3.662
		c-1.066-0.928-2.615-1.678-4.646-2.254c-1.329-0.449-2.264-0.874-2.806-1.275c-0.542-0.402-0.813-0.916-0.813-1.543
		c0-0.686,0.25-1.248,0.749-1.688s1.206-0.66,2.12-0.66c1.007,0,1.79,0.247,2.349,0.743c0.559,0.494,0.838,1.203,0.838,2.126h3.593
		l0.025-0.076c0.042-1.676-0.561-3.03-1.809-4.063s-2.896-1.549-4.945-1.549c-1.93,0-3.517,0.48-4.761,1.44
		c-1.244,0.961-1.866,2.199-1.866,3.714c0,1.507,0.552,2.696,1.657,3.567s2.723,1.629,4.856,2.272
		c1.244,0.381,2.114,0.787,2.609,1.219s0.743,1.003,0.743,1.714C101.46,231.758,101.2,232.313,100.68,232.728z"/>
</g>
<path fill-rule="evenodd" clip-rule="evenodd" fill="#FFFFFF" d="M196.882,94.337c4.107-0.377,7.656-0.648,11.192-1.053
	c1.304-0.15,2.051,0.225,2.72,1.364c3.002,5.115,5.3,10.522,7.057,16.18c0.427,1.375,0.144,2.222-0.997,3.108
	c-3.034,2.356-5.923,4.896-8.953,7.252c-1.232,0.957-1.85,1.906-1.523,3.535c0.54,2.678,0.563,5.435,0.265,8.122
	c-0.239,2.17,0.565,3.464,2.178,4.718c2.882,2.243,5.583,4.718,8.45,6.981c1.188,0.94,1.588,1.839,1.166,3.346
	c-1.492,5.338-3.449,10.48-5.995,15.411c-0.672,1.297-1.451,1.675-2.879,1.494c-3.9-0.494-7.83-0.76-11.729-1.268
	c-1.302-0.168-2.081,0.149-2.841,1.178c-2.349,3.179-5.104,5.992-8.138,8.515c-0.988,0.823-1.259,1.673-1.13,2.919
	c0.413,4.004,0.61,8.033,1.094,12.028c0.191,1.582-0.281,2.386-1.619,3.113c-4.539,2.467-9.242,4.515-14.162,6.103
	c-1.482,0.479-2.392,0.226-3.349-1.009c-2.412-3.108-4.997-6.08-7.431-9.171c-0.783-0.993-1.542-1.379-2.845-1.178
	c-4.378,0.673-8.788,0.642-13.167,0.061c-1.347-0.183-2.076,0.269-2.844,1.207c-2.432,2.973-4.99,5.845-7.357,8.868
	c-1.078,1.377-2.065,1.788-3.8,1.21c-4.724-1.57-9.286-3.464-13.669-5.83c-1.34-0.723-1.835-1.467-1.607-3.073
	c0.542-3.798,0.768-7.64,1.213-11.455c0.178-1.529-0.172-2.604-1.461-3.603c-3.123-2.418-5.867-5.265-8.193-8.454
	c-1.064-1.458-2.147-2.032-3.979-1.803c-3.713,0.474-7.466,0.627-11.185,1.057c-1.463,0.17-2.179-0.303-2.826-1.583
	c-2.417-4.784-4.313-9.744-5.695-14.927c-0.352-1.317-0.077-2.058,0.938-2.862c3.23-2.562,6.367-5.239,9.599-7.795
	c1.06-0.838,1.559-1.708,1.373-3.096c-0.488-3.651-0.137-7.31,0.331-10.929c0.2-1.543-0.267-2.428-1.384-3.33
	c-2.915-2.354-5.706-4.864-8.659-7.168c-1.334-1.042-1.535-1.984-0.997-3.574c1.718-5.081,3.957-9.896,6.605-14.551
	c0.853-1.498,1.793-2.089,3.568-1.85c3.896,0.526,7.829,0.772,11.734,1.24c1.442,0.172,2.469-0.154,3.437-1.284
	c1.215-1.418,2.458-2.954,4.013-3.907c3.383-2.075,4.064-4.894,3.39-8.545c-0.49-2.661-0.435-5.418-0.852-8.096
	c-0.266-1.697,0.301-2.519,1.77-3.275c5.187-2.665,10.572-4.744,16.222-6.211c1.458-0.378,2.226-0.02,3.071,1.063
	c2.019,2.583,4.132,5.091,6.208,7.63c0.534,0.653,1.059,1.313,1.608,1.952c1.607,1.872,11.897,1.984,13.497,0.111
	c2.554-2.993,5.113-5.985,7.558-9.067c1.007-1.271,1.917-1.636,3.563-1.154c5.512,1.616,10.736,3.842,15.787,6.558
	c1.525,0.822,2.168,1.748,1.919,3.517c-0.419,2.966-0.626,5.961-0.922,8.944c-0.01,0.093-0.021,0.188-0.052,0.275
	c-1.317,3.758,0.949,5.891,3.544,7.917C192.047,92.037,193.273,95.944,196.882,94.337z M194.591,130.423
	c0.006-24.206-19.58-43.863-43.731-43.892c-24.432-0.028-44.117,19.475-44.164,43.759c-0.047,24.251,19.702,44.108,43.889,44.135
	C174.816,174.447,194.586,154.68,194.591,130.423z"/>
<path fill-rule="evenodd" clip-rule="evenodd" fill="#FFFFFF" d="M163.535,146.044c-3.386-4.257-6.368-8.485-9.838-12.264
	c-5.968-6.495-2.257-13.682,3.418-16.534c2.758-1.385,5.582-2.621,8.947-3.697c-6.969-3.307-13.453-3.18-19.622,0.662
	c-6.048,3.767-9.109,9.377-8.479,16.571c0.175,1.993-0.343,3.087-1.784,4.248c-5.692,4.582-11.368,9.189-16.922,13.938
	c-1.728,1.477-2.461,1.446-3.538-0.654c-9.929-19.357-2.039-43.278,17.568-53.005c19.525-9.689,43.451-1.417,52.73,18.229
	c7.188,15.219,4.009,33.225-7.918,44.848c-12.135,11.827-30.205,14.599-45.237,6.938c-0.907-0.464-1.776-1-3.01-1.701
	c3.694-3.034,7.151-5.877,10.609-8.723c1.448-1.188,2.988-2.282,4.325-3.587c2.979-2.906,6.03-4.916,10.611-3.67
	C157.986,148.347,160.773,147.514,163.535,146.044z M157.853,135.947c2.276,2.887,4.302,5.438,6.302,8.008
	c0.656,0.841,1.194,1.22,2.271,0.413c5.996-4.485,8.814-10.526,8.675-17.905c-0.048-2.595-0.789-5.141-2.964-7.34
	C171.677,129.083,166.361,135.366,157.853,135.947z"/>
</svg>
