<?xml version="1.0" encoding="utf-8"?>
<!-- Generator: Adobe Illustrator 16.0.0, SVG Export Plug-In . SVG Version: 6.00 Build 0)  -->
<!DOCTYPE svg PUBLIC "-//W3C//DTD SVG 1.1//EN" "http://www.w3.org/Graphics/SVG/1.1/DTD/svg11.dtd">
<svg version="1.1" id="Layer_1" xmlns="http://www.w3.org/2000/svg" xmlns:xlink="http://www.w3.org/1999/xlink" x="0px" y="0px"
	 width="300px" height="300px" viewBox="0 0 300 300" enable-background="new 0 0 300 300" xml:space="preserve">
<ellipse fill="#06788B" cx="150.09" cy="148.142" rx="146.586" ry="146.645"/>
<g>
	<path fill="#FFFFFF" d="M218.623,220.332h2.691c0.99,0,1.74,0.25,2.253,0.749s0.769,1.173,0.769,2.019
		c0,0.863-0.254,1.516-0.762,1.955s-1.283,0.66-2.324,0.66h-2.627V220.332z M221.568,228.571c0.922,0,1.635,0.256,2.139,0.769
		c0.504,0.512,0.756,1.229,0.756,2.151v1.308c0,0.584,0.049,1.189,0.146,1.815s0.315,1.075,0.653,1.346h3.822v-0.267
		c-0.339-0.271-0.578-0.688-0.718-1.25c-0.14-0.563-0.21-1.104-0.21-1.619v-1.358c0-1.108-0.238-2.04-0.717-2.793
		s-1.264-1.29-2.355-1.612c0.965-0.424,1.699-0.979,2.203-1.67c0.504-0.689,0.756-1.508,0.756-2.456
		c0-1.718-0.596-3.058-1.784-4.019c-1.188-0.96-2.837-1.44-4.944-1.44h-6.398v18.484h3.707v-7.389H221.568z M208.289,228.381
		c0,1.465-0.355,2.658-1.066,3.58s-1.701,1.384-2.971,1.384c-1.262,0-2.243-0.462-2.945-1.384c-0.703-0.922-1.055-2.115-1.055-3.58
		v-3.352c0-1.439,0.35-2.619,1.048-3.542s1.674-1.384,2.927-1.384c1.27,0,2.264,0.461,2.982,1.384c0.72,0.923,1.08,2.103,1.08,3.542
		V228.381z M211.982,225.055c0-2.26-0.719-4.133-2.158-5.617c-1.438-1.486-3.305-2.229-5.598-2.229
		c-2.277,0-4.125,0.742-5.542,2.229c-1.417,1.484-2.126,3.357-2.126,5.617v3.326c0,2.268,0.711,4.143,2.133,5.624
		s3.275,2.222,5.561,2.222c2.293,0,4.155-0.738,5.586-2.215c1.43-1.478,2.145-3.354,2.145-5.631V225.055z M195.352,217.476h-14.193
		v2.856h5.205v15.628h3.707v-15.628h5.281V217.476z M173.668,222.554h0.076l2.045,6.513h-4.178L173.668,222.554z M177.947,235.96
		h3.871l-6.207-18.484h-3.797l-6.232,18.484h3.871l1.244-3.986h5.992L177.947,235.96z M156.072,217.476h-3.707v18.484h11.984v-2.844
		h-8.277V217.476z M145.148,232.799c-0.521,0.414-1.276,0.622-2.266,0.622c-1.1,0-1.972-0.259-2.615-0.774s-0.965-1.32-0.965-2.412
		h-3.593l-0.025,0.076c-0.042,1.963,0.649,3.44,2.076,4.431s3.134,1.485,5.123,1.485c2.031,0,3.665-0.457,4.9-1.371
		s1.854-2.162,1.854-3.745c0-1.515-0.533-2.735-1.6-3.663c-1.066-0.926-2.615-1.678-4.646-2.253
		c-1.329-0.448-2.264-0.874-2.806-1.276c-0.542-0.401-0.813-0.916-0.813-1.542c0-0.686,0.25-1.249,0.749-1.688s1.206-0.66,2.12-0.66
		c1.007,0,1.79,0.248,2.349,0.742c0.559,0.496,0.838,1.205,0.838,2.127h3.593l0.025-0.076c0.042-1.676-0.561-3.029-1.809-4.063
		s-2.896-1.549-4.945-1.549c-1.93,0-3.517,0.48-4.761,1.441c-1.244,0.96-1.866,2.197-1.866,3.713c0,1.506,0.552,2.695,1.657,3.567
		s2.723,1.63,4.856,2.272c1.244,0.381,2.114,0.787,2.609,1.219s0.743,1.003,0.743,1.714
		C145.929,231.83,145.669,232.385,145.148,232.799z M132.891,217.476h-3.707v12.441l-0.076,0.013l-7.452-12.454h-3.707v18.484h3.707
		v-12.454l0.076-0.013l7.452,12.467h3.707V217.476z M108.021,222.554h0.076l2.044,6.513h-4.177L108.021,222.554z M112.299,235.96
		h3.872l-6.208-18.484h-3.796l-6.233,18.484h3.872l1.244-3.986h5.992L112.299,235.96z M88.546,220.332h2.691
		c0.99,0,1.741,0.25,2.253,0.749s0.768,1.173,0.768,2.019c0,0.863-0.254,1.516-0.762,1.955s-1.282,0.66-2.323,0.66h-2.628V220.332z
		 M91.492,228.571c0.922,0,1.636,0.256,2.139,0.769c0.503,0.512,0.755,1.229,0.755,2.151v1.308c0,0.584,0.049,1.189,0.146,1.815
		s0.315,1.075,0.654,1.346h3.821v-0.267c-0.338-0.271-0.578-0.688-0.717-1.25c-0.14-0.563-0.209-1.104-0.209-1.619v-1.358
		c0-1.108-0.239-2.04-0.717-2.793s-1.263-1.29-2.355-1.612c0.965-0.424,1.699-0.979,2.203-1.67c0.503-0.689,0.755-1.508,0.755-2.456
		c0-1.718-0.595-3.058-1.784-4.019c-1.189-0.96-2.837-1.44-4.945-1.44h-6.398v18.484h3.707v-7.389H91.492z M82.808,217.476H68.615
		v2.856h5.205v15.628h3.707v-15.628h5.281V217.476z"/>
</g>
<g>
	<path fill="#FFFFFF" d="M231.579,119.367c-0.001-0.639-0.069-2.001-0.605-3.747c-0.401-1.306-1.075-2.826-2.16-4.335
		c-1.624-2.273-4.173-4.459-7.787-5.98c-2.829-1.197-6.312-2.015-10.614-2.319V90.932c0-1.449-0.662-2.792-1.773-3.599
		s-2.51-0.959-3.748-0.409l-36.5,16.249c-1.496,0.666-2.479,2.255-2.479,4.008s0.982,3.342,2.479,4.008l36.5,16.249
		c1.238,0.551,2.637,0.398,3.748-0.408s1.773-2.151,1.773-3.6v-11.759c2.871,0.242,5.121,0.746,6.84,1.368
		c1.815,0.656,3.056,1.426,3.927,2.159c1.299,1.104,1.828,2.125,2.122,2.912c0.141,0.393,0.212,0.726,0.246,0.955
		c0.018,0.114,0.025,0.201,0.029,0.254l0.003,0.053v0.005h0.001l-0.002,0.082v7.417v1.625v17.334V147v2.514
		c-0.001,4.499-0.696,7.631-1.6,9.817c-0.682,1.641-1.478,2.771-2.293,3.619c-1.219,1.264-2.539,1.916-3.65,2.268
		c-1.102,0.352-1.965,0.367-2.028,0.365v0.002l-0.097-0.004h-28.666H147.92c-2.209,0-4,1.941-4,4.334s1.791,4.334,4,4.334h37.324
		h28.666v-0.002l0.097,0.002c0.552,0,1.863-0.051,3.597-0.514c1.298-0.35,2.837-0.936,4.432-1.936
		c2.391-1.486,4.892-3.963,6.674-7.656c1.793-3.689,2.871-8.492,2.869-14.629V147v-1.166V128.5v-1.625v-7.417h-0.001
		L231.579,119.367z"/>
	<path fill="#FFFFFF" d="M66.424,157.479c0.001,0.641,0.069,2.002,0.605,3.748c0.401,1.307,1.075,2.826,2.16,4.336
		c1.624,2.273,4.173,4.459,7.787,5.979c2.829,1.197,6.312,2.016,10.614,2.32v12.053c0,1.449,0.662,2.793,1.773,3.6
		s2.51,0.959,3.748,0.408l36.5-16.248c1.496-0.666,2.479-2.256,2.479-4.008c0-1.754-0.982-3.342-2.479-4.008l-36.5-16.25
		c-1.238-0.551-2.637-0.398-3.748,0.408c-1.111,0.807-1.773,2.151-1.773,3.6v11.76c-2.871-0.242-5.121-0.746-6.84-1.369
		c-1.815-0.656-3.056-1.426-3.927-2.158c-1.299-1.104-1.828-2.125-2.122-2.912c-0.141-0.393-0.212-0.725-0.246-0.953
		c-0.018-0.115-0.025-0.201-0.029-0.254l-0.003-0.055v-0.004h-0.001l0.002-0.082v-7.417v-1.625v-17.334v-1.166v-2.514
		c0.001-4.498,0.696-7.631,1.6-9.816c0.682-1.641,1.478-2.771,2.293-3.619c1.219-1.264,2.539-1.916,3.65-2.268
		c1.102-0.352,1.965-0.367,2.028-0.365v-0.002l0.097,0.004h28.666h37.324c2.209,0,4-1.941,4-4.334s-1.791-4.334-4-4.334h-37.324
		H84.093v0.002l-0.097-0.002c-0.552,0-1.863,0.051-3.597,0.514c-1.298,0.35-2.837,0.936-4.432,1.936
		c-2.391,1.486-4.892,3.963-6.674,7.656c-1.793,3.689-2.871,8.492-2.869,14.629v2.514v1.166v17.334v1.625v7.417h0.001
		L66.424,157.479z"/>
</g>
</svg>
